<?xml version="1.0" standalone="no"?>
<!DOCTYPE svg PUBLIC "-//W3C//DTD SVG 1.1//EN" "http://www.w3.org/Graphics/SVG/1.1/DTD/svg11.dtd" >
<svg>
<metadata>
Created by FontForge 20090622 at Mon Aug 31 18:36:38 2020
 By deploy user
Copyright 2011 The Montserrat Project Authors (https://github.com/JulietaUla/Montserrat)
</metadata>
<defs>
<font id="Montserrat-Light" horiz-adv-x="0" >
  <font-face 
    font-family="Montserrat Light"
    font-weight="300"
    font-stretch="normal"
    units-per-em="1000"
    panose-1="0 0 4 0 0 0 0 0 0 0"
    ascent="800"
    descent="-200"
    x-height="522"
    cap-height="700"
    bbox="-809 -261 1562 1034"
    underline-thickness="50"
    underline-position="-50"
    unicode-range="U+000D-U+FB02"
  />
<missing-glyph horiz-adv-x="587" 
d="M40 0v700h507v-700h-507zM120 70h347v560h-347v-560z" />
    <glyph glyph-name="fi" unicode="fi" horiz-adv-x="669" 
d="M116 602q0 66 38 105t107 39q66 0 103 -34l-20 -38q-32 29 -81 29q-98 0 -98 -105v-76h167v-43h-166v-479h-50v479h-96v43h96v80zM539 730q17 0 29 -11.5t12 -28.5t-12 -29t-29 -12t-29 11.5t-12 28.5t12 29t29 12zM514 0v522h50v-522h-50z" />
    <glyph glyph-name="fl" unicode="fl" horiz-adv-x="589" 
d="M116 602q0 66 38 105t107 39q66 0 103 -34l-20 -38q-32 29 -81 29q-98 0 -98 -105v-76h167v-43h-166v-479h-50v479h-96v43h96v80zM434 742h50v-742h-50v742z" />
    <glyph glyph-name=".notdef" horiz-adv-x="587" 
d="M40 0v700h507v-700h-507zM120 70h347v560h-347v-560z" />
    <glyph glyph-name=".null" 
 />
    <glyph glyph-name="nonmarkingreturn" horiz-adv-x="333" 
 />
    <glyph glyph-name="NULL" 
 />
    <glyph glyph-name="NULL" 
 />
    <glyph glyph-name="CR" unicode="&#xd;" horiz-adv-x="257" 
 />
    <glyph glyph-name="space" unicode=" " horiz-adv-x="257" 
 />
    <glyph glyph-name="exclam" unicode="!" horiz-adv-x="252" 
d="M107 201l-10 499h58l-10 -499h-38zM126 -4q-17 0 -29 12t-12 29t12 29t29 12q18 0 30 -12t12 -29t-12 -29t-30 -12z" />
    <glyph glyph-name="quotedbl" unicode="&#x22;" horiz-adv-x="357" 
d="M78 442l-4 258h46l-4 -258h-38zM240 442l-4 258h46l-4 -258h-38z" />
    <glyph glyph-name="numbersign" unicode="#" horiz-adv-x="690" 
d="M658 462h-149l-28 -224h145v-40h-150l-24 -198h-40l24 198h-219l-25 -198h-40l24 198h-144v40h149l28 224h-146v40h151l24 198h41l-25 -198h220l24 198h40l-24 -198h144v-40zM441 238l28 224h-220l-27 -224h219z" />
    <glyph glyph-name="dollar" unicode="$" horiz-adv-x="609" 
d="M558 180q0 -76 -59 -128t-173 -57v-115h-37v115q-73 3 -137.5 29t-100.5 66l23 38q35 -36 93 -60.5t122 -27.5v290q-40 10 -65.5 18t-58 23t-51 33.5t-31.5 48t-13 66.5q0 75 55.5 127t163.5 58v116h37v-115q121 -3 203 -63l-19 -41q-82 56 -184 59v-290q45 -11 69 -18
t60.5 -23t55 -33.5t33 -47.5t14.5 -68zM121 520q0 -32 12.5 -56t38.5 -40t52 -25.5t65 -19.5v280q-83 -6 -125.5 -44.5t-42.5 -94.5zM326 40q90 4 135.5 42t45.5 95q0 27 -10.5 48.5t-25.5 35.5t-41 26t-48 18.5t-56 15.5v-281z" />
    <glyph glyph-name="percent" unicode="%" horiz-adv-x="817" 
d="M199 326q-69 0 -111.5 52t-42.5 137t42.5 137t111.5 52t112 -52t43 -137t-43 -137t-112 -52zM148 0l478 700h43l-478 -700h-43zM199 360q53 0 85 41.5t32 113.5t-32 113.5t-85 41.5q-52 0 -84 -42t-32 -113t32 -113t84 -42zM618 -4q-69 0 -112 52t-43 137t43 137t112 52
t111.5 -52t42.5 -137t-42.5 -137t-111.5 -52zM618 30q52 0 84 42t32 113t-32 113t-84 42q-53 0 -85 -41.5t-32 -113.5t32 -113.5t85 -41.5z" />
    <glyph glyph-name="ampersand" unicode="&#x26;" horiz-adv-x="655" 
d="M644 23l-30 -33l-101 106q-86 -101 -233 -101q-100 0 -164 48.5t-64 126.5q0 61 41 111.5t140 108.5l-1 2q-52 54 -71 90.5t-19 78.5q0 65 45 104t121 39q71 0 112.5 -35.5t41.5 -97.5q0 -52 -35.5 -93.5t-124.5 -93.5l207 -219q34 60 50 142l41 -13q-20 -97 -60 -161z
M189 561q0 -33 17 -63.5t67 -83.5q83 48 114 81.5t31 74.5q0 44 -29 69.5t-81 25.5q-56 0 -87.5 -28.5t-31.5 -75.5zM282 37q128 0 201 91l-221 233q-92 -54 -126.5 -95t-34.5 -92q0 -61 50.5 -99t130.5 -38z" />
    <glyph glyph-name="quotesingle" unicode="'" horiz-adv-x="194" 
d="M78 442l-4 258h46l-4 -258h-38z" />
    <glyph glyph-name="parenleft" unicode="(" horiz-adv-x="321" 
d="M226 -194q-114 189 -114 468q0 284 114 468h48q-113 -193 -113 -468t113 -468h-48z" />
    <glyph glyph-name="parenright" unicode=")" horiz-adv-x="322" 
d="M95 -194h-47q112 191 112 468t-112 468h47q115 -183 115 -468q0 -280 -115 -468z" />
    <glyph glyph-name="asterisk" unicode="*" horiz-adv-x="375" 
d="M351 638l-128 -72l128 -73l-18 -32l-129 75l1 -147h-35v146l-128 -74l-18 32l129 73l-129 72l18 32l128 -74v146h35l-1 -147l129 75z" />
    <glyph glyph-name="plus" unicode="+" horiz-adv-x="569" 
d="M497 371v-43h-190v-185h-45v185h-190v43h190v186h45v-186h190z" />
    <glyph glyph-name="comma" unicode="," horiz-adv-x="200" 
d="M100 81q18 0 30 -12.5t12 -29.5q0 -15 -9 -46l-39 -136h-36l33 141q-33 8 -33 41q0 18 12 30t30 12z" />
    <glyph glyph-name="hyphen" unicode="-" horiz-adv-x="381" 
d="M62 246v45h257v-45h-257z" />
    <glyph glyph-name="period" unicode="." horiz-adv-x="200" 
d="M100 -4q-17 0 -29.5 12.5t-12.5 30.5t12.5 30t29.5 12t29.5 -12t12.5 -30t-12.5 -30.5t-29.5 -12.5z" />
    <glyph glyph-name="slash" unicode="/" horiz-adv-x="320" 
d="M-23 -100l330 942h46l-330 -942h-46z" />
    <glyph glyph-name="zero" unicode="0" horiz-adv-x="658" 
d="M329 -5q-122 0 -198 96.5t-76 258.5t76 258.5t198 96.5t198 -96.5t76 -258.5t-76 -258.5t-198 -96.5zM329 42q101 0 162 82t61 226t-61 226t-162 82t-162 -82t-61 -226t61 -226t162 -82z" />
    <glyph glyph-name="one" unicode="1" horiz-adv-x="353" 
d="M9 700h222v-700h-51v654h-171v46z" />
    <glyph glyph-name="two" unicode="2" horiz-adv-x="563" 
d="M116 46h406v-46h-481v36l296 294q58 58 78.5 99.5t20.5 85.5q0 67 -45.5 105t-131.5 38q-130 0 -201 -81l-36 32q83 96 241 96q103 0 164 -50t61 -135q0 -54 -24 -103t-90 -114z" />
    <glyph glyph-name="three" unicode="3" horiz-adv-x="558" 
d="M268 395q116 -3 176.5 -56.5t60.5 -141.5q0 -90 -64 -146t-181 -56q-76 0 -143 25.5t-104 68.5l26 39q34 -38 92.5 -62t128.5 -24q93 0 143 41.5t50 113.5q0 73 -51 114t-153 41h-44v37l207 265h-373v46h439v-36z" />
    <glyph glyph-name="four" unicode="4" horiz-adv-x="654" 
d="M639 239v-45h-147v-194h-50v194h-399v37l380 469h57l-373 -461h336v171h49v-171h147z" />
    <glyph glyph-name="five" unicode="5" horiz-adv-x="558" 
d="M226 407q291 0 291 -205q0 -92 -63 -149.5t-182 -57.5q-76 0 -142.5 26t-103.5 68l26 39q33 -38 91.5 -62t127.5 -24q94 0 144.5 43t50.5 115q0 79 -57.5 120t-193.5 41h-142l37 339h371v-46h-328l-27 -247h100z" />
    <glyph glyph-name="six" unicode="6" horiz-adv-x="602" 
d="M335 414q105 0 169.5 -57t64.5 -151q0 -95 -65.5 -153t-167.5 -58q-136 0 -208.5 92.5t-72.5 258.5q0 174 84 266.5t227 92.5q99 0 159 -36l-21 -41q-50 32 -138 32q-121 0 -190.5 -78.5t-69.5 -227.5q0 -46 6 -84q21 68 81.5 106t141.5 38zM334 39q82 0 133 45.5
t51 120.5t-51 120t-139 45q-85 0 -139.5 -48t-54.5 -119q0 -66 53.5 -115t146.5 -49z" />
    <glyph glyph-name="seven" unicode="7" horiz-adv-x="581" 
d="M34 700h502v-36l-301 -664h-56l298 654h-393v-134h-50v180z" />
    <glyph glyph-name="eight" unicode="8" horiz-adv-x="632" 
d="M430 366q72 -19 111.5 -64t39.5 -110q0 -92 -71 -144.5t-195 -52.5q-123 0 -193.5 52.5t-70.5 144.5q0 66 38.5 110.5t110.5 63.5q-124 40 -124 158q0 84 65 132.5t174 48.5t175 -49t66 -132q0 -57 -32.5 -97.5t-93.5 -60.5zM127 523q0 -63 49.5 -100t138.5 -37
t139.5 36.5t50.5 99.5q0 64 -51.5 101.5t-138.5 37.5t-137.5 -37t-50.5 -101zM315 39q101 0 158 41t57 112q0 70 -57 111t-158 41q-100 0 -156.5 -41t-56.5 -111q0 -71 56 -112t157 -41z" />
    <glyph glyph-name="nine" unicode="9" horiz-adv-x="602" 
d="M266 705q136 0 208.5 -92.5t72.5 -258.5q0 -174 -84 -266.5t-227 -92.5q-99 0 -159 36l21 41q50 -32 138 -32q121 0 190.5 78.5t69.5 227.5q0 46 -6 84q-21 -68 -81.5 -106t-141.5 -38q-105 0 -169.5 57t-64.5 151q0 95 65.5 153t167.5 58zM274 330q85 0 139.5 48
t54.5 119q0 66 -53.5 115t-146.5 49q-82 0 -133 -45.5t-51 -120.5t51 -120t139 -45z" />
    <glyph glyph-name="colon" unicode=":" horiz-adv-x="200" 
d="M100 441q-17 0 -29.5 12.5t-12.5 30.5t12.5 30t29.5 12t29.5 -12t12.5 -30t-12.5 -30.5t-29.5 -12.5zM100 -4q-17 0 -29.5 12.5t-12.5 30.5t12.5 30t29.5 12t29.5 -12t12.5 -30t-12.5 -30.5t-29.5 -12.5z" />
    <glyph glyph-name="semicolon" unicode=";" horiz-adv-x="200" 
d="M100 441q-17 0 -29.5 12.5t-12.5 30.5t12.5 30t29.5 12t29.5 -12t12.5 -30t-12.5 -30.5t-29.5 -12.5zM100 81q18 0 30 -12.5t12 -29.5q0 -15 -9 -46l-39 -136h-36l33 141q-33 8 -33 41q0 18 12 30t30 12z" />
    <glyph glyph-name="less" unicode="&#x3c;" horiz-adv-x="569" 
d="M497 547v-46l-377 -151l377 -151v-46l-425 173v48z" />
    <glyph glyph-name="equal" unicode="=" horiz-adv-x="569" 
d="M72 442v42h425v-42h-425zM72 216v42h425v-42h-425z" />
    <glyph glyph-name="greater" unicode="&#x3e;" horiz-adv-x="569" 
d="M72 547l425 -173v-48l-425 -173v46l377 151l-377 151v46z" />
    <glyph glyph-name="question" unicode="?" horiz-adv-x="562" 
d="M241 201q0 47 19.5 85t47 63l55 49t47 56.5t19.5 72.5q0 59 -46 96t-129 37q-130 0 -201 -83l-37 29q83 99 241 99q102 0 163 -46.5t61 -124.5q0 -48 -19.5 -86t-47 -63.5l-55 -50t-47 -58t-19.5 -75.5h-52zM267 -4q-17 0 -29 12t-12 29t12 29t29 12q18 0 30 -12t12 -29
t-12 -29t-30 -12z" />
    <glyph glyph-name="at" unicode="@" horiz-adv-x="1033" 
d="M518 705q203 0 331.5 -123t128.5 -319q0 -126 -41.5 -196.5t-112.5 -70.5q-48 0 -76.5 28.5t-28.5 78.5v21q-30 -60 -86 -94t-127 -34q-107 0 -178 73.5t-71 186.5t71 186t178 73q71 0 126.5 -33t85.5 -92v121h46v-395q0 -79 66 -79q50 0 79.5 59.5t29.5 165.5
q0 181 -117 293t-304 112q-188 0 -305 -114.5t-117 -298.5q0 -183 116 -298.5t302 -115.5q110 0 191 44l13 -37q-88 -46 -204 -46q-203 0 -331 126.5t-128 326.5t129.5 325.5t333.5 125.5zM511 38q90 0 149 60.5t59 157.5q0 96 -59 156.5t-149 60.5t-148.5 -60.5
t-58.5 -156.5t58.5 -157t148.5 -61z" />
    <glyph glyph-name="A" unicode="A" horiz-adv-x="705" 
d="M645 0l-90 197h-406l-89 -197h-55l322 700h51l322 -700h-55zM169 240h367l-184 404z" />
    <glyph glyph-name="B" unicode="B" horiz-adv-x="752" 
d="M538 361q154 -30 154 -176q0 -89 -65 -137t-193 -48h-312v700h292q114 0 177.5 -46.5t63.5 -132.5q0 -60 -31.5 -101t-85.5 -59zM412 656h-239v-279h239q92 0 141.5 35.5t49.5 104.5q0 68 -49.5 103.5t-141.5 35.5zM434 44q207 0 207 145q0 144 -207 144h-261v-289h261z
" />
    <glyph glyph-name="C" unicode="C" horiz-adv-x="716" 
d="M418 -5q-156 0 -259.5 101t-103.5 254t103.5 254t259.5 101q158 0 249 -97l-32 -33q-84 83 -215 83q-134 0 -224 -88t-90 -220t90 -220t224 -88q130 0 215 84l32 -33q-92 -98 -249 -98z" />
    <glyph glyph-name="D" unicode="D" horiz-adv-x="826" 
d="M122 0v700h277q166 0 269 -98t103 -252t-103 -252t-269 -98h-277zM173 46h222q147 0 236 84.5t89 219.5t-89 219.5t-236 84.5h-222v-608z" />
    <glyph glyph-name="E" unicode="E" horiz-adv-x="669" 
d="M173 46h432v-46h-483v700h468v-46h-417v-276h373v-45h-373v-287z" />
    <glyph glyph-name="F" unicode="F" horiz-adv-x="631" 
d="M590 654h-417v-299h373v-46h-373v-309h-51v700h468v-46z" />
    <glyph glyph-name="G" unicode="G" horiz-adv-x="773" 
d="M622 106v241h49v-262q-95 -90 -250 -90q-158 0 -262 101t-104 254t104 254t263 101t252 -96l-32 -34q-84 83 -219 83q-136 0 -226.5 -88t-90.5 -220t90.5 -220t226.5 -88q120 0 199 64z" />
    <glyph glyph-name="H" unicode="H" horiz-adv-x="814" 
d="M641 700h51v-700h-51v333h-468v-333h-51v700h51v-322h468v322z" />
    <glyph glyph-name="I" unicode="I" horiz-adv-x="295" 
d="M122 0v700h51v-700h-51z" />
    <glyph glyph-name="J" unicode="J" horiz-adv-x="491" 
d="M185 -5q-57 0 -106.5 26.5t-79.5 73.5l31 34q59 -88 155 -88q139 0 139 165v448h-258v46h309v-494q0 -211 -190 -211z" />
    <glyph glyph-name="K" unicode="K" horiz-adv-x="703" 
d="M631 0l-301 345l-157 -161v-184h-51v700h51v-450l437 450h62l-308 -318l329 -382h-62z" />
    <glyph glyph-name="L" unicode="L" horiz-adv-x="585" 
d="M122 0v700h51v-654h403v-46h-454z" />
    <glyph glyph-name="M" unicode="M" horiz-adv-x="956" 
d="M834 0h-50l-1 599l-293 -506h-25l-293 504v-597h-50v700h43l313 -541l313 541h42z" />
    <glyph glyph-name="N" unicode="N" horiz-adv-x="814" 
d="M641 700h51v-700h-42l-477 608v-608h-51v700h43l476 -608v608z" />
    <glyph glyph-name="O" unicode="O" horiz-adv-x="838" 
d="M419 -5q-157 0 -260.5 101.5t-103.5 253.5t103.5 253.5t260.5 101.5q156 0 260 -101t104 -254t-104 -254t-260 -101zM419 42q134 0 223 87.5t89 220.5t-89 220.5t-223 87.5t-223.5 -87.5t-89.5 -220.5t89.5 -220.5t223.5 -87.5z" />
    <glyph glyph-name="P" unicode="P" horiz-adv-x="715" 
d="M373 700q132 0 207 -62.5t75 -173.5q0 -110 -75 -172.5t-207 -62.5h-200v-229h-51v700h251zM373 275q112 0 171 49t59 140t-59 140.5t-171 49.5h-200v-379h200z" />
    <glyph glyph-name="Q" unicode="Q" horiz-adv-x="838" 
d="M787 -23l27 -31q-64 -79 -165 -79q-58 0 -112.5 30t-119.5 98q-156 1 -259 102t-103 253t103.5 253.5t260.5 101.5q156 0 260 -101t104 -254q0 -135 -84 -232t-216 -118q86 -90 166 -90q81 0 138 67zM106 350q0 -131 89.5 -219.5t223.5 -88.5q133 0 222.5 88.5
t89.5 219.5t-89.5 219.5t-222.5 88.5q-134 0 -223.5 -88.5t-89.5 -219.5z" />
    <glyph glyph-name="R" unicode="R" horiz-adv-x="720" 
d="M666 0h-58l-167 234q-37 -5 -68 -5h-200v-229h-51v700h251q132 0 207 -62.5t75 -173.5q0 -83 -42.5 -139.5t-121.5 -79.5zM173 274h200q112 0 171 49.5t59 140.5t-59 140.5t-171 49.5h-200v-380z" />
    <glyph glyph-name="S" unicode="S" horiz-adv-x="609" 
d="M306 -5q-77 0 -146.5 26.5t-108.5 68.5l23 38q37 -39 99.5 -63.5t131.5 -24.5q100 0 151 38t51 99q0 42 -24 71t-62.5 44t-85.5 26t-93.5 24.5t-85 32.5t-62.5 55.5t-24 88.5q0 80 63 133t185 53q124 0 211 -63l-19 -41q-86 59 -192 59q-97 0 -147 -39t-50 -101
q0 -49 32.5 -80.5t81 -44.5l105 -28.5t105 -32t81 -56t32.5 -98.5q0 -80 -64.5 -132.5t-187.5 -52.5z" />
    <glyph glyph-name="T" unicode="T" horiz-adv-x="563" 
d="M256 0v654h-252v46h555v-46h-252v-654h-51z" />
    <glyph glyph-name="U" unicode="U" horiz-adv-x="793" 
d="M396 -5q-133 0 -206.5 77t-73.5 225v403h51v-401q0 -129 59 -193t171 -64q229 0 229 257v401h51v-403q0 -148 -74 -225t-207 -77z" />
    <glyph glyph-name="V" unicode="V" horiz-adv-x="687" 
d="M628 700h53l-312 -700h-51l-312 700h56l283 -634z" />
    <glyph glyph-name="W" unicode="W" horiz-adv-x="1098" 
d="M1008 700h50l-237 -700h-54l-217 628l-218 -628h-54l-238 700h54l213 -630l219 630h49l218 -631z" />
    <glyph glyph-name="X" unicode="X" horiz-adv-x="642" 
d="M621 0h-60l-241 324l-240 -324h-60l269 361l-250 339h60l223 -301l223 301h57l-250 -338z" />
    <glyph glyph-name="Y" unicode="Y" horiz-adv-x="625" 
d="M620 700l-282 -459v-241h-51v241l-282 459h56l253 -412l253 412h53z" />
    <glyph glyph-name="Z" unicode="Z" horiz-adv-x="646" 
d="M118 46h493v-46h-564v36l483 618h-477v46h547v-36z" />
    <glyph glyph-name="bracketleft" unicode="[" horiz-adv-x="306" 
d="M122 -194v936h161v-43h-111v-850h111v-43h-161z" />
    <glyph glyph-name="backslash" unicode="\" horiz-adv-x="320" 
d="M343 -100h-46l-330 942h46z" />
    <glyph glyph-name="bracketright" unicode="]" horiz-adv-x="306" 
d="M184 -194h-161v43h111v850h-111v43h161v-936z" />
    <glyph glyph-name="asciicircum" unicode="^" horiz-adv-x="570" 
d="M481 144h-44l-152 367l-152 -367h-43l173 412h45z" />
    <glyph glyph-name="underscore" unicode="_" horiz-adv-x="500" 
d="M0 -36v36h500v-36h-500z" />
    <glyph glyph-name="grave" unicode="`" horiz-adv-x="600" 
d="M303 607l-157 118h72l139 -118h-54z" />
    <glyph glyph-name="a" unicode="a" horiz-adv-x="583" 
d="M282 526q97 0 149 -49.5t52 -145.5v-331h-48v93q-53 -97 -188 -97q-87 0 -137.5 41t-50.5 108q0 65 46.5 105.5t148.5 40.5h179v42q0 73 -39.5 111t-115.5 38q-107 0 -180 -66l-25 36q84 74 209 74zM254 37q132 0 179 117v98h-178q-146 0 -146 -105q0 -51 38 -80.5
t107 -29.5z" />
    <glyph glyph-name="b" unicode="b" horiz-adv-x="675" 
d="M368 526q111 0 184.5 -74t73.5 -191q0 -116 -73.5 -190.5t-184.5 -74.5q-70 0 -126.5 33.5t-87.5 93.5v-123h-48v742h50v-339q31 58 87 90.5t125 32.5zM365 41q91 0 151 61.5t60 158.5t-60 158.5t-151 61.5t-150.5 -61.5t-59.5 -158.5t59.5 -158.5t150.5 -61.5z" />
    <glyph glyph-name="c" unicode="c" horiz-adv-x="555" 
d="M313 -4q-115 0 -189.5 74.5t-74.5 190.5q0 117 74.5 191t189.5 74q134 0 198 -96l-37 -27q-56 78 -161 78q-93 0 -153 -61t-60 -159t60 -159t153 -61q105 0 161 78l37 -27q-66 -96 -198 -96z" />
    <glyph glyph-name="d" unicode="d" horiz-adv-x="675" 
d="M520 742h50v-742h-49v123q-31 -61 -87 -94t-127 -33q-111 0 -184.5 74.5t-73.5 190.5q0 117 73.5 191t184.5 74q70 0 125.5 -33t87.5 -92v341zM310 41q91 0 150.5 61.5t59.5 158.5t-59.5 158.5t-150.5 61.5t-150.5 -61.5t-59.5 -158.5t59.5 -158.5t150.5 -61.5z" />
    <glyph glyph-name="e" unicode="e" horiz-adv-x="597" 
d="M548 263q0 -2 -0.5 -6.5t-0.5 -7.5h-449q4 -93 65.5 -150.5t155.5 -57.5q107 0 167 73l29 -33q-70 -85 -197 -85q-118 0 -193.5 74.5t-75.5 190.5t71 190.5t179 74.5t178.5 -73.5t70.5 -189.5zM299 482q-83 0 -138.5 -54t-61.5 -140h400q-5 85 -61 139.5t-139 54.5z" />
    <glyph glyph-name="f" unicode="f" horiz-adv-x="328" 
d="M263 703q-98 0 -98 -105v-76h167v-43h-166v-479h-50v479h-96v43h96v80q0 66 38 105t107 39q66 0 103 -34l-20 -38q-32 29 -81 29z" />
    <glyph glyph-name="g" unicode="g" horiz-adv-x="682" 
d="M528 522h48v-466q0 -130 -63 -192t-190 -62q-72 0 -136 22t-103 61l27 38q82 -76 211 -76q104 0 154 49.5t50 153.5v88q-32 -57 -89 -88t-128 -31q-112 0 -186 71.5t-74 182.5t74 182t186 71q72 0 130 -32t89 -90v118zM313 64q93 0 153.5 58.5t60.5 150.5t-60.5 150
t-153.5 58t-153 -58t-60 -150t60 -150.5t153 -58.5z" />
    <glyph glyph-name="h" unicode="h" horiz-adv-x="673" 
d="M361 526q98 0 155 -57t57 -164v-305h-50v301q0 88 -44.5 134t-124.5 46q-92 0 -145 -55t-53 -148v-278h-50v742h50v-329q27 54 80 83.5t125 29.5z" />
    <glyph glyph-name="i" unicode="i" horiz-adv-x="261" 
d="M131 649q-17 0 -29 11.5t-12 28.5t12 29t29 12t29 -11.5t12 -28.5t-12 -29t-29 -12zM106 0v522h50v-522h-50z" />
    <glyph glyph-name="j" unicode="j" horiz-adv-x="266" 
d="M136 649q-17 0 -29 11.5t-12 28.5t12 29t29 12t29 -11.5t12 -28.5t-12 -29t-29 -12zM20 -198q-72 0 -108 35l20 37q32 -29 85 -29q46 0 70 27t24 78v572h50v-574q0 -67 -37 -106.5t-104 -39.5z" />
    <glyph glyph-name="k" unicode="k" horiz-adv-x="588" 
d="M514 0l-222 279l-136 -124v-155h-50v742h50v-525l334 305h64l-225 -211l247 -311h-62z" />
    <glyph glyph-name="l" unicode="l" horiz-adv-x="261" 
d="M106 0v742h50v-742h-50z" />
    <glyph glyph-name="m" unicode="m" horiz-adv-x="1064" 
d="M756 526q97 0 152.5 -57t55.5 -164v-305h-50v301q0 88 -43 134t-120 46q-88 0 -139.5 -55t-51.5 -148v-278h-50v301q0 88 -43 134t-120 46q-88 0 -139.5 -55t-51.5 -148v-278h-50v522h48v-112q26 55 77.5 85.5t122.5 30.5q148 0 191 -126q26 58 81.5 92t129.5 34z" />
    <glyph glyph-name="n" unicode="n" horiz-adv-x="673" 
d="M361 526q98 0 155 -57t57 -164v-305h-50v301q0 88 -44.5 134t-124.5 46q-92 0 -145 -55t-53 -148v-278h-50v522h48v-113q27 55 80.5 86t126.5 31z" />
    <glyph glyph-name="o" unicode="o" horiz-adv-x="620" 
d="M310 -4q-113 0 -187 74.5t-74 190.5t74 190.5t187 74.5t187 -74.5t74 -190.5t-74 -190.5t-187 -74.5zM310 41q91 0 150.5 61.5t59.5 158.5t-59.5 158.5t-150.5 61.5t-150.5 -61.5t-59.5 -158.5t59.5 -158.5t150.5 -61.5z" />
    <glyph glyph-name="p" unicode="p" horiz-adv-x="675" 
d="M368 526q111 0 184.5 -74.5t73.5 -190.5q0 -117 -73.5 -191t-184.5 -74q-69 0 -125 32.5t-87 90.5v-313h-50v716h48v-123q31 60 87.5 93.5t126.5 33.5zM365 41q91 0 151 61.5t60 158.5t-60 158.5t-151 61.5t-150.5 -61.5t-59.5 -158.5t59.5 -158.5t150.5 -61.5z" />
    <glyph glyph-name="q" unicode="q" horiz-adv-x="675" 
d="M521 522h49v-716h-50v315q-32 -59 -87.5 -92t-125.5 -33q-111 0 -184.5 74t-73.5 191q0 116 73.5 190.5t184.5 74.5q71 0 127 -33t87 -94v123zM310 41q91 0 150.5 61.5t59.5 158.5t-59.5 158.5t-150.5 61.5t-150.5 -61.5t-59.5 -158.5t59.5 -158.5t150.5 -61.5z" />
    <glyph glyph-name="r" unicode="r" horiz-adv-x="394" 
d="M154 408q50 118 199 118v-49q-2 0 -6 0.5t-6 0.5q-87 0 -136 -54.5t-49 -151.5v-272h-50v522h48v-114z" />
    <glyph glyph-name="s" unicode="s" horiz-adv-x="478" 
d="M238 -4q-63 0 -120 19t-89 48l23 40q32 -27 82.5 -45t105.5 -18q154 0 154 98q0 35 -25.5 56.5t-64 29t-83.5 17.5t-83.5 21.5t-64 42t-25.5 78.5q0 62 51.5 102.5t146.5 40.5q50 0 99 -14t80 -37l-23 -40q-65 47 -157 47q-73 0 -110 -27t-37 -71q0 -43 35.5 -66
t86.5 -31.5t102 -19.5t86.5 -42t35.5 -86q0 -65 -54 -104t-152 -39z" />
    <glyph glyph-name="t" unicode="t" horiz-adv-x="398" 
d="M344 68l21 -35q-38 -37 -107 -37q-68 0 -105 37.5t-37 104.5v341h-96v43h96v114h50v-114h166v-43h-166v-336q0 -104 97 -104q49 0 81 29z" />
    <glyph glyph-name="u" unicode="u" horiz-adv-x="669" 
d="M513 522h50v-522h-48v112q-26 -55 -77 -85.5t-120 -30.5q-102 0 -160 57t-58 164v305h50v-301q0 -88 45 -134t127 -46q88 0 139.5 55t51.5 148v278z" />
    <glyph glyph-name="v" unicode="v" horiz-adv-x="528" 
d="M474 522h51l-236 -522h-51l-235 522h53l208 -467z" />
    <glyph glyph-name="w" unicode="w" horiz-adv-x="862" 
d="M806 522h46l-198 -522h-47l-176 453l-177 -453h-46l-198 522h48l174 -466l178 466h43l177 -465z" />
    <glyph glyph-name="x" unicode="x" horiz-adv-x="519" 
d="M497 0h-59l-179 233l-179 -233h-57l207 269l-196 253h57l168 -217l168 217h56l-196 -253z" />
    <glyph glyph-name="y" unicode="y" horiz-adv-x="528" 
d="M474 522h51l-268 -593q-30 -69 -69.5 -98t-93.5 -29q-76 0 -121 47l25 38q40 -41 97 -41q38 0 65 21t50 72l28 63l-235 520h53l209 -467z" />
    <glyph glyph-name="z" unicode="z" horiz-adv-x="503" 
d="M108 43h351v-43h-415v34l344 445h-339v43h404v-34z" />
    <glyph glyph-name="braceleft" unicode="{" horiz-adv-x="320" 
d="M192 348q0 -59 -41 -74q41 -15 41 -74v-270q0 -81 76 -81h29v-43h-32q-123 0 -123 120v275q0 52 -45 52h-35v43h35q45 0 45 51v275q0 120 123 120h32v-43h-29q-76 0 -76 -81v-270z" />
    <glyph glyph-name="bar" unicode="|" horiz-adv-x="291" 
d="M122 -194v936h47v-936h-47z" />
    <glyph glyph-name="braceright" unicode="}" horiz-adv-x="320" 
d="M223 296h35v-43h-35q-44 0 -44 -52v-275q0 -120 -124 -120h-32v43h29q77 0 77 81v270q0 33 9.5 49.5t31.5 24.5q-22 8 -31.5 24.5t-9.5 49.5v270q0 81 -77 81h-29v43h32q124 0 124 -120v-275q0 -51 44 -51z" />
    <glyph glyph-name="asciitilde" unicode="~" horiz-adv-x="569" 
d="M386 278q-32 0 -61 16.5t-47.5 36t-44 36t-49.5 16.5q-37 0 -59.5 -27.5t-24.5 -73.5h-35q2 67 34 104t84 37q32 0 61 -16.5t47.5 -36t44 -36t49.5 -16.5q37 0 59 27t24 73h36q-3 -67 -35 -103.5t-83 -36.5z" />
    <glyph glyph-name="uni00A0" unicode="&#xa0;" horiz-adv-x="257" 
 />
    <glyph glyph-name="exclamdown" unicode="&#xa1;" horiz-adv-x="252" 
d="M126 526q18 0 30 -12t12 -29t-12 -29t-30 -12q-17 0 -29 12t-12 29t12 29t29 12zM145 321l10 -475h-58l10 475h38z" />
    <glyph glyph-name="cent" unicode="&#xa2;" horiz-adv-x="555" 
d="M325 41q96 5 149 78l37 -27q-62 -91 -186 -96v-116h-36v117q-106 8 -173 81t-67 183t67 183t173 81v117h36v-116q125 -5 186 -96l-37 -27q-53 73 -149 78v-440zM100 261q0 -91 52.5 -151t136.5 -68v438q-84 -8 -136.5 -68t-52.5 -151z" />
    <glyph glyph-name="sterling" unicode="&#xa3;" horiz-adv-x="629" 
d="M197 332v-286h403v-46h-570v46h116v286h-116v36h116v101q0 109 68 172.5t196 63.5q125 0 202 -57l-21 -42q-70 52 -184 52q-105 0 -157.5 -49.5t-52.5 -141.5v-99h286v-36h-286z" />
    <glyph glyph-name="currency" unicode="&#xa4;" horiz-adv-x="700" 
d="M629 317q0 -100 -70 -177l105 -105l-30 -32l-108 107q-78 -60 -176 -60t-175 61l-109 -108l-30 32l106 106q-68 76 -68 176q0 101 68 177l-106 106l30 32l108 -107q76 62 176 62t177 -61l107 106l30 -32l-105 -105q70 -75 70 -178zM117 317q0 -92 68.5 -158t164.5 -66
q97 0 166.5 66t69.5 158q0 94 -69.5 160.5t-166.5 66.5q-96 0 -164.5 -66.5t-68.5 -160.5z" />
    <glyph glyph-name="yen" unicode="&#xa5;" horiz-adv-x="685" 
d="M680 700l-290 -387h206v-34h-228v-104h228v-34h-228v-141h-51v141h-229v34h229v104h-229v34h207l-290 387h55l283 -374l283 374h54z" />
    <glyph glyph-name="brokenbar" unicode="&#xa6;" horiz-adv-x="291" 
d="M122 392v350h47v-350h-47zM122 -194v350h47v-350h-47z" />
    <glyph glyph-name="section" unicode="&#xa7;" horiz-adv-x="482" 
d="M444 286q0 -44 -24.5 -77.5t-64.5 -51.5q66 -37 66 -113q0 -69 -52.5 -108.5t-141.5 -39.5q-56 0 -111.5 19.5t-85.5 48.5l19 39q30 -28 79.5 -46.5t100.5 -18.5q69 0 107.5 27t38.5 79q0 44 -34.5 69.5t-83.5 37t-97.5 25t-83 47t-34.5 90.5q0 90 88 130q-65 36 -65 111
q0 71 55 110.5t152 39.5q48 0 97.5 -14t79.5 -38l-19 -38q-64 48 -160 48q-159 0 -159 -106q0 -44 34.5 -69t83.5 -36.5t97.5 -25.5t83 -48t34.5 -91zM305 178q42 10 68 38t26 70q0 24 -10 42.5t-24.5 30t-38.5 21t-44.5 15l-50.5 13t-49 13.5q-43 -10 -69 -37.5t-26 -68.5
q0 -24 10 -43t24.5 -30.5t38.5 -21t44.5 -15l51 -13.5t49.5 -14z" />
    <glyph glyph-name="dieresis" unicode="&#xa8;" horiz-adv-x="600" 
d="M214 634q-15 0 -25.5 10.5t-10.5 25.5q0 16 10.5 26t25.5 10t25.5 -10.5t10.5 -25.5t-11 -25.5t-25 -10.5zM386 634q-14 0 -25 10.5t-11 25.5t10.5 25.5t25.5 10.5t25.5 -10t10.5 -26q0 -15 -10.5 -25.5t-25.5 -10.5z" />
    <glyph glyph-name="copyright" unicode="&#xa9;" horiz-adv-x="815" 
d="M407 -3q-149 0 -250.5 102.5t-101.5 250.5t102 250.5t252 102.5q151 0 251.5 -100.5t100.5 -250.5q0 -149 -102.5 -252t-251.5 -103zM407 26q136 0 230 94.5t94 231.5t-92 229.5t-230 92.5t-231 -94t-93 -230t92.5 -230t229.5 -94zM416 141q-90 0 -148.5 58.5
t-58.5 150.5t58.5 150.5t148.5 58.5q102 0 155 -73l-31 -25q-45 60 -125 60q-71 0 -117.5 -47.5t-46.5 -123.5t46.5 -123.5t117.5 -47.5q80 0 125 60l31 -24q-52 -74 -155 -74z" />
    <glyph glyph-name="ordfeminine" unicode="&#xaa;" horiz-adv-x="398" 
d="M189 745q134 0 134 -118v-195h-37v54q-34 -57 -121 -57q-57 0 -89 24.5t-32 65.5q0 39 30.5 62.5t96.5 23.5h112v23q0 85 -96 85q-70 0 -116 -38l-17 26q54 44 135 44zM173 458q80 0 110 64v57h-108q-93 0 -93 -59q0 -29 24 -45.5t67 -16.5z" />
    <glyph glyph-name="guillemotleft" unicode="&#xab;" horiz-adv-x="455" 
d="M199 74l-146 187l146 188h49l-144 -188l144 -187h-49zM366 74l-146 187l146 188h49l-144 -188l144 -187h-49z" />
    <glyph glyph-name="logicalnot" unicode="&#xac;" horiz-adv-x="569" 
d="M497 371v-222h-46v180h-379v42h425z" />
    <glyph glyph-name="uni00AD" unicode="&#xad;" horiz-adv-x="381" 
d="M62 246v45h257v-45h-257z" />
    <glyph glyph-name="registered" unicode="&#xae;" horiz-adv-x="815" 
d="M409 703q151 0 251.5 -100.5t100.5 -250.5q0 -149 -102.5 -252t-251.5 -103t-250.5 102.5t-101.5 250.5t102 250.5t252 102.5zM407 26q136 0 230 94.5t94 231.5t-92 229.5t-230 92.5t-231 -94t-93 -230t92.5 -230t229.5 -94zM584 421q0 -47 -24.5 -79.5t-69.5 -46.5
l97 -150h-42l-92 142q-8 -1 -26 -1h-115v-141h-39v410h154q72 0 114.5 -36.5t42.5 -97.5zM424 320q58 0 90 26.5t32 74.5q0 47 -32 73.5t-90 26.5h-113v-201h113z" />
    <glyph glyph-name="macron" unicode="&#xaf;" horiz-adv-x="600" 
d="M153 648v36h294v-36h-294z" />
    <glyph glyph-name="degree" unicode="&#xb0;" horiz-adv-x="420" 
d="M210 394q-65 0 -110.5 45t-45.5 110t45.5 110t110.5 45t110 -45t45 -110t-45.5 -110t-109.5 -45zM210 426q51 0 86.5 36t35.5 87q0 52 -35 87.5t-87 35.5t-87 -35.5t-35 -87.5t35 -87.5t87 -35.5z" />
    <glyph glyph-name="plusminus" unicode="&#xb1;" horiz-adv-x="569" 
d="M307 390h190v-43h-190v-183h-45v183h-190v43h190v184h45v-184zM72 0v43h425v-43h-425z" />
    <glyph glyph-name="uni00B2" unicode="&#xb2;" horiz-adv-x="430" 
d="M111 361h262v-34h-323v26l194 173q39 36 53.5 59t14.5 47q0 35 -30.5 57t-90.5 22q-84 0 -128 -47l-28 22q51 59 158 59q77 0 117.5 -31t40.5 -80q0 -32 -16.5 -60t-61.5 -68z" />
    <glyph glyph-name="uni00B3" unicode="&#xb3;" horiz-adv-x="430" 
d="M213 563q75 -1 115.5 -33t40.5 -85q0 -54 -43.5 -87.5t-123.5 -33.5q-53 0 -98.5 15t-68.5 39l18 30q48 -50 149 -50q63 0 95.5 23t32.5 64t-32 64t-95 23h-38v27l134 149h-256v34h308v-26z" />
    <glyph glyph-name="acute" unicode="&#xb4;" horiz-adv-x="600" 
d="M243 607l139 118h72l-157 -118h-54z" />
    <glyph glyph-name="uni00B5" unicode="&#xb5;" horiz-adv-x="675" 
d="M519 522h50v-522h-48v113q-53 -117 -192 -117q-124 0 -173 88v-278h-50v716h50v-301q0 -88 45 -134t127 -46q88 0 139.5 55t51.5 148v278z" />
    <glyph glyph-name="paragraph" unicode="&#xb6;" horiz-adv-x="619" 
d="M226 -100v505q-92 1 -147.5 46.5t-55.5 122.5q0 78 56.5 123t151.5 45h266v-842h-44v801h-184v-801h-43z" />
    <glyph glyph-name="periodcentered" unicode="&#xb7;" horiz-adv-x="240" 
d="M120 225q-17 0 -29.5 12.5t-12.5 30.5t12 30.5t30 12.5t30 -12.5t12 -30.5t-12.5 -30.5t-29.5 -12.5z" />
    <glyph glyph-name="cedilla" unicode="&#xb8;" horiz-adv-x="600" 
d="M280 -217q-47 0 -79 25l14 28q27 -21 65 -21q30 0 48 14t18 39q0 23 -17 37t-49 14h-20l23 87h33l-16 -60q40 -3 62.5 -24.5t22.5 -55.5q0 -38 -29.5 -60.5t-75.5 -22.5z" />
    <glyph glyph-name="uni00B9" unicode="&#xb9;" horiz-adv-x="430" 
d="M252 361h113v-34h-279v34h127v347h-119v34h158v-381z" />
    <glyph glyph-name="ordmasculine" unicode="&#xba;" horiz-adv-x="411" 
d="M205 429q-73 0 -120.5 44.5t-47.5 113.5t47.5 113.5t120.5 44.5q74 0 121.5 -44.5t47.5 -113.5t-47.5 -113.5t-121.5 -44.5zM205 463q57 0 94 34.5t37 89.5t-37 90t-94 35t-93.5 -35t-36.5 -90t36.5 -89.5t93.5 -34.5z" />
    <glyph glyph-name="guillemotright" unicode="&#xbb;" horiz-adv-x="455" 
d="M89 74h-48l144 187l-144 188h48l146 -188zM256 74h-48l144 187l-144 188h48l146 -188z" />
    <glyph glyph-name="onequarter" unicode="&#xbc;" horiz-adv-x="1025" 
d="M365 319v-34h-279v34h127v347h-119v34h158v-381h113zM730 700h43l-478 -700h-43zM993 145v-33h-94v-112h-38v112h-235v27l210 276h44l-206 -270h189v97h36v-97h94z" />
    <glyph glyph-name="onehalf" unicode="&#xbd;" horiz-adv-x="1025" 
d="M365 319v-34h-279v34h127v347h-119v34h158v-381h113zM730 700h43l-478 -700h-43zM706 34h262v-34h-323v26l194 173q39 36 53.5 59t14.5 47q0 35 -30.5 57t-90.5 22q-84 0 -128 -47l-28 22q51 59 158 59q77 0 117.5 -31t40.5 -80q0 -32 -16.5 -60t-61.5 -68z" />
    <glyph glyph-name="threequarters" unicode="&#xbe;" horiz-adv-x="1025" 
d="M369 403q0 -54 -43.5 -87.5t-123.5 -33.5q-53 0 -98.5 15t-68.5 39l18 30q48 -50 149 -50q63 0 95.5 23t32.5 64t-32 64t-95 23h-38v27l134 149h-256v34h308v-26l-138 -153q75 -1 115.5 -33t40.5 -85zM730 700h43l-478 -700h-43zM993 145v-33h-94v-112h-38v112h-235v27
l210 276h44l-206 -270h189v97h36v-97h94z" />
    <glyph glyph-name="questiondown" unicode="&#xbf;" horiz-adv-x="562" 
d="M294 444q-17 0 -29 12t-12 29t12 29t29 12q18 0 30 -12t12 -29t-12 -29t-30 -12zM305 -159q-102 0 -163 45.5t-61 118.5q0 46 19.5 82t47 60l55 47t47 55t19.5 72h51q0 -45 -19.5 -80.5t-47 -59.5l-54.5 -47t-46.5 -54.5t-19.5 -69.5q0 -53 46.5 -88.5t127.5 -35.5
q131 0 202 83l37 -29q-83 -99 -241 -99z" />
    <glyph glyph-name="Agrave" unicode="&#xc0;" horiz-adv-x="705" 
d="M410 757h-54l-157 118h72zM645 0l-90 197h-406l-89 -197h-55l322 700h51l322 -700h-55zM169 240h367l-184 404z" />
    <glyph glyph-name="Aacute" unicode="&#xc1;" horiz-adv-x="705" 
d="M507 875l-157 -118h-54l139 118h72zM645 0l-90 197h-406l-89 -197h-55l322 700h51l322 -700h-55zM169 240h367l-184 404z" />
    <glyph glyph-name="Acircumflex" unicode="&#xc2;" horiz-adv-x="705" 
d="M353 844l-104 -87h-50l126 118h56l126 -118h-50zM645 0l-90 197h-406l-89 -197h-55l322 700h51l322 -700h-55zM169 240h367l-184 404z" />
    <glyph glyph-name="Atilde" unicode="&#xc3;" horiz-adv-x="705" 
d="M290 834q-23 0 -37 -17.5t-16 -47.5h-33q2 45 24 72.5t59 27.5q32 0 71 -34.5t58 -34.5q23 0 37 17t16 46h33q-2 -44 -24.5 -71t-58.5 -27q-32 0 -71 34.5t-58 34.5zM645 0l-90 197h-406l-89 -197h-55l322 700h51l322 -700h-55zM169 240h367l-184 404z" />
    <glyph glyph-name="Adieresis" unicode="&#xc4;" horiz-adv-x="705" 
d="M267 784q-15 0 -25.5 10.5t-10.5 25.5q0 16 10.5 26t25.5 10t25.5 -10.5t10.5 -25.5t-11 -25.5t-25 -10.5zM439 784q-14 0 -25 10.5t-11 25.5t10.5 25.5t25.5 10.5t25.5 -10t10.5 -26q0 -15 -10.5 -25.5t-25.5 -10.5zM645 0l-90 197h-406l-89 -197h-55l322 700h51
l322 -700h-55zM169 240h367l-184 404z" />
    <glyph glyph-name="Aring" unicode="&#xc5;" horiz-adv-x="705" 
d="M352 774q-42 0 -70.5 28.5t-28.5 68.5q0 41 28.5 70.5t70.5 29.5t71 -29.5t29 -70.5q0 -40 -28.5 -68.5t-71.5 -28.5zM352 942q-30 0 -49.5 -20.5t-19.5 -50.5t19.5 -49.5t49.5 -19.5t50 20t20 49q0 30 -20 50.5t-50 20.5zM645 0l-90 197h-406l-89 -197h-55l322 700h51
l322 -700h-55zM169 240h367l-184 404z" />
    <glyph glyph-name="AE" unicode="&#xc6;" horiz-adv-x="1022" 
d="M526 46h432v-46h-483v197h-293l-122 -197h-55l434 700h504v-46h-417v-276h373v-45h-373v-287zM208 240h267v414h-11z" />
    <glyph glyph-name="Ccedilla" unicode="&#xc7;" horiz-adv-x="716" 
d="M420 42q130 0 215 84l32 -33q-92 -98 -248 -98l-13 -49q40 -3 62.5 -24.5t22.5 -55.5q0 -38 -29.5 -60.5t-75.5 -22.5q-47 0 -79 25l14 28q27 -21 65 -21q30 0 48 14t18 39q0 23 -17 37t-49 14h-20l20 77q-145 11 -238 110t-93 244q0 153 103.5 254t259.5 101
q158 0 249 -97l-32 -33q-84 83 -215 83q-134 0 -224 -88t-90 -220t90 -220t224 -88z" />
    <glyph glyph-name="Egrave" unicode="&#xc8;" horiz-adv-x="669" 
d="M414 757h-54l-157 118h72zM173 46h432v-46h-483v700h468v-46h-417v-276h373v-45h-373v-287z" />
    <glyph glyph-name="Eacute" unicode="&#xc9;" horiz-adv-x="669" 
d="M511 875l-157 -118h-54l139 118h72zM173 46h432v-46h-483v700h468v-46h-417v-276h373v-45h-373v-287z" />
    <glyph glyph-name="Ecircumflex" unicode="&#xca;" horiz-adv-x="669" 
d="M357 844l-104 -87h-50l126 118h56l126 -118h-50zM173 46h432v-46h-483v700h468v-46h-417v-276h373v-45h-373v-287z" />
    <glyph glyph-name="Edieresis" unicode="&#xcb;" horiz-adv-x="669" 
d="M271 784q-15 0 -25.5 10.5t-10.5 25.5q0 16 10.5 26t25.5 10t25.5 -10.5t10.5 -25.5t-11 -25.5t-25 -10.5zM443 784q-14 0 -25 10.5t-11 25.5t10.5 25.5t25.5 10.5t25.5 -10t10.5 -26q0 -15 -10.5 -25.5t-25.5 -10.5zM173 46h432v-46h-483v700h468v-46h-417v-276h373v-45
h-373v-287z" />
    <glyph glyph-name="Igrave" unicode="&#xcc;" horiz-adv-x="295" 
d="M151 757l-157 118h72l139 -118h-54zM122 0v700h51v-700h-51z" />
    <glyph glyph-name="Iacute" unicode="&#xcd;" horiz-adv-x="295" 
d="M91 757l139 118h72l-157 -118h-54zM122 0v700h51v-700h-51z" />
    <glyph glyph-name="Icircumflex" unicode="&#xce;" horiz-adv-x="295" 
d="M176 875l126 -118h-50l-104 87l-104 -87h-50l126 118h56zM122 0v700h51v-700h-51z" />
    <glyph glyph-name="Idieresis" unicode="&#xcf;" horiz-adv-x="295" 
d="M62 784q-15 0 -25.5 10.5t-10.5 25.5q0 16 10.5 26t25.5 10t25.5 -10.5t10.5 -25.5t-11 -25.5t-25 -10.5zM234 784q-14 0 -25 10.5t-11 25.5t10.5 25.5t25.5 10.5t25.5 -10t10.5 -26q0 -15 -10.5 -25.5t-25.5 -10.5zM122 0v700h51v-700h-51z" />
    <glyph glyph-name="Eth" unicode="&#xd0;" horiz-adv-x="829" 
d="M402 700q166 0 269 -98t103 -252t-103 -252t-269 -98h-277v334h-109v43h109v323h277zM398 46q147 0 236 84.5t89 219.5t-89 219.5t-236 84.5h-222v-277h216v-43h-216v-288h222z" />
    <glyph glyph-name="Ntilde" unicode="&#xd1;" horiz-adv-x="814" 
d="M344 834q-23 0 -37 -17.5t-16 -47.5h-33q2 45 24 72.5t59 27.5q32 0 71 -34.5t58 -34.5q23 0 37 17t16 46h33q-2 -44 -24.5 -71t-58.5 -27q-32 0 -71 34.5t-58 34.5zM641 700h51v-700h-42l-477 608v-608h-51v700h43l476 -608v608z" />
    <glyph glyph-name="Ograve" unicode="&#xd2;" horiz-adv-x="838" 
d="M422 757l-157 118h72l139 -118h-54zM419 -5q-157 0 -260.5 101.5t-103.5 253.5t103.5 253.5t260.5 101.5q156 0 260 -101t104 -254t-104 -254t-260 -101zM419 42q134 0 223 87.5t89 220.5t-89 220.5t-223 87.5t-223.5 -87.5t-89.5 -220.5t89.5 -220.5t223.5 -87.5z" />
    <glyph glyph-name="Oacute" unicode="&#xd3;" horiz-adv-x="838" 
d="M362 757l139 118h72l-157 -118h-54zM419 -5q-157 0 -260.5 101.5t-103.5 253.5t103.5 253.5t260.5 101.5q156 0 260 -101t104 -254t-104 -254t-260 -101zM419 42q134 0 223 87.5t89 220.5t-89 220.5t-223 87.5t-223.5 -87.5t-89.5 -220.5t89.5 -220.5t223.5 -87.5z" />
    <glyph glyph-name="Ocircumflex" unicode="&#xd4;" horiz-adv-x="838" 
d="M419 844l-104 -87h-50l126 118h56l126 -118h-50zM419 705q156 0 260 -101t104 -254t-104 -254t-260 -101q-157 0 -260.5 101.5t-103.5 253.5t103.5 253.5t260.5 101.5zM419 42q134 0 223 87.5t89 220.5t-89 220.5t-223 87.5t-223.5 -87.5t-89.5 -220.5t89.5 -220.5
t223.5 -87.5z" />
    <glyph glyph-name="Otilde" unicode="&#xd5;" horiz-adv-x="838" 
d="M485 765q-32 0 -71 34.5t-58 34.5q-23 0 -37 -17.5t-16 -47.5h-33q2 45 24 72.5t59 27.5q32 0 71 -34.5t58 -34.5q23 0 37 17t16 46h33q-2 -44 -24.5 -71t-58.5 -27zM419 -5q-157 0 -260.5 101.5t-103.5 253.5t103.5 253.5t260.5 101.5q156 0 260 -101t104 -254
t-104 -254t-260 -101zM419 42q134 0 223 87.5t89 220.5t-89 220.5t-223 87.5t-223.5 -87.5t-89.5 -220.5t89.5 -220.5t223.5 -87.5z" />
    <glyph glyph-name="Odieresis" unicode="&#xd6;" horiz-adv-x="838" 
d="M333 784q-15 0 -25.5 10.5t-10.5 25.5q0 16 10.5 26t25.5 10t25.5 -10.5t10.5 -25.5t-11 -25.5t-25 -10.5zM505 784q-14 0 -25 10.5t-11 25.5t10.5 25.5t25.5 10.5t25.5 -10t10.5 -26q0 -15 -10.5 -25.5t-25.5 -10.5zM419 -5q-157 0 -260.5 101.5t-103.5 253.5
t103.5 253.5t260.5 101.5q156 0 260 -101t104 -254t-104 -254t-260 -101zM419 42q134 0 223 87.5t89 220.5t-89 220.5t-223 87.5t-223.5 -87.5t-89.5 -220.5t89.5 -220.5t223.5 -87.5z" />
    <glyph glyph-name="multiply" unicode="&#xd7;" horiz-adv-x="569" 
d="M449 485l-135 -135l135 -135l-29 -31l-135 136l-136 -136l-29 31l135 135l-135 135l29 31l136 -136l135 136z" />
    <glyph glyph-name="Oslash" unicode="&#xd8;" horiz-adv-x="838" 
d="M647 632q64 -49 100 -122t36 -160q0 -153 -104 -254t-260 -101q-109 0 -197 52l-85 -117h-45l100 138q-65 48 -101 121.5t-36 160.5q0 152 103.5 253.5t260.5 101.5q110 0 197 -53l86 118h45zM106 350q0 -152 115 -243l367 505q-74 46 -169 46q-134 0 -223.5 -87.5
t-89.5 -220.5zM419 42q134 0 223 87.5t89 220.5q0 152 -113 242l-367 -505q74 -45 168 -45z" />
    <glyph glyph-name="Ugrave" unicode="&#xd9;" horiz-adv-x="793" 
d="M400 757l-157 118h72l139 -118h-54zM396 -5q-133 0 -206.5 77t-73.5 225v403h51v-401q0 -129 59 -193t171 -64q229 0 229 257v401h51v-403q0 -148 -74 -225t-207 -77z" />
    <glyph glyph-name="Uacute" unicode="&#xda;" horiz-adv-x="793" 
d="M340 757l139 118h72l-157 -118h-54zM396 -5q-133 0 -206.5 77t-73.5 225v403h51v-401q0 -129 59 -193t171 -64q229 0 229 257v401h51v-403q0 -148 -74 -225t-207 -77z" />
    <glyph glyph-name="Ucircumflex" unicode="&#xdb;" horiz-adv-x="793" 
d="M397 844l-104 -87h-50l126 118h56l126 -118h-50zM626 700h51v-403q0 -148 -74 -225t-207 -77t-206.5 77t-73.5 225v403h51v-401q0 -129 59 -193t171 -64q229 0 229 257v401z" />
    <glyph glyph-name="Udieresis" unicode="&#xdc;" horiz-adv-x="793" 
d="M311 784q-15 0 -25.5 10.5t-10.5 25.5q0 16 10.5 26t25.5 10t25.5 -10.5t10.5 -25.5t-11 -25.5t-25 -10.5zM483 784q-14 0 -25 10.5t-11 25.5t10.5 25.5t25.5 10.5t25.5 -10t10.5 -26q0 -15 -10.5 -25.5t-25.5 -10.5zM396 -5q-133 0 -206.5 77t-73.5 225v403h51v-401
q0 -129 59 -193t171 -64q229 0 229 257v401h51v-403q0 -148 -74 -225t-207 -77z" />
    <glyph glyph-name="Yacute" unicode="&#xdd;" horiz-adv-x="625" 
d="M466 875l-157 -118h-54l139 118h72zM620 700l-282 -459v-241h-51v241l-282 459h56l253 -412l253 412h53z" />
    <glyph glyph-name="Thorn" unicode="&#xde;" horiz-adv-x="715" 
d="M373 605q132 0 207 -62.5t75 -172.5q0 -112 -75 -174.5t-207 -62.5h-200v-133h-51v700h51v-95h200zM373 179q112 0 171 49.5t59 141.5q0 91 -59 140.5t-171 49.5h-200v-381h200z" />
    <glyph glyph-name="germandbls" unicode="&#xdf;" horiz-adv-x="661" 
d="M440 388q79 -14 125.5 -63.5t46.5 -127.5q0 -92 -66 -146.5t-167 -54.5q-63 0 -110 15l10 44q42 -15 98 -15q82 0 133.5 42.5t51.5 115.5q0 74 -52 115.5t-137 41.5h-58v43q89 1 139.5 44t50.5 117q0 64 -44.5 103.5t-122.5 39.5q-85 0 -133.5 -50.5t-48.5 -146.5v-505
h-50v502q0 118 63.5 181t168.5 63q99 0 157.5 -52t58.5 -133q0 -61 -31.5 -106.5t-82.5 -66.5z" />
    <glyph glyph-name="agrave" unicode="&#xe0;" horiz-adv-x="583" 
d="M337 607h-54l-157 118h72zM282 526q97 0 149 -49.5t52 -145.5v-331h-48v93q-53 -97 -188 -97q-87 0 -137.5 41t-50.5 108q0 65 46.5 105.5t148.5 40.5h179v42q0 73 -39.5 111t-115.5 38q-107 0 -180 -66l-25 36q84 74 209 74zM254 37q132 0 179 117v98h-178
q-146 0 -146 -105q0 -51 38 -80.5t107 -29.5z" />
    <glyph glyph-name="aacute" unicode="&#xe1;" horiz-adv-x="583" 
d="M434 725l-157 -118h-54l139 118h72zM282 526q97 0 149 -49.5t52 -145.5v-331h-48v93q-53 -97 -188 -97q-87 0 -137.5 41t-50.5 108q0 65 46.5 105.5t148.5 40.5h179v42q0 73 -39.5 111t-115.5 38q-107 0 -180 -66l-25 36q84 74 209 74zM254 37q132 0 179 117v98h-178
q-146 0 -146 -105q0 -51 38 -80.5t107 -29.5z" />
    <glyph glyph-name="acircumflex" unicode="&#xe2;" horiz-adv-x="583" 
d="M280 694l-104 -87h-50l126 118h56l126 -118h-50zM282 526q97 0 149 -49.5t52 -145.5v-331h-48v93q-53 -97 -188 -97q-87 0 -137.5 41t-50.5 108q0 65 46.5 105.5t148.5 40.5h179v42q0 73 -39.5 111t-115.5 38q-107 0 -180 -66l-25 36q84 74 209 74zM254 37q132 0 179 117
v98h-178q-146 0 -146 -105q0 -51 38 -80.5t107 -29.5z" />
    <glyph glyph-name="atilde" unicode="&#xe3;" horiz-adv-x="583" 
d="M217 684q-23 0 -37 -17.5t-16 -47.5h-33q2 45 24 72.5t59 27.5q32 0 71 -34.5t58 -34.5q23 0 37 17t16 46h33q-2 -44 -24.5 -71t-58.5 -27q-32 0 -71 34.5t-58 34.5zM282 526q97 0 149 -49.5t52 -145.5v-331h-48v93q-53 -97 -188 -97q-87 0 -137.5 41t-50.5 108
q0 65 46.5 105.5t148.5 40.5h179v42q0 73 -39.5 111t-115.5 38q-107 0 -180 -66l-25 36q84 74 209 74zM254 37q132 0 179 117v98h-178q-146 0 -146 -105q0 -51 38 -80.5t107 -29.5z" />
    <glyph glyph-name="adieresis" unicode="&#xe4;" horiz-adv-x="583" 
d="M194 634q-15 0 -25.5 10.5t-10.5 25.5q0 16 10.5 26t25.5 10t25.5 -10.5t10.5 -25.5t-11 -25.5t-25 -10.5zM366 634q-14 0 -25 10.5t-11 25.5t10.5 25.5t25.5 10.5t25.5 -10t10.5 -26q0 -15 -10.5 -25.5t-25.5 -10.5zM282 526q97 0 149 -49.5t52 -145.5v-331h-48v93
q-53 -97 -188 -97q-87 0 -137.5 41t-50.5 108q0 65 46.5 105.5t148.5 40.5h179v42q0 73 -39.5 111t-115.5 38q-107 0 -180 -66l-25 36q84 74 209 74zM254 37q132 0 179 117v98h-178q-146 0 -146 -105q0 -51 38 -80.5t107 -29.5z" />
    <glyph glyph-name="aring" unicode="&#xe5;" horiz-adv-x="583" 
d="M279 596q-42 0 -70.5 28.5t-28.5 68.5q0 41 28.5 70.5t70.5 29.5t71 -29.5t29 -70.5q0 -40 -28.5 -68.5t-71.5 -28.5zM279 764q-30 0 -49.5 -20.5t-19.5 -50.5t19.5 -49.5t49.5 -19.5t50 20t20 49q0 30 -20 50.5t-50 20.5zM282 526q97 0 149 -49.5t52 -145.5v-331h-48v93
q-53 -97 -188 -97q-87 0 -137.5 41t-50.5 108q0 65 46.5 105.5t148.5 40.5h179v42q0 73 -39.5 111t-115.5 38q-107 0 -180 -66l-25 36q84 74 209 74zM254 37q132 0 179 117v98h-178q-146 0 -146 -105q0 -51 38 -80.5t107 -29.5z" />
    <glyph glyph-name="ae" unicode="&#xe6;" horiz-adv-x="983" 
d="M934 267q0 -4 -0.5 -9t-0.5 -7h-450q3 -93 64.5 -151.5t156.5 -58.5q106 0 167 73l30 -33q-73 -85 -198 -85q-77 0 -140 34.5t-98 100.5q-23 -69 -81 -102t-133 -33q-90 0 -141 41.5t-51 109.5q0 62 46.5 102.5t148.5 40.5h179v43q0 73 -39.5 111t-115.5 38
q-107 0 -180 -66l-25 36q84 74 208 74q157 0 190 -124q32 58 87.5 91t125.5 33q108 0 179 -73t71 -186zM684 482q-80 0 -136.5 -53t-63.5 -139h400q-6 85 -62.5 138.5t-137.5 53.5zM254 37q82 0 130.5 43.5t48.5 121.5v49h-178q-146 0 -146 -103q0 -52 38.5 -81.5
t106.5 -29.5z" />
    <glyph glyph-name="ccedilla" unicode="&#xe7;" horiz-adv-x="555" 
d="M313 41q105 0 161 78l37 -27q-66 -96 -198 -96h-5l-13 -50q40 -3 62.5 -24.5t22.5 -55.5q0 -38 -29.5 -60.5t-75.5 -22.5q-47 0 -79 25l14 28q27 -21 65 -21q30 0 48 14t18 39q0 23 -17 37t-49 14h-20l21 79q-101 13 -164 85t-63 178q0 117 74.5 191t189.5 74
q134 0 198 -96l-37 -27q-56 78 -161 78q-93 0 -153 -61t-60 -159t60 -159t153 -61z" />
    <glyph glyph-name="egrave" unicode="&#xe8;" horiz-adv-x="597" 
d="M356 607h-54l-157 118h72zM548 263q0 -2 -0.5 -6.5t-0.5 -7.5h-449q4 -93 65.5 -150.5t155.5 -57.5q107 0 167 73l29 -33q-70 -85 -197 -85q-118 0 -193.5 74.5t-75.5 190.5t71 190.5t179 74.5t178.5 -73.5t70.5 -189.5zM299 482q-83 0 -138.5 -54t-61.5 -140h400
q-5 85 -61 139.5t-139 54.5z" />
    <glyph glyph-name="eacute" unicode="&#xe9;" horiz-adv-x="597" 
d="M453 725l-157 -118h-54l139 118h72zM548 263q0 -2 -0.5 -6.5t-0.5 -7.5h-449q4 -93 65.5 -150.5t155.5 -57.5q107 0 167 73l29 -33q-70 -85 -197 -85q-118 0 -193.5 74.5t-75.5 190.5t71 190.5t179 74.5t178.5 -73.5t70.5 -189.5zM299 482q-83 0 -138.5 -54t-61.5 -140
h400q-5 85 -61 139.5t-139 54.5z" />
    <glyph glyph-name="ecircumflex" unicode="&#xea;" horiz-adv-x="597" 
d="M299 694l-104 -87h-50l126 118h56l126 -118h-50zM548 263q0 -2 -0.5 -6.5t-0.5 -7.5h-449q4 -93 65.5 -150.5t155.5 -57.5q107 0 167 73l29 -33q-70 -85 -197 -85q-118 0 -193.5 74.5t-75.5 190.5t71 190.5t179 74.5t178.5 -73.5t70.5 -189.5zM299 482q-83 0 -138.5 -54
t-61.5 -140h400q-5 85 -61 139.5t-139 54.5z" />
    <glyph glyph-name="edieresis" unicode="&#xeb;" horiz-adv-x="597" 
d="M213 634q-15 0 -25.5 10.5t-10.5 25.5q0 16 10.5 26t25.5 10t25.5 -10.5t10.5 -25.5t-11 -25.5t-25 -10.5zM385 634q-14 0 -25 10.5t-11 25.5t10.5 25.5t25.5 10.5t25.5 -10t10.5 -26q0 -15 -10.5 -25.5t-25.5 -10.5zM548 263q0 -2 -0.5 -6.5t-0.5 -7.5h-449
q4 -93 65.5 -150.5t155.5 -57.5q107 0 167 73l29 -33q-70 -85 -197 -85q-118 0 -193.5 74.5t-75.5 190.5t71 190.5t179 74.5t178.5 -73.5t70.5 -189.5zM299 482q-83 0 -138.5 -54t-61.5 -140h400q-5 85 -61 139.5t-139 54.5z" />
    <glyph glyph-name="igrave" unicode="&#xec;" horiz-adv-x="261" 
d="M134 607l-157 118h72l139 -118h-54zM106 0v522h50v-522h-50z" />
    <glyph glyph-name="iacute" unicode="&#xed;" horiz-adv-x="261" 
d="M74 607l139 118h72l-157 -118h-54zM106 0v522h50v-522h-50z" />
    <glyph glyph-name="icircumflex" unicode="&#xee;" horiz-adv-x="261" 
d="M158 725l102 -118h-49l-80 86l-80 -86h-49l102 118h54zM106 0v522h50v-522h-50z" />
    <glyph glyph-name="idieresis" unicode="&#xef;" horiz-adv-x="261" 
d="M69 635q-15 0 -25 10.5t-10 24.5q0 15 10 25.5t25 10.5t25 -10.5t10 -25.5t-10 -25t-25 -10zM193 635q-15 0 -25 10.5t-10 24.5q0 15 10 25.5t25 10.5t25 -10.5t10 -25.5t-10 -25t-25 -10zM106 0v522h50v-522h-50z" />
    <glyph glyph-name="eth" unicode="&#xf0;" horiz-adv-x="627" 
d="M467 641q110 -97 110 -293q0 -164 -74.5 -258.5t-213.5 -94.5q-105 0 -172.5 60.5t-67.5 159.5t68 159t178 60q84 0 144.5 -41.5t81.5 -116.5q6 36 6 82q0 183 -108 262l-269 -115l-15 36l242 104q-52 24 -122 24q-77 0 -148 -22l-10 44q76 21 158 21q102 0 175 -45
l88 38l15 -36zM292 39q95 0 150 52.5t55 123.5q0 74 -56 124.5t-142 50.5q-93 0 -146 -48t-53 -127t53 -127.5t139 -48.5z" />
    <glyph glyph-name="ntilde" unicode="&#xf1;" horiz-adv-x="673" 
d="M275 684q-23 0 -37 -17.5t-16 -47.5h-33q2 45 24 72.5t59 27.5q32 0 71 -34.5t58 -34.5q23 0 37 17t16 46h33q-2 -44 -24.5 -71t-58.5 -27q-32 0 -71 34.5t-58 34.5zM361 526q98 0 155 -57t57 -164v-305h-50v301q0 88 -44.5 134t-124.5 46q-92 0 -145 -55t-53 -148v-278
h-50v522h48v-113q27 55 80.5 86t126.5 31z" />
    <glyph glyph-name="ograve" unicode="&#xf2;" horiz-adv-x="620" 
d="M313 607l-157 118h72l139 -118h-54zM310 -4q-113 0 -187 74.5t-74 190.5t74 190.5t187 74.5t187 -74.5t74 -190.5t-74 -190.5t-187 -74.5zM310 41q91 0 150.5 61.5t59.5 158.5t-59.5 158.5t-150.5 61.5t-150.5 -61.5t-59.5 -158.5t59.5 -158.5t150.5 -61.5z" />
    <glyph glyph-name="oacute" unicode="&#xf3;" horiz-adv-x="620" 
d="M253 607l139 118h72l-157 -118h-54zM310 -4q-113 0 -187 74.5t-74 190.5t74 190.5t187 74.5t187 -74.5t74 -190.5t-74 -190.5t-187 -74.5zM310 41q91 0 150.5 61.5t59.5 158.5t-59.5 158.5t-150.5 61.5t-150.5 -61.5t-59.5 -158.5t59.5 -158.5t150.5 -61.5z" />
    <glyph glyph-name="ocircumflex" unicode="&#xf4;" horiz-adv-x="620" 
d="M310 694l-104 -87h-50l126 118h56l126 -118h-50zM310 526q113 0 187 -74.5t74 -190.5t-74 -190.5t-187 -74.5t-187 74.5t-74 190.5t74 190.5t187 74.5zM310 41q91 0 150.5 61.5t59.5 158.5t-59.5 158.5t-150.5 61.5t-150.5 -61.5t-59.5 -158.5t59.5 -158.5t150.5 -61.5z
" />
    <glyph glyph-name="otilde" unicode="&#xf5;" horiz-adv-x="620" 
d="M376 615q-32 0 -71 34.5t-58 34.5q-23 0 -37 -17.5t-16 -47.5h-33q2 45 24 72.5t59 27.5q32 0 71 -34.5t58 -34.5q23 0 37 17t16 46h33q-2 -44 -24.5 -71t-58.5 -27zM310 -4q-113 0 -187 74.5t-74 190.5t74 190.5t187 74.5t187 -74.5t74 -190.5t-74 -190.5t-187 -74.5z
M310 41q91 0 150.5 61.5t59.5 158.5t-59.5 158.5t-150.5 61.5t-150.5 -61.5t-59.5 -158.5t59.5 -158.5t150.5 -61.5z" />
    <glyph glyph-name="odieresis" unicode="&#xf6;" horiz-adv-x="620" 
d="M224 634q-15 0 -25.5 10.5t-10.5 25.5q0 16 10.5 26t25.5 10t25.5 -10.5t10.5 -25.5t-11 -25.5t-25 -10.5zM396 634q-14 0 -25 10.5t-11 25.5t10.5 25.5t25.5 10.5t25.5 -10t10.5 -26q0 -15 -10.5 -25.5t-25.5 -10.5zM310 -4q-113 0 -187 74.5t-74 190.5t74 190.5
t187 74.5t187 -74.5t74 -190.5t-74 -190.5t-187 -74.5zM310 41q91 0 150.5 61.5t59.5 158.5t-59.5 158.5t-150.5 61.5t-150.5 -61.5t-59.5 -158.5t59.5 -158.5t150.5 -61.5z" />
    <glyph glyph-name="divide" unicode="&#xf7;" horiz-adv-x="569" 
d="M284 497q-16 0 -27 11.5t-11 28.5q0 16 11 27.5t27 11.5t27.5 -11t11.5 -28t-11.5 -28.5t-27.5 -11.5zM72 328v43h425v-43h-425zM284 124q-16 0 -27 11.5t-11 28.5q0 16 11 27.5t27 11.5t27.5 -11.5t11.5 -27.5q0 -17 -11 -28.5t-28 -11.5z" />
    <glyph glyph-name="oslash" unicode="&#xf8;" horiz-adv-x="620" 
d="M472 473q99 -76 99 -212q0 -116 -74 -190.5t-187 -74.5q-76 0 -135 35l-68 -102h-38l80 119q-100 76 -100 213q0 116 74 190.5t187 74.5q74 0 136 -35l67 100h38zM100 261q0 -111 75 -173l245 364q-49 29 -110 29q-91 0 -150.5 -61.5t-59.5 -158.5zM310 41
q91 0 150.5 61.5t59.5 158.5q0 111 -75 173l-244 -364q49 -29 109 -29z" />
    <glyph glyph-name="ugrave" unicode="&#xf9;" horiz-adv-x="669" 
d="M389 607h-54l-157 118h72zM513 522h50v-522h-48v112q-26 -55 -77 -85.5t-120 -30.5q-102 0 -160 57t-58 164v305h50v-301q0 -88 45 -134t127 -46q88 0 139.5 55t51.5 148v278z" />
    <glyph glyph-name="uacute" unicode="&#xfa;" horiz-adv-x="669" 
d="M486 725l-157 -118h-54l139 118h72zM513 522h50v-522h-48v112q-26 -55 -77 -85.5t-120 -30.5q-102 0 -160 57t-58 164v305h50v-301q0 -88 45 -134t127 -46q88 0 139.5 55t51.5 148v278z" />
    <glyph glyph-name="ucircumflex" unicode="&#xfb;" horiz-adv-x="669" 
d="M332 694l-104 -87h-50l126 118h56l126 -118h-50zM513 522h50v-522h-48v112q-26 -55 -77 -85.5t-120 -30.5q-102 0 -160 57t-58 164v305h50v-301q0 -88 45 -134t127 -46q88 0 139.5 55t51.5 148v278z" />
    <glyph glyph-name="udieresis" unicode="&#xfc;" horiz-adv-x="669" 
d="M246 634q-15 0 -25.5 10.5t-10.5 25.5q0 16 10.5 26t25.5 10t25.5 -10.5t10.5 -25.5t-11 -25.5t-25 -10.5zM418 634q-14 0 -25 10.5t-11 25.5t10.5 25.5t25.5 10.5t25.5 -10t10.5 -26q0 -15 -10.5 -25.5t-25.5 -10.5zM513 522h50v-522h-48v112q-26 -55 -77 -85.5
t-120 -30.5q-102 0 -160 57t-58 164v305h50v-301q0 -88 45 -134t127 -46q88 0 139.5 55t51.5 148v278z" />
    <glyph glyph-name="yacute" unicode="&#xfd;" horiz-adv-x="528" 
d="M404 725l-157 -118h-54l139 118h72zM474 522h51l-268 -593q-30 -69 -69.5 -98t-93.5 -29q-76 0 -121 47l25 38q40 -41 97 -41q38 0 65 21t50 72l28 63l-235 520h53l209 -467z" />
    <glyph glyph-name="thorn" unicode="&#xfe;" horiz-adv-x="675" 
d="M368 526q111 0 184.5 -74.5t73.5 -190.5q0 -117 -73.5 -191t-184.5 -74q-69 0 -125 32.5t-87 90.5v-313h-50v936h50v-339q31 58 87 90.5t125 32.5zM365 41q91 0 151 61.5t60 158.5t-60 158.5t-151 61.5t-150.5 -61.5t-59.5 -158.5t59.5 -158.5t150.5 -61.5z" />
    <glyph glyph-name="ydieresis" unicode="&#xff;" horiz-adv-x="528" 
d="M164 634q-15 0 -25.5 10.5t-10.5 25.5q0 16 10.5 26t25.5 10t25.5 -10.5t10.5 -25.5t-11 -25.5t-25 -10.5zM336 634q-14 0 -25 10.5t-11 25.5t10.5 25.5t25.5 10.5t25.5 -10t10.5 -26q0 -15 -10.5 -25.5t-25.5 -10.5zM474 522h51l-268 -593q-30 -69 -69.5 -98t-93.5 -29
q-76 0 -121 47l25 38q40 -41 97 -41q38 0 65 21t50 72l28 63l-235 520h53l209 -467z" />
    <glyph glyph-name="Amacron" unicode="&#x100;" horiz-adv-x="705" 
d="M500 834v-36h-294v36h294zM645 0l-90 197h-406l-89 -197h-55l322 700h51l322 -700h-55zM169 240h367l-184 404z" />
    <glyph glyph-name="amacron" unicode="&#x101;" horiz-adv-x="583" 
d="M427 684v-36h-294v36h294zM282 526q97 0 149 -49.5t52 -145.5v-331h-48v93q-53 -97 -188 -97q-87 0 -137.5 41t-50.5 108q0 65 46.5 105.5t148.5 40.5h179v42q0 73 -39.5 111t-115.5 38q-107 0 -180 -66l-25 36q84 74 209 74zM254 37q132 0 179 117v98h-178
q-146 0 -146 -105q0 -51 38 -80.5t107 -29.5z" />
    <glyph glyph-name="Abreve" unicode="&#x102;" horiz-adv-x="705" 
d="M353 753q-61 0 -101.5 33t-42.5 89h37q1 -40 31.5 -64.5t75.5 -24.5t75.5 24.5t31.5 64.5h37q-2 -56 -42.5 -89t-101.5 -33zM645 0l-90 197h-406l-89 -197h-55l322 700h51l322 -700h-55zM169 240h367l-184 404z" />
    <glyph glyph-name="abreve" unicode="&#x103;" horiz-adv-x="583" 
d="M280 603q-61 0 -101.5 33t-42.5 89h37q1 -40 31.5 -64.5t75.5 -24.5t75.5 24.5t31.5 64.5h37q-2 -56 -42.5 -89t-101.5 -33zM282 526q97 0 149 -49.5t52 -145.5v-331h-48v93q-53 -97 -188 -97q-87 0 -137.5 41t-50.5 108q0 65 46.5 105.5t148.5 40.5h179v42
q0 73 -39.5 111t-115.5 38q-107 0 -180 -66l-25 36q84 74 209 74zM254 37q132 0 179 117v98h-178q-146 0 -146 -105q0 -51 38 -80.5t107 -29.5z" />
    <glyph glyph-name="Aogonek" unicode="&#x104;" horiz-adv-x="705" 
d="M706 -163l14 -29q-34 -25 -81 -25q-46 0 -74 24.5t-28 65.5q0 77 105 133l-87 191h-406l-89 -197h-55l322 700h51l322 -700q-124 -54 -124 -124q0 -29 19 -44.5t49 -15.5q36 0 62 21zM169 240h367l-184 404z" />
    <glyph glyph-name="aogonek" unicode="&#x105;" horiz-adv-x="583" 
d="M489 -163l14 -29q-34 -25 -81 -25q-46 0 -74 24.5t-28 65.5q0 81 115 138v82q-53 -97 -188 -97q-87 0 -137.5 41t-50.5 108q0 65 46.5 105.5t148.5 40.5h179v42q0 73 -39.5 111t-115.5 38q-107 0 -180 -66l-25 36q84 74 209 74q97 0 149 -49.5t52 -145.5v-331
q-124 -54 -124 -124q0 -29 19 -44.5t49 -15.5q36 0 62 21zM254 37q132 0 179 117v98h-178q-146 0 -146 -105q0 -51 38 -80.5t107 -29.5z" />
    <glyph glyph-name="Cacute" unicode="&#x106;" horiz-adv-x="716" 
d="M352 757l139 118h72l-157 -118h-54zM418 -5q-156 0 -259.5 101t-103.5 254t103.5 254t259.5 101q158 0 249 -97l-32 -33q-84 83 -215 83q-134 0 -224 -88t-90 -220t90 -220t224 -88q130 0 215 84l32 -33q-92 -98 -249 -98z" />
    <glyph glyph-name="cacute" unicode="&#x107;" horiz-adv-x="555" 
d="M239 607l139 118h72l-157 -118h-54zM313 -4q-115 0 -189.5 74.5t-74.5 190.5q0 117 74.5 191t189.5 74q134 0 198 -96l-37 -27q-56 78 -161 78q-93 0 -153 -61t-60 -159t60 -159t153 -61q105 0 161 78l37 -27q-66 -96 -198 -96z" />
    <glyph glyph-name="Ccircumflex" unicode="&#x108;" horiz-adv-x="716" 
d="M409 844l-104 -87h-50l126 118h56l126 -118h-50zM420 42q130 0 215 84l32 -33q-92 -98 -249 -98q-156 0 -259.5 101t-103.5 254t103.5 254t259.5 101q158 0 249 -97l-32 -33q-84 83 -215 83q-134 0 -224 -88t-90 -220t90 -220t224 -88z" />
    <glyph glyph-name="ccircumflex" unicode="&#x109;" horiz-adv-x="555" 
d="M296 694l-104 -87h-50l126 118h56l126 -118h-50zM313 41q105 0 161 78l37 -27q-66 -96 -198 -96q-115 0 -189.5 74.5t-74.5 190.5q0 117 74.5 191t189.5 74q134 0 198 -96l-37 -27q-56 78 -161 78q-93 0 -153 -61t-60 -159t60 -159t153 -61z" />
    <glyph glyph-name="Cdotaccent" unicode="&#x10a;" horiz-adv-x="716" 
d="M409 785q-17 0 -28 11.5t-11 27.5t11.5 27.5t27.5 11.5t27.5 -11.5t11.5 -27.5t-11 -27.5t-28 -11.5zM418 -5q-156 0 -259.5 101t-103.5 254t103.5 254t259.5 101q158 0 249 -97l-32 -33q-84 83 -215 83q-134 0 -224 -88t-90 -220t90 -220t224 -88q130 0 215 84l32 -33
q-92 -98 -249 -98z" />
    <glyph glyph-name="cdotaccent" unicode="&#x10b;" horiz-adv-x="555" 
d="M296 635q-16 0 -27.5 11.5t-11.5 27.5t11.5 27.5t27.5 11.5t27.5 -11.5t11.5 -27.5t-11.5 -27.5t-27.5 -11.5zM313 -4q-115 0 -189.5 74.5t-74.5 190.5q0 117 74.5 191t189.5 74q134 0 198 -96l-37 -27q-56 78 -161 78q-93 0 -153 -61t-60 -159t60 -159t153 -61
q105 0 161 78l37 -27q-66 -96 -198 -96z" />
    <glyph glyph-name="Ccaron" unicode="&#x10c;" horiz-adv-x="716" 
d="M437 757h-56l-126 118h50l104 -86l104 86h50zM420 42q130 0 215 84l32 -33q-92 -98 -249 -98q-156 0 -259.5 101t-103.5 254t103.5 254t259.5 101q158 0 249 -97l-32 -33q-84 83 -215 83q-134 0 -224 -88t-90 -220t90 -220t224 -88z" />
    <glyph glyph-name="ccaron" unicode="&#x10d;" horiz-adv-x="555" 
d="M324 607h-56l-126 118h50l104 -86l104 86h50zM313 41q105 0 161 78l37 -27q-66 -96 -198 -96q-115 0 -189.5 74.5t-74.5 190.5q0 117 74.5 191t189.5 74q134 0 198 -96l-37 -27q-56 78 -161 78q-93 0 -153 -61t-60 -159t60 -159t153 -61z" />
    <glyph glyph-name="Dcaron" unicode="&#x10e;" horiz-adv-x="826" 
d="M414 756h-56l-126 118h50l104 -86l104 86h50zM399 700q166 0 269 -98t103 -252t-103 -252t-269 -98h-277v700h277zM395 46q147 0 236 84.5t89 219.5t-89 219.5t-236 84.5h-222v-608h222z" />
    <glyph glyph-name="dcaron" unicode="&#x10f;" horiz-adv-x="675" 
d="M666 767h43l-6 -185h-37v185zM520 401v341h50v-742h-49v123q-31 -61 -87 -94t-127 -33q-111 0 -184.5 74.5t-73.5 190.5q0 117 73.5 191t184.5 74q70 0 125.5 -33t87.5 -92zM310 41q91 0 150.5 61.5t59.5 158.5t-59.5 158.5t-150.5 61.5t-150.5 -61.5t-59.5 -158.5
t59.5 -158.5t150.5 -61.5z" />
    <glyph glyph-name="Dcroat" unicode="&#x110;" horiz-adv-x="829" 
d="M402 700q166 0 269 -98t103 -252t-103 -252t-269 -98h-277v334h-109v43h109v323h277zM398 46q147 0 236 84.5t89 219.5t-89 219.5t-236 84.5h-222v-277h216v-43h-216v-288h222z" />
    <glyph glyph-name="dcroat" unicode="&#x111;" horiz-adv-x="675" 
d="M676 651v-38h-106v-613h-49v123q-31 -61 -87 -94t-127 -33q-111 0 -184.5 74.5t-73.5 190.5q0 117 73.5 191t184.5 74q70 0 125.5 -33t87.5 -92v212h-230v38h230v91h50v-91h106zM310 41q91 0 150.5 61.5t59.5 158.5t-59.5 158.5t-150.5 61.5t-150.5 -61.5t-59.5 -158.5
t59.5 -158.5t150.5 -61.5z" />
    <glyph glyph-name="Emacron" unicode="&#x112;" horiz-adv-x="669" 
d="M504 834v-36h-294v36h294zM173 46h432v-46h-483v700h468v-46h-417v-276h373v-45h-373v-287z" />
    <glyph glyph-name="emacron" unicode="&#x113;" horiz-adv-x="597" 
d="M446 684v-36h-294v36h294zM548 263q0 -2 -0.5 -6.5t-0.5 -7.5h-449q4 -93 65.5 -150.5t155.5 -57.5q107 0 167 73l29 -33q-70 -85 -197 -85q-118 0 -193.5 74.5t-75.5 190.5t71 190.5t179 74.5t178.5 -73.5t70.5 -189.5zM299 482q-83 0 -138.5 -54t-61.5 -140h400
q-5 85 -61 139.5t-139 54.5z" />
    <glyph glyph-name="Ebreve" unicode="&#x114;" horiz-adv-x="669" 
d="M357 753q-61 0 -101.5 33t-42.5 89h37q1 -40 31.5 -64.5t75.5 -24.5t75.5 24.5t31.5 64.5h37q-2 -56 -42.5 -89t-101.5 -33zM173 46h432v-46h-483v700h468v-46h-417v-276h373v-45h-373v-287z" />
    <glyph glyph-name="ebreve" unicode="&#x115;" horiz-adv-x="597" 
d="M299 603q-61 0 -101.5 33t-42.5 89h37q1 -40 31.5 -64.5t75.5 -24.5t75.5 24.5t31.5 64.5h37q-2 -56 -42.5 -89t-101.5 -33zM548 263q0 -2 -0.5 -6.5t-0.5 -7.5h-449q4 -93 65.5 -150.5t155.5 -57.5q107 0 167 73l29 -33q-70 -85 -197 -85q-118 0 -193.5 74.5
t-75.5 190.5t71 190.5t179 74.5t178.5 -73.5t70.5 -189.5zM299 482q-83 0 -138.5 -54t-61.5 -140h400q-5 85 -61 139.5t-139 54.5z" />
    <glyph glyph-name="Edotaccent" unicode="&#x116;" horiz-adv-x="669" 
d="M357 785q-17 0 -28 11.5t-11 27.5t11.5 27.5t27.5 11.5t27.5 -11.5t11.5 -27.5t-11 -27.5t-28 -11.5zM173 46h432v-46h-483v700h468v-46h-417v-276h373v-45h-373v-287z" />
    <glyph glyph-name="edotaccent" unicode="&#x117;" horiz-adv-x="597" 
d="M299 635q-17 0 -28 11.5t-11 27.5t11.5 27.5t27.5 11.5t27.5 -11.5t11.5 -27.5t-11 -27.5t-28 -11.5zM548 263q0 -2 -0.5 -6.5t-0.5 -7.5h-449q4 -93 65.5 -150.5t155.5 -57.5q107 0 167 73l29 -33q-70 -85 -197 -85q-118 0 -193.5 74.5t-75.5 190.5t71 190.5t179 74.5
t178.5 -73.5t70.5 -189.5zM299 482q-83 0 -138.5 -54t-61.5 -140h400q-5 85 -61 139.5t-139 54.5z" />
    <glyph glyph-name="Eogonek" unicode="&#x118;" horiz-adv-x="669" 
d="M611 -163l14 -29q-34 -25 -81 -25q-46 0 -74 24.5t-28 65.5q0 74 95 127h-415v700h468v-46h-417v-276h373v-45h-373v-287h432v-46q-124 -54 -124 -124q0 -29 19 -44.5t49 -15.5q36 0 62 21z" />
    <glyph glyph-name="eogonek" unicode="&#x119;" horiz-adv-x="597" 
d="M548 263q0 -2 -0.5 -6.5t-0.5 -7.5h-449q4 -93 65.5 -150.5t155.5 -57.5q107 0 167 73l29 -33q-9 -11 -37 -35q-69 -62 -92.5 -98.5t-23.5 -70.5q0 -30 18.5 -45.5t49.5 -15.5q36 0 62 21l14 -29q-34 -25 -80 -25t-74.5 25t-28.5 67q0 67 66 129q-37 -8 -71 -8
q-118 0 -193.5 74.5t-75.5 190.5t71 190.5t179 74.5t178.5 -73.5t70.5 -189.5zM299 482q-83 0 -138.5 -54t-61.5 -140h400q-5 85 -61 139.5t-139 54.5z" />
    <glyph glyph-name="Ecaron" unicode="&#x11a;" horiz-adv-x="669" 
d="M385 757h-56l-126 118h50l104 -86l104 86h50zM173 46h432v-46h-483v700h468v-46h-417v-276h373v-45h-373v-287z" />
    <glyph glyph-name="ecaron" unicode="&#x11b;" horiz-adv-x="597" 
d="M327 607h-56l-126 118h50l104 -86l104 86h50zM548 263q0 -2 -0.5 -6.5t-0.5 -7.5h-449q4 -93 65.5 -150.5t155.5 -57.5q107 0 167 73l29 -33q-70 -85 -197 -85q-118 0 -193.5 74.5t-75.5 190.5t71 190.5t179 74.5t178.5 -73.5t70.5 -189.5zM299 482q-83 0 -138.5 -54
t-61.5 -140h400q-5 85 -61 139.5t-139 54.5z" />
    <glyph glyph-name="Gcircumflex" unicode="&#x11c;" horiz-adv-x="773" 
d="M405 843l-104 -87h-50l126 118h56l126 -118h-50zM622 106v241h49v-262q-95 -90 -250 -90q-158 0 -262 101t-104 254t104 254t263 101t252 -96l-32 -34q-84 83 -219 83q-136 0 -226.5 -88t-90.5 -220t90.5 -220t226.5 -88q120 0 199 64z" />
    <glyph glyph-name="gcircumflex" unicode="&#x11d;" horiz-adv-x="682" 
d="M321 694l-104 -87h-50l126 118h56l126 -118h-50zM528 522h48v-466q0 -130 -63 -192t-190 -62q-72 0 -136 22t-103 61l27 38q82 -76 211 -76q104 0 154 49.5t50 153.5v88q-32 -57 -89 -88t-128 -31q-112 0 -186 71.5t-74 182.5t74 182t186 71q72 0 130 -32t89 -90v118z
M313 64q93 0 153.5 58.5t60.5 150.5t-60.5 150t-153.5 58t-153 -58t-60 -150t60 -150.5t153 -58.5z" />
    <glyph glyph-name="Gbreve" unicode="&#x11e;" horiz-adv-x="773" 
d="M405 752q-61 0 -101.5 33t-42.5 89h37q1 -40 31.5 -64.5t75.5 -24.5t75.5 24.5t31.5 64.5h37q-2 -56 -42.5 -89t-101.5 -33zM622 106v241h49v-262q-95 -90 -250 -90q-158 0 -262 101t-104 254t104 254t263 101t252 -96l-32 -34q-84 83 -219 83q-136 0 -226.5 -88
t-90.5 -220t90.5 -220t226.5 -88q120 0 199 64z" />
    <glyph glyph-name="gbreve" unicode="&#x11f;" horiz-adv-x="682" 
d="M321 603q-61 0 -101.5 33t-42.5 89h37q1 -40 31.5 -64.5t75.5 -24.5t75.5 24.5t31.5 64.5h37q-2 -56 -42.5 -89t-101.5 -33zM528 522h48v-466q0 -130 -63 -192t-190 -62q-72 0 -136 22t-103 61l27 38q82 -76 211 -76q104 0 154 49.5t50 153.5v88q-32 -57 -89 -88
t-128 -31q-112 0 -186 71.5t-74 182.5t74 182t186 71q72 0 130 -32t89 -90v118zM313 64q93 0 153.5 58.5t60.5 150.5t-60.5 150t-153.5 58t-153 -58t-60 -150t60 -150.5t153 -58.5z" />
    <glyph glyph-name="Gdotaccent" unicode="&#x120;" horiz-adv-x="773" 
d="M405 784q-17 0 -28 11t-11 28q0 16 11.5 27.5t27.5 11.5t27.5 -11.5t11.5 -27.5q0 -17 -11 -28t-28 -11zM622 106v241h49v-262q-95 -90 -250 -90q-158 0 -262 101t-104 254t104 254t263 101t252 -96l-32 -34q-84 83 -219 83q-136 0 -226.5 -88t-90.5 -220t90.5 -220
t226.5 -88q120 0 199 64z" />
    <glyph glyph-name="gdotaccent" unicode="&#x121;" horiz-adv-x="682" 
d="M321 635q-17 0 -28 11.5t-11 27.5t11.5 27.5t27.5 11.5t27.5 -11.5t11.5 -27.5t-11 -27.5t-28 -11.5zM528 522h48v-466q0 -130 -63 -192t-190 -62q-72 0 -136 22t-103 61l27 38q82 -76 211 -76q104 0 154 49.5t50 153.5v88q-32 -57 -89 -88t-128 -31q-112 0 -186 71.5
t-74 182.5t74 182t186 71q72 0 130 -32t89 -90v118zM313 64q93 0 153.5 58.5t60.5 150.5t-60.5 150t-153.5 58t-153 -58t-60 -150t60 -150.5t153 -58.5z" />
    <glyph glyph-name="Gcommaaccent" unicode="&#x122;" horiz-adv-x="773" 
d="M622 106v241h49v-262q-95 -90 -250 -90q-158 0 -262 101t-104 254t104 254t263 101t252 -96l-32 -34q-84 83 -219 83q-136 0 -226.5 -88t-90.5 -220t90.5 -220t226.5 -88q120 0 199 64zM403 -112q16 0 26 -10.5t10 -23.5q0 -18 -9 -40l-26 -75h-30l20 82q-27 7 -27 33
q0 14 10 24t26 10z" />
    <glyph glyph-name="gcommaaccent" unicode="&#x123;" horiz-adv-x="682" 
d="M321 603q-17 0 -27.5 10t-10.5 24q0 10 9 37l32 98h32l-25 -103q28 -7 28 -32q0 -15 -10.5 -24.5t-27.5 -9.5zM528 522h48v-466q0 -130 -63 -192t-190 -62q-72 0 -136 22t-103 61l27 38q82 -76 211 -76q104 0 154 49.5t50 153.5v88q-32 -57 -89 -88t-128 -31
q-112 0 -186 71.5t-74 182.5t74 182t186 71q72 0 130 -32t89 -90v118zM313 64q93 0 153.5 58.5t60.5 150.5t-60.5 150t-153.5 58t-153 -58t-60 -150t60 -150.5t153 -58.5z" />
    <glyph glyph-name="Hcircumflex" unicode="&#x124;" horiz-adv-x="814" 
d="M407 844l-104 -87h-50l126 118h56l126 -118h-50zM641 700h51v-700h-51v333h-468v-333h-51v700h51v-322h468v322z" />
    <glyph glyph-name="hcircumflex" unicode="&#x125;" horiz-adv-x="673" 
d="M235 799l-104 87l-104 -87h-50l126 118h56l126 -118h-50zM361 526q98 0 155 -57t57 -164v-305h-50v301q0 88 -44.5 134t-124.5 46q-92 0 -145 -55t-53 -148v-278h-50v742h50v-329q27 54 80 83.5t125 29.5z" />
    <glyph glyph-name="Hbar" unicode="&#x126;" horiz-adv-x="820" 
d="M804 565v-42h-109v-523h-51v333h-468v-333h-51v523h-110v42h110v135h51v-135h468v135h51v-135h109zM644 378v145h-468v-145h468z" />
    <glyph glyph-name="hbar" unicode="&#x127;" horiz-adv-x="673" 
d="M361 526q98 0 155 -57t57 -164v-305h-50v301q0 88 -44.5 134t-124.5 46q-92 0 -145 -55t-53 -148v-278h-50v613h-106v38h106v91h50v-91h230v-38h-230v-200q27 54 80 83.5t125 29.5z" />
    <glyph glyph-name="Itilde" unicode="&#x128;" horiz-adv-x="295" 
d="M214 765q-32 0 -71 34.5t-58 34.5q-23 0 -37 -17.5t-16 -47.5h-33q2 45 24 72.5t59 27.5q32 0 71 -34.5t58 -34.5q23 0 37 17t16 46h33q-2 -44 -24.5 -71t-58.5 -27zM122 0v700h51v-700h-51z" />
    <glyph glyph-name="itilde" unicode="&#x129;" horiz-adv-x="261" 
d="M186 615q-23 0 -43 17.5t-35.5 34.5t-29.5 17q-17 0 -27.5 -17.5t-10.5 -47.5h-33q0 47 18 73.5t51 26.5q23 0 43 -17t35.5 -34t29.5 -17q17 0 27.5 17t10.5 45h33q0 -45 -18 -71.5t-51 -26.5zM106 0v522h50v-522h-50z" />
    <glyph glyph-name="Imacron" unicode="&#x12a;" horiz-adv-x="295" 
d="M28 799v36h240v-36h-240zM122 0v700h51v-700h-51z" />
    <glyph glyph-name="imacron" unicode="&#x12b;" horiz-adv-x="261" 
d="M11 648v36h240v-36h-240zM106 0v522h50v-522h-50z" />
    <glyph glyph-name="Ibreve" unicode="&#x12c;" horiz-adv-x="295" 
d="M148 753q-61 0 -101.5 33t-42.5 89h37q1 -40 31.5 -64.5t75.5 -24.5t75.5 24.5t31.5 64.5h37q-2 -56 -42.5 -89t-101.5 -33zM122 0v700h51v-700h-51z" />
    <glyph glyph-name="ibreve" unicode="&#x12d;" horiz-adv-x="261" 
d="M131 603q-52 0 -85.5 33t-33.5 89h36q0 -41 22.5 -65t60.5 -24t60.5 24t22.5 65h36q0 -56 -33.5 -89t-85.5 -33zM106 0v522h50v-522h-50z" />
    <glyph glyph-name="Iogonek" unicode="&#x12e;" horiz-adv-x="295" 
d="M200 -168l13 -27q-20 -22 -56 -22q-35 0 -57 23.5t-22 61.5q0 70 54 132h-10v700h51v-700q-57 -60 -57 -127q0 -27 13 -42t33 -15q22 0 38 16z" />
    <glyph glyph-name="iogonek" unicode="&#x12f;" horiz-adv-x="261" 
d="M131 649q-17 0 -29 11.5t-12 28.5t12 29t29 12t29 -11.5t12 -28.5t-12 -29t-29 -12zM183 -168l13 -27q-20 -22 -56 -22q-35 0 -57 23.5t-22 61.5q0 70 54 132h-9v522h50v-522q-57 -60 -57 -127q0 -27 13 -42t33 -15q22 0 38 16z" />
    <glyph glyph-name="Idotaccent" unicode="&#x130;" horiz-adv-x="295" 
d="M148 785q-16 0 -27.5 11.5t-11.5 27.5t11.5 27.5t27.5 11.5t27.5 -11.5t11.5 -27.5t-11.5 -27.5t-27.5 -11.5zM122 0v700h51v-700h-51z" />
    <glyph glyph-name="dotlessi" unicode="&#x131;" horiz-adv-x="261" 
d="M106 0v522h50v-522h-50z" />
    <glyph glyph-name="IJ" unicode="&#x132;" horiz-adv-x="716" 
d="M327 -5q-122 0 -220 67l23 42q85 -62 198 -62q106 0 163.5 64t57.5 191v403h51v-402q0 -148 -73 -225.5t-200 -77.5zM116 297v403h51v-403h-51z" />
    <glyph glyph-name="ij" unicode="&#x133;" horiz-adv-x="527" 
d="M131 649q-17 0 -29 11.5t-12 28.5t12 29t29 12t29 -11.5t12 -28.5t-12 -29t-29 -12zM397 649q-17 0 -29 11.5t-12 28.5t12 29t29 12t29 -11.5t12 -28.5t-12 -29t-29 -12zM106 0v522h50v-522h-50zM281 -198q-72 0 -108 35l20 37q32 -29 85 -29q46 0 70 27t24 78v572h50
v-574q0 -67 -37 -106.5t-104 -39.5z" />
    <glyph glyph-name="Jcircumflex" unicode="&#x134;" horiz-adv-x="491" 
d="M221 844l-104 -87h-50l126 118h56l126 -118h-50zM66 654v46h309v-494q0 -211 -190 -211q-57 0 -106.5 26.5t-79.5 73.5l31 34q59 -88 155 -88q139 0 139 165v448h-258z" />
    <glyph glyph-name="jcircumflex" unicode="&#x135;" horiz-adv-x="266" 
d="M163 725l102 -118h-49l-80 86l-80 -86h-49l102 118h54zM111 -50v572h50v-574q0 -67 -37 -106.5t-104 -39.5q-72 0 -108 35l20 37q32 -29 85 -29q46 0 70 27t24 78z" />
    <glyph glyph-name="Kcommaaccent" unicode="&#x136;" horiz-adv-x="703" 
d="M364 382l329 -382h-62l-301 345l-157 -161v-184h-51v700h51v-450l437 450h62zM372 -112q16 0 26 -10.5t10 -23.5q0 -18 -9 -40l-26 -75h-30l20 82q-27 7 -27 33q0 14 10 24t26 10z" />
    <glyph glyph-name="kcommaaccent" unicode="&#x137;" horiz-adv-x="588" 
d="M329 311l247 -311h-62l-222 279l-136 -124v-155h-50v742h50v-525l334 305h64zM309 -112q16 0 26 -10.5t10 -23.5q0 -18 -9 -40l-26 -75h-30l20 82q-27 7 -27 33q0 14 10 24t26 10z" />
    <glyph glyph-name="kgreenlandic" unicode="&#x138;" horiz-adv-x="576" 
d="M514 0l-222 279l-136 -124v-155h-50v522h50v-305l334 305h64l-225 -211l247 -311h-62z" />
    <glyph glyph-name="Lacute" unicode="&#x139;" horiz-adv-x="585" 
d="M91 757l139 118h72l-157 -118h-54zM122 0v700h51v-654h403v-46h-454z" />
    <glyph glyph-name="lacute" unicode="&#x13a;" horiz-adv-x="261" 
d="M74 827l139 118h72l-157 -118h-54zM106 0v742h50v-742h-50z" />
    <glyph glyph-name="Lcommaaccent" unicode="&#x13b;" horiz-adv-x="585" 
d="M173 46h403v-46h-454v700h51v-654zM360 -112q16 0 26 -10.5t10 -23.5q0 -18 -9 -40l-26 -75h-30l20 82q-27 7 -27 33q0 14 10 24t26 10z" />
    <glyph glyph-name="lcommaaccent" unicode="&#x13c;" horiz-adv-x="261" 
d="M156 742v-742h-50v742h50zM131 -112q16 0 26 -10.5t10 -23.5q0 -18 -9 -40l-26 -75h-30l20 82q-27 7 -27 33q0 14 10 24t26 10z" />
    <glyph glyph-name="Lcaron" unicode="&#x13d;" horiz-adv-x="585" 
d="M443 540v185h43l-6 -185h-37zM122 0v700h51v-654h403v-46h-454z" />
    <glyph glyph-name="lcaron" unicode="&#x13e;" horiz-adv-x="261" 
d="M251 582v185h43l-6 -185h-37zM106 0v742h50v-742h-50z" />
    <glyph glyph-name="Ldot" unicode="&#x13f;" horiz-adv-x="585" 
d="M122 0v700h51v-654h403v-46h-454zM440 333q-16 0 -27.5 12t-11.5 28q0 17 11.5 29t27.5 12q17 0 28.5 -12t11.5 -29t-12 -28.5t-28 -11.5z" />
    <glyph glyph-name="ldot" unicode="&#x140;" horiz-adv-x="287" 
d="M106 0v742h50v-742h-50zM274 313q-16 0 -27 11.5t-11 27.5t11 27t27 11t27 -11t11 -27t-11 -27.5t-27 -11.5z" />
    <glyph glyph-name="Lslash" unicode="&#x141;" horiz-adv-x="588" 
d="M176 46h403v-46h-454v321l-72 -54l-24 31l96 72v330h51v-292l125 93l24 -31l-149 -111v-313z" />
    <glyph glyph-name="lslash" unicode="&#x142;" horiz-adv-x="267" 
d="M257 420l-98 -73v-347h-50v309l-74 -55l-23 31l97 73v384h50v-347l74 56z" />
    <glyph glyph-name="Nacute" unicode="&#x143;" horiz-adv-x="814" 
d="M561 875l-157 -118h-54l139 118h72zM641 700h51v-700h-42l-477 608v-608h-51v700h43l476 -608v608z" />
    <glyph glyph-name="nacute" unicode="&#x144;" horiz-adv-x="673" 
d="M492 725l-157 -118h-54l139 118h72zM361 526q98 0 155 -57t57 -164v-305h-50v301q0 88 -44.5 134t-124.5 46q-92 0 -145 -55t-53 -148v-278h-50v522h48v-113q27 55 80.5 86t126.5 31z" />
    <glyph glyph-name="Ncommaaccent" unicode="&#x145;" horiz-adv-x="814" 
d="M641 700h51v-700h-42l-477 608v-608h-51v700h43l476 -608v608zM407 -112q16 0 26 -10.5t10 -23.5q0 -18 -9 -40l-26 -75h-30l20 82q-27 7 -27 33q0 14 10 24t26 10z" />
    <glyph glyph-name="ncommaaccent" unicode="&#x146;" horiz-adv-x="673" 
d="M361 526q98 0 155 -57t57 -164v-305h-50v301q0 88 -44.5 134t-124.5 46q-92 0 -145 -55t-53 -148v-278h-50v522h48v-113q27 55 80.5 86t126.5 31zM338 -112q16 0 26 -10.5t10 -23.5q0 -18 -9 -40l-26 -75h-30l20 82q-27 7 -27 33q0 14 10 24t26 10z" />
    <glyph glyph-name="Ncaron" unicode="&#x147;" horiz-adv-x="814" 
d="M435 757h-56l-126 118h50l104 -86l104 86h50zM641 700h51v-700h-42l-477 608v-608h-51v700h43l476 -608v608z" />
    <glyph glyph-name="ncaron" unicode="&#x148;" horiz-adv-x="673" 
d="M366 607h-56l-126 118h50l104 -86l104 86h50zM361 526q98 0 155 -57t57 -164v-305h-50v301q0 88 -44.5 134t-124.5 46q-92 0 -145 -55t-53 -148v-278h-50v522h48v-113q27 55 80.5 86t126.5 31z" />
    <glyph glyph-name="napostrophe" unicode="&#x149;" horiz-adv-x="732" 
d="M61 440l5 260h38l-11 -260h-32zM420 526q98 0 155 -57t57 -164v-305h-50v301q0 88 -44.5 134t-124.5 46q-92 0 -145 -55t-53 -148v-278h-50v522h48v-113q27 55 80.5 86t126.5 31z" />
    <glyph glyph-name="Eng" unicode="&#x14a;" horiz-adv-x="814" 
d="M641 700h51v-683q0 -215 -189 -215q-54 0 -100.5 24t-76.5 67l28 36q57 -82 149 -82q138 0 138 164l-468 597v-608h-51v700h43l476 -608v608z" />
    <glyph glyph-name="eng" unicode="&#x14b;" horiz-adv-x="673" 
d="M361 526q98 0 155 -57t57 -164v-357q0 -67 -37 -106.5t-104 -39.5q-72 0 -108 35l21 37q32 -29 84 -29q46 0 70 27t24 78v351q0 88 -44.5 134t-124.5 46q-92 0 -145 -55t-53 -148v-278h-50v522h48v-113q27 55 80.5 86t126.5 31z" />
    <glyph glyph-name="Omacron" unicode="&#x14c;" horiz-adv-x="838" 
d="M272 798v36h294v-36h-294zM419 -5q-157 0 -260.5 101.5t-103.5 253.5t103.5 253.5t260.5 101.5q156 0 260 -101t104 -254t-104 -254t-260 -101zM419 42q134 0 223 87.5t89 220.5t-89 220.5t-223 87.5t-223.5 -87.5t-89.5 -220.5t89.5 -220.5t223.5 -87.5z" />
    <glyph glyph-name="omacron" unicode="&#x14d;" horiz-adv-x="620" 
d="M163 648v36h294v-36h-294zM310 -4q-113 0 -187 74.5t-74 190.5t74 190.5t187 74.5t187 -74.5t74 -190.5t-74 -190.5t-187 -74.5zM310 41q91 0 150.5 61.5t59.5 158.5t-59.5 158.5t-150.5 61.5t-150.5 -61.5t-59.5 -158.5t59.5 -158.5t150.5 -61.5z" />
    <glyph glyph-name="Obreve" unicode="&#x14e;" horiz-adv-x="838" 
d="M419 753q-61 0 -101.5 33t-42.5 89h37q1 -40 31.5 -64.5t75.5 -24.5t75.5 24.5t31.5 64.5h37q-2 -56 -42.5 -89t-101.5 -33zM419 -5q-157 0 -260.5 101.5t-103.5 253.5t103.5 253.5t260.5 101.5q156 0 260 -101t104 -254t-104 -254t-260 -101zM419 42q134 0 223 87.5
t89 220.5t-89 220.5t-223 87.5t-223.5 -87.5t-89.5 -220.5t89.5 -220.5t223.5 -87.5z" />
    <glyph glyph-name="obreve" unicode="&#x14f;" horiz-adv-x="620" 
d="M310 603q-61 0 -101.5 33t-42.5 89h37q1 -40 31.5 -64.5t75.5 -24.5t75.5 24.5t31.5 64.5h37q-2 -56 -42.5 -89t-101.5 -33zM310 -4q-113 0 -187 74.5t-74 190.5t74 190.5t187 74.5t187 -74.5t74 -190.5t-74 -190.5t-187 -74.5zM310 41q91 0 150.5 61.5t59.5 158.5
t-59.5 158.5t-150.5 61.5t-150.5 -61.5t-59.5 -158.5t59.5 -158.5t150.5 -61.5z" />
    <glyph glyph-name="Ohungarumlaut" unicode="&#x150;" horiz-adv-x="838" 
d="M318 757l103 118h61l-115 -118h-49zM471 757l103 118h60l-114 -118h-49zM419 -5q-157 0 -260.5 101.5t-103.5 253.5t103.5 253.5t260.5 101.5q156 0 260 -101t104 -254t-104 -254t-260 -101zM419 42q134 0 223 87.5t89 220.5t-89 220.5t-223 87.5t-223.5 -87.5
t-89.5 -220.5t89.5 -220.5t223.5 -87.5z" />
    <glyph glyph-name="ohungarumlaut" unicode="&#x151;" horiz-adv-x="620" 
d="M209 607l103 118h61l-115 -118h-49zM362 607l103 118h60l-114 -118h-49zM310 -4q-113 0 -187 74.5t-74 190.5t74 190.5t187 74.5t187 -74.5t74 -190.5t-74 -190.5t-187 -74.5zM310 41q91 0 150.5 61.5t59.5 158.5t-59.5 158.5t-150.5 61.5t-150.5 -61.5t-59.5 -158.5
t59.5 -158.5t150.5 -61.5z" />
    <glyph glyph-name="OE" unicode="&#x152;" horiz-adv-x="1117" 
d="M622 46h431v-46h-626q-166 0 -269 97.5t-103 251.5q0 155 103 253t269 98h612v-46h-417v-276h372v-45h-372v-287zM429 46h142v608h-142q-145 0 -234 -85t-89 -220q0 -134 89 -218.5t234 -84.5z" />
    <glyph glyph-name="oe" unicode="&#x153;" horiz-adv-x="1069" 
d="M1019 263v-14h-449q4 -93 65 -150.5t156 -57.5q107 0 167 73l29 -33q-71 -85 -197 -85q-87 0 -151 41t-94 113q-29 -71 -91 -112.5t-144 -41.5q-113 0 -187 74.5t-74 190.5t74 190.5t187 74.5q81 0 143 -41t92 -111q28 71 87.5 111.5t138.5 40.5q107 0 177.5 -74
t70.5 -189zM771 482q-83 0 -138.5 -54t-61.5 -140h400q-6 85 -62 139.5t-138 54.5zM310 41q91 0 150.5 61.5t59.5 158.5t-59.5 158.5t-150.5 61.5t-150.5 -61.5t-59.5 -158.5t59.5 -158.5t150.5 -61.5z" />
    <glyph glyph-name="Racute" unicode="&#x154;" horiz-adv-x="720" 
d="M522 875l-157 -118h-54l139 118h72zM666 0h-58l-167 234q-37 -5 -68 -5h-200v-229h-51v700h251q132 0 207 -62.5t75 -173.5q0 -83 -42.5 -139.5t-121.5 -79.5zM173 274h200q112 0 171 49.5t59 140.5t-59 140.5t-171 49.5h-200v-380z" />
    <glyph glyph-name="racute" unicode="&#x155;" horiz-adv-x="394" 
d="M384 725l-157 -118h-54l139 118h72zM154 408q50 118 199 118v-49q-2 0 -6 0.5t-6 0.5q-87 0 -136 -54.5t-49 -151.5v-272h-50v522h48v-114z" />
    <glyph glyph-name="Rcommaaccent" unicode="&#x156;" horiz-adv-x="720" 
d="M666 0h-58l-167 234q-37 -5 -68 -5h-200v-229h-51v700h251q132 0 207 -62.5t75 -173.5q0 -83 -42.5 -139.5t-121.5 -79.5zM173 274h200q112 0 171 49.5t59 140.5t-59 140.5t-171 49.5h-200v-380zM368 -112q16 0 26 -10.5t10 -23.5q0 -18 -9 -40l-26 -75h-30l20 82
q-27 7 -27 33q0 14 10 24t26 10z" />
    <glyph glyph-name="rcommaaccent" unicode="&#x157;" horiz-adv-x="394" 
d="M154 408q50 118 199 118v-49q-2 0 -6 0.5t-6 0.5q-87 0 -136 -54.5t-49 -151.5v-272h-50v522h48v-114zM131 -112q16 0 26 -10.5t10 -23.5q0 -18 -9 -40l-26 -75h-30l20 82q-27 7 -27 33q0 14 10 24t26 10z" />
    <glyph glyph-name="Rcaron" unicode="&#x158;" horiz-adv-x="720" 
d="M396 757h-56l-126 118h50l104 -86l104 86h50zM666 0h-58l-167 234q-37 -5 -68 -5h-200v-229h-51v700h251q132 0 207 -62.5t75 -173.5q0 -83 -42.5 -139.5t-121.5 -79.5zM173 274h200q112 0 171 49.5t59 140.5t-59 140.5t-171 49.5h-200v-380z" />
    <glyph glyph-name="rcaron" unicode="&#x159;" horiz-adv-x="394" 
d="M258 607h-56l-126 118h50l104 -86l104 86h50zM154 408q50 118 199 118v-49q-2 0 -6 0.5t-6 0.5q-87 0 -136 -54.5t-49 -151.5v-272h-50v522h48v-114z" />
    <glyph glyph-name="Sacute" unicode="&#x15a;" horiz-adv-x="609" 
d="M263 757l139 118h72l-157 -118h-54zM306 -5q-77 0 -146.5 26.5t-108.5 68.5l23 38q37 -39 99.5 -63.5t131.5 -24.5q100 0 151 38t51 99q0 42 -24 71t-62.5 44t-85.5 26t-93.5 24.5t-85 32.5t-62.5 55.5t-24 88.5q0 80 63 133t185 53q124 0 211 -63l-19 -41
q-86 59 -192 59q-97 0 -147 -39t-50 -101q0 -49 32.5 -80.5t81 -44.5l105 -28.5t105 -32t81 -56t32.5 -98.5q0 -80 -64.5 -132.5t-187.5 -52.5z" />
    <glyph glyph-name="sacute" unicode="&#x15b;" horiz-adv-x="478" 
d="M181 607l139 118h72l-157 -118h-54zM238 -4q-63 0 -120 19t-89 48l23 40q32 -27 82.5 -45t105.5 -18q154 0 154 98q0 35 -25.5 56.5t-64 29t-83.5 17.5t-83.5 21.5t-64 42t-25.5 78.5q0 62 51.5 102.5t146.5 40.5q50 0 99 -14t80 -37l-23 -40q-65 47 -157 47
q-73 0 -110 -27t-37 -71q0 -43 35.5 -66t86.5 -31.5t102 -19.5t86.5 -42t35.5 -86q0 -65 -54 -104t-152 -39z" />
    <glyph glyph-name="Scircumflex" unicode="&#x15c;" horiz-adv-x="609" 
d="M320 844l-104 -87h-50l126 118h56l126 -118h-50zM121 520q0 -49 32.5 -80.5t81 -44.5l105 -28.5t105 -32t81 -56t32.5 -98.5q0 -80 -64.5 -132.5t-187.5 -52.5q-77 0 -146.5 26.5t-108.5 68.5l23 38q37 -39 99.5 -63.5t131.5 -24.5q100 0 151 38t51 99q0 42 -24 71
t-62.5 44t-85.5 26t-93.5 24.5t-85 32.5t-62.5 55.5t-24 88.5q0 80 63 133t185 53q124 0 211 -63l-19 -41q-86 59 -192 59q-97 0 -147 -39t-50 -101z" />
    <glyph glyph-name="scircumflex" unicode="&#x15d;" horiz-adv-x="478" 
d="M238 694l-104 -87h-50l126 118h56l126 -118h-50zM98 384q0 -43 35.5 -66t86.5 -31.5t102 -19.5t86.5 -42t35.5 -86q0 -65 -54 -104t-152 -39q-63 0 -120 19t-89 48l23 40q32 -27 82.5 -45t105.5 -18q154 0 154 98q0 35 -25.5 56.5t-64 29t-83.5 17.5t-83.5 21.5t-64 42
t-25.5 78.5q0 62 51.5 102.5t146.5 40.5q50 0 99 -14t80 -37l-23 -40q-65 47 -157 47q-73 0 -110 -27t-37 -71z" />
    <glyph glyph-name="Scedilla" unicode="&#x15e;" horiz-adv-x="609" 
d="M558 180q0 -75 -57.5 -126.5t-167.5 -57.5l-13 -50q40 -3 62.5 -24.5t22.5 -55.5q0 -38 -29.5 -60.5t-75.5 -22.5q-47 0 -79 25l14 28q27 -21 65 -21q30 0 48 14t18 39q0 23 -17 37t-49 14h-20l20 76q-76 1 -143.5 27t-105.5 68l23 38q37 -39 99.5 -63.5t131.5 -24.5
q100 0 151 38t51 99q0 42 -24 71t-62.5 44t-85.5 26t-93.5 24.5t-85 32.5t-62.5 55.5t-24 88.5q0 80 63 133t185 53q124 0 211 -63l-19 -41q-86 59 -192 59q-97 0 -147 -39t-50 -101q0 -49 32.5 -80.5t81 -44.5l105 -28.5t105 -32t81 -56t32.5 -98.5z" />
    <glyph glyph-name="scedilla" unicode="&#x15f;" horiz-adv-x="478" 
d="M444 139q0 -63 -50.5 -101.5t-142.5 -41.5l-13 -50q40 -3 62.5 -24.5t22.5 -55.5q0 -38 -29.5 -60.5t-75.5 -22.5q-47 0 -79 25l14 28q27 -21 65 -21q30 0 48 14t18 39q0 23 -17 37t-49 14h-20l20 77q-57 3 -108.5 21.5t-80.5 45.5l23 40q32 -27 82.5 -45t105.5 -18
q154 0 154 98q0 35 -25.5 56.5t-64 29t-83.5 17.5t-83.5 21.5t-64 42t-25.5 78.5q0 62 51.5 102.5t146.5 40.5q50 0 99 -14t80 -37l-23 -40q-65 47 -157 47q-73 0 -110 -27t-37 -71q0 -43 35.5 -66t86.5 -31.5t102 -19.5t86.5 -42t35.5 -86z" />
    <glyph glyph-name="Scaron" unicode="&#x160;" horiz-adv-x="609" 
d="M348 757h-56l-126 118h50l104 -86l104 86h50zM121 520q0 -49 32.5 -80.5t81 -44.5l105 -28.5t105 -32t81 -56t32.5 -98.5q0 -80 -64.5 -132.5t-187.5 -52.5q-77 0 -146.5 26.5t-108.5 68.5l23 38q37 -39 99.5 -63.5t131.5 -24.5q100 0 151 38t51 99q0 42 -24 71t-62.5 44
t-85.5 26t-93.5 24.5t-85 32.5t-62.5 55.5t-24 88.5q0 80 63 133t185 53q124 0 211 -63l-19 -41q-86 59 -192 59q-97 0 -147 -39t-50 -101z" />
    <glyph glyph-name="scaron" unicode="&#x161;" horiz-adv-x="478" 
d="M266 607h-56l-126 118h50l104 -86l104 86h50zM98 384q0 -43 35.5 -66t86.5 -31.5t102 -19.5t86.5 -42t35.5 -86q0 -65 -54 -104t-152 -39q-63 0 -120 19t-89 48l23 40q32 -27 82.5 -45t105.5 -18q154 0 154 98q0 35 -25.5 56.5t-64 29t-83.5 17.5t-83.5 21.5t-64 42
t-25.5 78.5q0 62 51.5 102.5t146.5 40.5q50 0 99 -14t80 -37l-23 -40q-65 47 -157 47q-73 0 -110 -27t-37 -71z" />
    <glyph glyph-name="uni0162" unicode="&#x162;" horiz-adv-x="563" 
d="M307 0h-11l-14 -54q40 -3 62.5 -24.5t22.5 -55.5q0 -38 -29.5 -60.5t-75.5 -22.5q-47 0 -79 25l14 28q27 -21 65 -21q30 0 48 14t18 39q0 23 -17 37t-49 14h-20l21 81h-7v654h-252v46h555v-46h-252v-654z" />
    <glyph glyph-name="uni0163" unicode="&#x163;" horiz-adv-x="398" 
d="M246 -54q40 -3 62.5 -24.5t22.5 -55.5q0 -38 -29.5 -60.5t-75.5 -22.5q-47 0 -79 25l14 28q27 -21 65 -21q30 0 48 14t18 39q0 23 -17 37t-49 14h-20l21 79q-54 8 -82.5 44.5t-28.5 95.5v341h-96v43h96v114h50v-114h166v-43h-166v-336q0 -104 97 -104q49 0 81 29l21 -35
q-38 -37 -106 -37z" />
    <glyph glyph-name="Tcaron" unicode="&#x164;" horiz-adv-x="563" 
d="M310 757h-56l-126 118h50l104 -86l104 86h50zM4 700h555v-46h-252v-654h-51v654h-252v46z" />
    <glyph glyph-name="tcaron" unicode="&#x165;" horiz-adv-x="398" 
d="M305 763l-7 -163h-35v163h42zM344 68l21 -35q-38 -37 -107 -37q-68 0 -105 37.5t-37 104.5v341h-96v43h96v114h50v-114h166v-43h-166v-336q0 -104 97 -104q49 0 81 29z" />
    <glyph glyph-name="Tbar" unicode="&#x166;" horiz-adv-x="563" 
d="M559 654h-252v-284h163v-43h-163v-327h-51v327h-162v43h162v284h-252v46h555v-46z" />
    <glyph glyph-name="tbar" unicode="&#x167;" horiz-adv-x="408" 
d="M349 68l21 -35q-38 -37 -107 -37q-68 0 -105 37.5t-37 104.5v144h-85v38h85v159h-96v43h96v114h50v-114h166v-43h-166v-159h155v-38h-155v-139q0 -104 97 -104q49 0 81 29z" />
    <glyph glyph-name="Utilde" unicode="&#x168;" horiz-adv-x="793" 
d="M463 765q-32 0 -71 34.5t-58 34.5q-23 0 -37 -17.5t-16 -47.5h-33q2 45 24 72.5t59 27.5q32 0 71 -34.5t58 -34.5q23 0 37 17t16 46h33q-2 -44 -24.5 -71t-58.5 -27zM396 -5q-133 0 -206.5 77t-73.5 225v403h51v-401q0 -129 59 -193t171 -64q229 0 229 257v401h51v-403
q0 -148 -74 -225t-207 -77z" />
    <glyph glyph-name="utilde" unicode="&#x169;" horiz-adv-x="669" 
d="M269 684q-23 0 -37 -17.5t-16 -47.5h-33q2 45 24 72.5t59 27.5q32 0 71 -34.5t58 -34.5q23 0 37 17t16 46h33q-2 -44 -24.5 -71t-58.5 -27q-32 0 -71 34.5t-58 34.5zM513 522h50v-522h-48v112q-26 -55 -77 -85.5t-120 -30.5q-102 0 -160 57t-58 164v305h50v-301
q0 -88 45 -134t127 -46q88 0 139.5 55t51.5 148v278z" />
    <glyph glyph-name="Umacron" unicode="&#x16a;" horiz-adv-x="793" 
d="M250 798v36h294v-36h-294zM396 -5q-133 0 -206.5 77t-73.5 225v403h51v-401q0 -129 59 -193t171 -64q229 0 229 257v401h51v-403q0 -148 -74 -225t-207 -77z" />
    <glyph glyph-name="umacron" unicode="&#x16b;" horiz-adv-x="669" 
d="M479 684v-36h-294v36h294zM513 522h50v-522h-48v112q-26 -55 -77 -85.5t-120 -30.5q-102 0 -160 57t-58 164v305h50v-301q0 -88 45 -134t127 -46q88 0 139.5 55t51.5 148v278z" />
    <glyph glyph-name="Ubreve" unicode="&#x16c;" horiz-adv-x="793" 
d="M397 753q-61 0 -101.5 33t-42.5 89h37q1 -40 31.5 -64.5t75.5 -24.5t75.5 24.5t31.5 64.5h37q-2 -56 -42.5 -89t-101.5 -33zM396 -5q-133 0 -206.5 77t-73.5 225v403h51v-401q0 -129 59 -193t171 -64q229 0 229 257v401h51v-403q0 -148 -74 -225t-207 -77z" />
    <glyph glyph-name="ubreve" unicode="&#x16d;" horiz-adv-x="669" 
d="M332 603q-61 0 -101.5 33t-42.5 89h37q1 -40 31.5 -64.5t75.5 -24.5t75.5 24.5t31.5 64.5h37q-2 -56 -42.5 -89t-101.5 -33zM513 522h50v-522h-48v112q-26 -55 -77 -85.5t-120 -30.5q-102 0 -160 57t-58 164v305h50v-301q0 -88 45 -134t127 -46q88 0 139.5 55t51.5 148
v278z" />
    <glyph glyph-name="Uring" unicode="&#x16e;" horiz-adv-x="793" 
d="M396 774q-42 0 -70.5 28.5t-28.5 68.5q0 41 28.5 70.5t70.5 29.5t71 -29.5t29 -70.5q0 -40 -28.5 -68.5t-71.5 -28.5zM396 802q30 0 50 20t20 49q0 30 -20 50.5t-50 20.5t-49.5 -20.5t-19.5 -50.5t19.5 -49.5t49.5 -19.5zM396 -5q-133 0 -206.5 77t-73.5 225v403h51v-401
q0 -129 59 -193t171 -64q229 0 229 257v401h51v-403q0 -148 -74 -225t-207 -77z" />
    <glyph glyph-name="uring" unicode="&#x16f;" horiz-adv-x="669" 
d="M331 596q-42 0 -70.5 28.5t-28.5 68.5q0 41 28.5 70.5t70.5 29.5t71 -29.5t29 -70.5q0 -40 -28.5 -68.5t-71.5 -28.5zM331 764q-30 0 -49.5 -20.5t-19.5 -50.5t19.5 -49.5t49.5 -19.5t50 20t20 49q0 30 -20 50.5t-50 20.5zM513 522h50v-522h-48v112q-26 -55 -77 -85.5
t-120 -30.5q-102 0 -160 57t-58 164v305h50v-301q0 -88 45 -134t127 -46q88 0 139.5 55t51.5 148v278z" />
    <glyph glyph-name="Uhungarumlaut" unicode="&#x170;" horiz-adv-x="793" 
d="M296 757l103 118h61l-115 -118h-49zM449 757l103 118h60l-114 -118h-49zM396 -5q-133 0 -206.5 77t-73.5 225v403h51v-401q0 -129 59 -193t171 -64q229 0 229 257v401h51v-403q0 -148 -74 -225t-207 -77z" />
    <glyph glyph-name="uhungarumlaut" unicode="&#x171;" horiz-adv-x="669" 
d="M395 725l-115 -118h-49l103 118h61zM433 607h-49l103 118h60zM513 522h50v-522h-48v112q-26 -55 -77 -85.5t-120 -30.5q-102 0 -160 57t-58 164v305h50v-301q0 -88 45 -134t127 -46q88 0 139.5 55t51.5 148v278z" />
    <glyph glyph-name="Uogonek" unicode="&#x172;" horiz-adv-x="793" 
d="M626 700h51v-403q0 -230 -179 -289q-151 -50 -151 -132q0 -29 19 -44.5t49 -15.5q35 0 61 21l14 -29q-34 -25 -80 -25t-74 24.5t-28 65.5q0 73 85 122q-131 1 -204 78t-73 224v403h51v-401q0 -129 59 -193t171 -64q229 0 229 257v401z" />
    <glyph glyph-name="uogonek" unicode="&#x173;" horiz-adv-x="669" 
d="M569 -163l14 -29q-34 -25 -81 -25q-46 0 -74 24.5t-28 65.5q0 81 115 138v101q-26 -55 -77 -85.5t-120 -30.5q-102 0 -160 57t-58 164v305h50v-301q0 -88 45 -134t127 -46q88 0 139.5 55t51.5 148v278h50v-522q-124 -54 -124 -124q0 -29 19 -44.5t49 -15.5q36 0 62 21z
" />
    <glyph glyph-name="Wcircumflex" unicode="&#x174;" horiz-adv-x="1098" 
d="M549 844l-104 -87h-50l126 118h56l126 -118h-50zM1008 700h50l-237 -700h-54l-217 628l-218 -628h-54l-238 700h54l213 -630l219 630h49l218 -631z" />
    <glyph glyph-name="wcircumflex" unicode="&#x175;" horiz-adv-x="862" 
d="M430 693l-104 -87h-50l126 118h56l126 -118h-50zM806 522h46l-198 -522h-47l-176 453l-177 -453h-46l-198 522h48l174 -466l178 466h43l177 -465z" />
    <glyph glyph-name="Ycircumflex" unicode="&#x176;" horiz-adv-x="625" 
d="M312 844l-104 -87h-50l126 118h56l126 -118h-50zM620 700l-282 -459v-241h-51v241l-282 459h56l253 -412l253 412h53z" />
    <glyph glyph-name="ycircumflex" unicode="&#x177;" horiz-adv-x="528" 
d="M250 694l-104 -87h-50l126 118h56l126 -118h-50zM474 522h51l-268 -593q-30 -69 -69.5 -98t-93.5 -29q-76 0 -121 47l25 38q40 -41 97 -41q38 0 65 21t50 72l28 63l-235 520h53l209 -467z" />
    <glyph glyph-name="Ydieresis" unicode="&#x178;" horiz-adv-x="625" 
d="M226 784q-15 0 -25.5 10.5t-10.5 25.5q0 16 10.5 26t25.5 10t25.5 -10.5t10.5 -25.5t-11 -25.5t-25 -10.5zM398 784q-14 0 -25 10.5t-11 25.5t10.5 25.5t25.5 10.5t25.5 -10t10.5 -26q0 -15 -10.5 -25.5t-25.5 -10.5zM620 700l-282 -459v-241h-51v241l-282 459h56
l253 -412l253 412h53z" />
    <glyph glyph-name="Zacute" unicode="&#x179;" horiz-adv-x="646" 
d="M483 875l-157 -118h-54l139 118h72zM118 46h493v-46h-564v36l483 618h-477v46h547v-36z" />
    <glyph glyph-name="zacute" unicode="&#x17a;" horiz-adv-x="503" 
d="M406 725l-157 -118h-54l139 118h72zM108 43h351v-43h-415v34l344 445h-339v43h404v-34z" />
    <glyph glyph-name="Zdotaccent" unicode="&#x17b;" horiz-adv-x="646" 
d="M329 785q-17 0 -28 11.5t-11 27.5t11.5 27.5t27.5 11.5t27.5 -11.5t11.5 -27.5t-11 -27.5t-28 -11.5zM118 46h493v-46h-564v36l483 618h-477v46h547v-36z" />
    <glyph glyph-name="zdotaccent" unicode="&#x17c;" horiz-adv-x="503" 
d="M252 635q-16 0 -27.5 11.5t-11.5 27.5t11.5 27.5t27.5 11.5t27.5 -11.5t11.5 -27.5t-11.5 -27.5t-27.5 -11.5zM108 43h351v-43h-415v34l344 445h-339v43h404v-34z" />
    <glyph glyph-name="Zcaron" unicode="&#x17d;" horiz-adv-x="646" 
d="M357 757h-56l-126 118h50l104 -86l104 86h50zM118 46h493v-46h-564v36l483 618h-477v46h547v-36z" />
    <glyph glyph-name="zcaron" unicode="&#x17e;" horiz-adv-x="503" 
d="M280 607h-56l-126 118h50l104 -86l104 86h50zM108 43h351v-43h-415v34l344 445h-339v43h404v-34z" />
    <glyph glyph-name="longs" unicode="&#x17f;" horiz-adv-x="286" 
d="M271 746q67 0 104 -34l-20 -38q-32 29 -81 29q-97 0 -97 -105v-598h-50v479h-97v43h97v80q0 66 37.5 105t106.5 39z" />
    <glyph glyph-name="uni018F" unicode="&#x18f;" horiz-adv-x="816" 
d="M400 705q156 0 259 -101t103 -253q0 -149 -102.5 -252.5t-251.5 -103.5q-152 0 -252.5 101.5t-100.5 255.5v17h655q-7 124 -95 206.5t-215 82.5q-137 0 -227 -81l-30 36q98 92 257 92zM408 41q122 0 207.5 80.5t93.5 202.5h-602q9 -124 93 -203.5t208 -79.5z" />
    <glyph glyph-name="florin" unicode="&#x192;" horiz-adv-x="428" 
d="M363 703q-97 0 -111 -105l-10 -81h167l-6 -43h-165l-65 -528q-8 -66 -49.5 -105t-107.5 -39q-72 0 -104 35l23 37q29 -29 80 -29q94 0 108 105l64 524h-96l6 43h96l10 85q8 66 50.5 105t109.5 39q68 0 102 -35l-25 -37q-29 29 -77 29z" />
    <glyph glyph-name="Ohorn" unicode="&#x1a0;" horiz-adv-x="838" 
d="M610 654q80 -44 126.5 -125t46.5 -179q0 -153 -104 -254t-260 -101q-157 0 -260.5 101.5t-103.5 253.5q0 153 104 254t261 101q45 0 109.5 -7.5t93.5 -7.5q104 0 104 79q0 32 -20 65l34 14q25 -37 25 -80q0 -114 -145 -114h-11zM419 42q133 0 222.5 88.5t89.5 219.5
t-89.5 219.5t-222.5 88.5t-223 -88.5t-90 -219.5t90 -219.5t223 -88.5z" />
    <glyph glyph-name="ohorn" unicode="&#x1a1;" horiz-adv-x="620" 
d="M455 485q54 -34 85 -92.5t31 -131.5q0 -116 -74 -190.5t-187 -74.5t-187 74.5t-74 190.5t74 190.5t187 74.5q28 0 65 -3t62 -3q42 0 63.5 20.5t21.5 50.5q0 31 -20 66l34 14q25 -37 25 -80t-27.5 -72t-78.5 -34zM310 41q91 0 150.5 61.5t59.5 158.5t-59.5 158.5
t-150.5 61.5t-150.5 -61.5t-59.5 -158.5t59.5 -158.5t150.5 -61.5z" />
    <glyph glyph-name="Uhorn" unicode="&#x1af;" horiz-adv-x="796" 
d="M774 768q0 -46 -24.5 -75.5t-72.5 -32.5v-363q0 -148 -74 -225t-207 -77t-206.5 77t-73.5 225v403h51v-401q0 -129 59 -193t171 -64q229 0 229 257v401h41q35 0 51.5 19t16.5 49q0 33 -20 66l35 14q24 -38 24 -80z" />
    <glyph glyph-name="uhorn" unicode="&#x1b0;" horiz-adv-x="672" 
d="M646 590q0 -43 -21 -71t-62 -35v-484h-48v112q-26 -55 -77 -85.5t-120 -30.5q-102 0 -160 57t-58 164v305h50v-301q0 -88 45 -134t127 -46q88 0 139.5 55t51.5 148v278h26q35 0 51.5 19t16.5 49q0 33 -20 66l35 14q24 -38 24 -80z" />
    <glyph glyph-name="uni01B7" unicode="&#x1b7;" horiz-adv-x="609" 
d="M294 395q125 -2 190 -55.5t65 -142.5q0 -91 -67 -146.5t-190 -55.5q-82 0 -152 25.5t-107 67.5l22 39q35 -38 98 -62t139 -24q98 0 151.5 42t53.5 114q0 73 -54.5 114t-162.5 41h-46v37l222 266h-399v45h462v-36z" />
    <glyph glyph-name="uni01C4" unicode="&#x1c4;" horiz-adv-x="1458" 
d="M1160 757h-56l-126 118h50l104 -86l104 86h50zM399 700q166 0 269 -98t103 -252t-103 -252t-269 -98h-277v700h277zM921 46h493v-46h-564v36l483 618h-477v46h547v-36zM395 46q147 0 236 84.5t89 219.5t-89 219.5t-236 84.5h-222v-608h222z" />
    <glyph glyph-name="uni01C5" unicode="&#x1c5;" horiz-adv-x="1329" 
d="M1106 607h-56l-126 118h50l104 -86l104 86h50zM399 700q166 0 269 -98t103 -252t-103 -252t-269 -98h-277v700h277zM395 46q147 0 236 84.5t89 219.5t-89 219.5t-236 84.5h-222v-608h222zM934 43h351v-43h-415v34l344 445h-339v43h404v-34z" />
    <glyph glyph-name="uni01C6" unicode="&#x1c6;" horiz-adv-x="1194" 
d="M520 401v341h50v-742h-49v123q-31 -61 -87 -94t-127 -33q-111 0 -184.5 74.5t-73.5 190.5q0 117 73.5 191t184.5 74q70 0 125.5 -33t87.5 -92zM955 607h-56l-126 118h50l104 -86l104 86h50zM783 43h351v-43h-415v34l344 445h-339v43h404v-34zM310 41q91 0 150.5 61.5
t59.5 158.5t-59.5 158.5t-150.5 61.5t-150.5 -61.5t-59.5 -158.5t59.5 -158.5t150.5 -61.5z" />
    <glyph glyph-name="uni01C7" unicode="&#x1c7;" horiz-adv-x="1076" 
d="M122 0v700h51v-654h403v-46h-454zM770 -5q-57 0 -106.5 26.5t-79.5 73.5l31 34q59 -88 155 -88q139 0 139 165v448h-258v46h309v-494q0 -211 -190 -211z" />
    <glyph glyph-name="uni01C8" unicode="&#x1c8;" horiz-adv-x="851" 
d="M721 649q-17 0 -29 11.5t-12 28.5t12 29t29 12t29 -11.5t12 -28.5t-12 -29t-29 -12zM122 0v700h51v-654h403v-46h-454zM605 -198q-72 0 -108 35l20 37q32 -29 85 -29q46 0 70 27t24 78v572h50v-574q0 -67 -37 -106.5t-104 -39.5z" />
    <glyph glyph-name="uni01C9" unicode="&#x1c9;" horiz-adv-x="527" 
d="M106 0v742h50v-742h-50zM397 649q-17 0 -29 11.5t-12 28.5t12 29t29 12t29 -11.5t12 -28.5t-12 -29t-29 -12zM281 -198q-72 0 -108 35l20 37q32 -29 85 -29q46 0 70 27t24 78v572h50v-574q0 -67 -37 -106.5t-104 -39.5z" />
    <glyph glyph-name="uni01CA" unicode="&#x1ca;" horiz-adv-x="1305" 
d="M641 92v608h51v-700h-42l-477 608v-608h-51v700h43zM880 700h309v-494q0 -211 -190 -211q-57 0 -106.5 26.5t-79.5 73.5l31 34q59 -88 155 -88q139 0 139 165v448h-258v46z" />
    <glyph glyph-name="uni01CB" unicode="&#x1cb;" horiz-adv-x="1080" 
d="M950 730q17 0 29 -11.5t12 -28.5t-12 -29t-29 -12t-29 11.5t-12 28.5t12 29t29 12zM641 92v608h51v-700h-42l-477 608v-608h-51v700h43zM925 -50v572h50v-574q0 -67 -37 -106.5t-104 -39.5q-72 0 -108 35l20 37q32 -29 85 -29q46 0 70 27t24 78z" />
    <glyph glyph-name="uni01CC" unicode="&#x1cc;" horiz-adv-x="939" 
d="M809 730q17 0 29 -11.5t12 -28.5t-12 -29t-29 -12t-29 11.5t-12 28.5t12 29t29 12zM361 526q98 0 155 -57t57 -164v-305h-50v301q0 88 -44.5 134t-124.5 46q-92 0 -145 -55t-53 -148v-278h-50v522h48v-113q27 55 80.5 86t126.5 31zM784 -50v572h50v-574q0 -67 -37 -106.5
t-104 -39.5q-72 0 -108 35l20 37q32 -29 85 -29q46 0 70 27t24 78z" />
    <glyph glyph-name="uni01CD" unicode="&#x1cd;" horiz-adv-x="705" 
d="M381 757h-56l-126 118h50l104 -86l104 86h50zM645 0l-90 197h-406l-89 -197h-55l322 700h51l322 -700h-55zM169 240h367l-184 404z" />
    <glyph glyph-name="uni01CE" unicode="&#x1ce;" horiz-adv-x="583" 
d="M308 607h-56l-126 118h50l104 -86l104 86h50zM282 526q97 0 149 -49.5t52 -145.5v-331h-48v93q-53 -97 -188 -97q-87 0 -137.5 41t-50.5 108q0 65 46.5 105.5t148.5 40.5h179v42q0 73 -39.5 111t-115.5 38q-107 0 -180 -66l-25 36q84 74 209 74zM254 37q132 0 179 117v98
h-178q-146 0 -146 -105q0 -51 38 -80.5t107 -29.5z" />
    <glyph glyph-name="uni01D3" unicode="&#x1d3;" horiz-adv-x="793" 
d="M425 757h-56l-126 118h50l104 -86l104 86h50zM626 700h51v-403q0 -148 -74 -225t-207 -77t-206.5 77t-73.5 225v403h51v-401q0 -129 59 -193t171 -64q229 0 229 257v401z" />
    <glyph glyph-name="uni01D4" unicode="&#x1d4;" horiz-adv-x="669" 
d="M360 607h-56l-126 118h50l104 -86l104 86h50zM513 522h50v-522h-48v112q-26 -55 -77 -85.5t-120 -30.5q-102 0 -160 57t-58 164v305h50v-301q0 -88 45 -134t127 -46q88 0 139.5 55t51.5 148v278z" />
    <glyph glyph-name="uni01E4" unicode="&#x1e4;" horiz-adv-x="805" 
d="M782 257v-43h-111v-129q-95 -90 -250 -90q-158 0 -262 101t-104 254t104 254t263 101t252 -96l-32 -34q-84 83 -219 83q-136 0 -226.5 -88t-90.5 -220t90.5 -220t226.5 -88q120 0 199 64v108h-210v43h210v90h49v-90h111z" />
    <glyph glyph-name="uni01E5" unicode="&#x1e5;" horiz-adv-x="686" 
d="M640 -27v-38h-83q-48 -133 -234 -133q-72 0 -136 22t-103 61l27 38q82 -76 211 -76q138 0 182 88h-212v38h226q8 35 8 77v95q-32 -56 -89 -87t-128 -31q-112 0 -186 70.5t-74 179.5t74 179t186 70q72 0 130 -31.5t89 -88.5v116h48v-466q0 -43 -8 -83h72zM313 71
q93 0 153.5 57.5t60.5 148.5t-60.5 148.5t-153.5 57.5t-153 -57.5t-60 -148.5t60 -148.5t153 -57.5z" />
    <glyph glyph-name="Gcaron" unicode="&#x1e6;" horiz-adv-x="773" 
d="M433 756h-56l-126 118h50l104 -86l104 86h50zM622 106v241h49v-262q-95 -90 -250 -90q-158 0 -262 101t-104 254t104 254t263 101t252 -96l-32 -34q-84 83 -219 83q-136 0 -226.5 -88t-90.5 -220t90.5 -220t226.5 -88q120 0 199 64z" />
    <glyph glyph-name="gcaron" unicode="&#x1e7;" horiz-adv-x="682" 
d="M349 607h-56l-126 118h50l104 -86l104 86h50zM528 522h48v-466q0 -130 -63 -192t-190 -62q-72 0 -136 22t-103 61l27 38q82 -76 211 -76q104 0 154 49.5t50 153.5v88q-32 -57 -89 -88t-128 -31q-112 0 -186 71.5t-74 182.5t74 182t186 71q72 0 130 -32t89 -90v118z
M313 64q93 0 153.5 58.5t60.5 150.5t-60.5 150t-153.5 58t-153 -58t-60 -150t60 -150.5t153 -58.5z" />
    <glyph glyph-name="uni01E8" unicode="&#x1e8;" horiz-adv-x="703" 
d="M400 757h-56l-126 118h50l104 -86l104 86h50zM631 0l-301 345l-157 -161v-184h-51v700h51v-450l437 450h62l-308 -318l329 -382h-62z" />
    <glyph glyph-name="uni01E9" unicode="&#x1e9;" horiz-adv-x="588" 
d="M285 945l-126 -118h-56l-126 118h50l104 -86l104 86h50zM514 0l-222 279l-136 -124v-155h-50v742h50v-525l334 305h64l-225 -211l247 -311h-62z" />
    <glyph glyph-name="uni01EA" unicode="&#x1ea;" horiz-adv-x="838" 
d="M419 705q156 0 260 -101t104 -254q0 -133 -78 -225.5t-196 -118.5q-65 -15 -109 -51t-44 -79q0 -29 19 -44.5t49 -15.5q36 0 62 21l14 -29q-34 -25 -81 -25q-46 0 -74 24.5t-28 65.5q0 71 85 122q-150 6 -248.5 106t-98.5 249q0 153 104 254t260 101zM419 42
q134 0 223 87.5t89 220.5t-89 220.5t-223 87.5t-223.5 -87.5t-89.5 -220.5t89.5 -220.5t223.5 -87.5z" />
    <glyph glyph-name="uni01EB" unicode="&#x1eb;" horiz-adv-x="620" 
d="M310 526q113 0 187 -74.5t74 -190.5q0 -84 -40 -147.5t-111 -95.5q-85 -40 -114.5 -73.5t-29.5 -68.5q0 -29 19 -44.5t49 -15.5q35 0 61 21l14 -29q-34 -25 -80 -25t-74 24.5t-28 64.5q0 72 84 124h-11q-113 0 -187 74.5t-74 190.5t74 190.5t187 74.5zM310 41
q91 0 150.5 61.5t59.5 158.5t-59.5 158.5t-150.5 61.5t-150.5 -61.5t-59.5 -158.5t59.5 -158.5t150.5 -61.5z" />
    <glyph glyph-name="uni01EE" unicode="&#x1ee;" horiz-adv-x="609" 
d="M321 757h-56l-126 118h50l104 -86l104 86h50zM294 395q125 -2 190 -55.5t65 -142.5q0 -91 -67 -146.5t-190 -55.5q-82 0 -152 25.5t-107 67.5l22 39q35 -38 98 -62t139 -24q98 0 151.5 42t53.5 114q0 73 -54.5 114t-162.5 41h-46v37l222 266h-399v45h462v-36z" />
    <glyph glyph-name="uni01EF" unicode="&#x1ef;" horiz-adv-x="503" 
d="M246 607h-56l-126 118h50l104 -86l104 86h50zM225 209q117 -2 178 -56.5t61 -145.5q0 -92 -63 -149t-180 -57q-77 0 -143 26.5t-102 69.5l23 39q33 -40 91.5 -64.5t129.5 -24.5q93 0 143 42.5t50 117.5t-51 117.5t-152 42.5h-44v36l209 274h-375v45h437v-36z" />
    <glyph glyph-name="Aringacute" unicode="&#x1fa;" horiz-adv-x="705" 
d="M352 774q-42 0 -70.5 28.5t-28.5 68.5q0 41 28.5 70.5t70.5 29.5q31 0 56 -17l81 80l30 -24l-88 -78q21 -27 21 -61q0 -40 -28.5 -68.5t-71.5 -28.5zM352 942q-30 0 -49.5 -20.5t-19.5 -50.5t19.5 -49.5t49.5 -19.5t50 20t20 49q0 30 -20 50.5t-50 20.5zM645 0l-90 197
h-406l-89 -197h-55l322 700h51l322 -700h-55zM169 240h367l-184 404z" />
    <glyph glyph-name="aringacute" unicode="&#x1fb;" horiz-adv-x="583" 
d="M279 596q-42 0 -70.5 28.5t-28.5 68.5q0 41 28.5 70.5t70.5 29.5q31 0 56 -17l81 80l30 -24l-88 -78q21 -27 21 -61q0 -40 -28.5 -68.5t-71.5 -28.5zM279 764q-30 0 -49.5 -20.5t-19.5 -50.5t19.5 -49.5t49.5 -19.5t50 20t20 49q0 30 -20 50.5t-50 20.5zM282 526
q97 0 149 -49.5t52 -145.5v-331h-48v93q-53 -97 -188 -97q-87 0 -137.5 41t-50.5 108q0 65 46.5 105.5t148.5 40.5h179v42q0 73 -39.5 111t-115.5 38q-107 0 -180 -66l-25 36q84 74 209 74zM254 37q132 0 179 117v98h-178q-146 0 -146 -105q0 -51 38 -80.5t107 -29.5z" />
    <glyph glyph-name="AEacute" unicode="&#x1fc;" horiz-adv-x="1022" 
d="M654 875l-157 -118h-54l139 118h72zM526 46h432v-46h-483v197h-293l-122 -197h-55l434 700h504v-46h-417v-276h373v-45h-373v-287zM208 240h267v414h-11z" />
    <glyph glyph-name="aeacute" unicode="&#x1fd;" horiz-adv-x="983" 
d="M612 725l-157 -118h-54l139 118h72zM934 267q0 -4 -0.5 -9t-0.5 -7h-450q3 -93 64.5 -151.5t156.5 -58.5q106 0 167 73l30 -33q-73 -85 -198 -85q-77 0 -140 34.5t-98 100.5q-23 -69 -81 -102t-133 -33q-90 0 -141 41.5t-51 109.5q0 62 46.5 102.5t148.5 40.5h179v43
q0 73 -39.5 111t-115.5 38q-107 0 -180 -66l-25 36q84 74 208 74q157 0 190 -124q32 58 87.5 91t125.5 33q108 0 179 -73t71 -186zM684 482q-80 0 -136.5 -53t-63.5 -139h400q-6 85 -62.5 138.5t-137.5 53.5zM254 37q82 0 130.5 43.5t48.5 121.5v49h-178q-146 0 -146 -103
q0 -52 38.5 -81.5t106.5 -29.5z" />
    <glyph glyph-name="Oslashacute" unicode="&#x1fe;" horiz-adv-x="838" 
d="M573 875l-157 -118h-54l139 118h72zM647 632q64 -49 100 -122t36 -160q0 -153 -104 -254t-260 -101q-109 0 -197 52l-85 -117h-45l100 138q-65 48 -101 121.5t-36 160.5q0 152 103.5 253.5t260.5 101.5q110 0 197 -53l86 118h45zM106 350q0 -152 115 -243l367 505
q-74 46 -169 46q-134 0 -223.5 -87.5t-89.5 -220.5zM419 42q134 0 223 87.5t89 220.5q0 152 -113 242l-367 -505q74 -45 168 -45z" />
    <glyph glyph-name="oslashacute" unicode="&#x1ff;" horiz-adv-x="620" 
d="M463 725l-157 -118h-54l139 118h72zM472 473q99 -76 99 -212q0 -116 -74 -190.5t-187 -74.5q-76 0 -135 35l-68 -102h-38l80 119q-100 76 -100 213q0 116 74 190.5t187 74.5q74 0 136 -35l67 100h38zM100 261q0 -111 75 -173l245 364q-49 29 -110 29q-91 0 -150.5 -61.5
t-59.5 -158.5zM310 41q91 0 150.5 61.5t59.5 158.5q0 111 -75 173l-244 -364q49 -29 109 -29z" />
    <glyph glyph-name="uni0200" unicode="&#x200;" horiz-adv-x="705" 
d="M301 757h-49l-114 118h60zM454 757h-49l-115 118h61zM645 0l-90 197h-406l-89 -197h-55l322 700h51l322 -700h-55zM169 240h367l-184 404z" />
    <glyph glyph-name="uni0201" unicode="&#x201;" horiz-adv-x="583" 
d="M228 607h-49l-114 118h60zM381 607h-49l-115 118h61zM282 526q97 0 149 -49.5t52 -145.5v-331h-48v93q-53 -97 -188 -97q-87 0 -137.5 41t-50.5 108q0 65 46.5 105.5t148.5 40.5h179v42q0 73 -39.5 111t-115.5 38q-107 0 -180 -66l-25 36q84 74 209 74zM254 37
q132 0 179 117v98h-178q-146 0 -146 -105q0 -51 38 -80.5t107 -29.5z" />
    <glyph glyph-name="uni0202" unicode="&#x202;" horiz-adv-x="705" 
d="M353 846q-45 0 -75.5 -24.5t-31.5 -64.5h-37q2 56 42.5 89t101.5 33t101.5 -33t42.5 -89h-37q-1 40 -31.5 64.5t-75.5 24.5zM645 0l-90 197h-406l-89 -197h-55l322 700h51l322 -700h-55zM169 240h367l-184 404z" />
    <glyph glyph-name="uni0203" unicode="&#x203;" horiz-adv-x="583" 
d="M280 696q-45 0 -75.5 -24.5t-31.5 -64.5h-37q2 56 42.5 89t101.5 33t101.5 -33t42.5 -89h-37q-1 40 -31.5 64.5t-75.5 24.5zM282 526q97 0 149 -49.5t52 -145.5v-331h-48v93q-53 -97 -188 -97q-87 0 -137.5 41t-50.5 108q0 65 46.5 105.5t148.5 40.5h179v42
q0 73 -39.5 111t-115.5 38q-107 0 -180 -66l-25 36q84 74 209 74zM254 37q132 0 179 117v98h-178q-146 0 -146 -105q0 -51 38 -80.5t107 -29.5z" />
    <glyph glyph-name="uni0204" unicode="&#x204;" horiz-adv-x="669" 
d="M305 757h-49l-114 118h60zM458 757h-49l-115 118h61zM173 46h432v-46h-483v700h468v-46h-417v-276h373v-45h-373v-287z" />
    <glyph glyph-name="uni0205" unicode="&#x205;" horiz-adv-x="597" 
d="M247 607h-49l-114 118h60zM400 607h-49l-115 118h61zM548 263q0 -2 -0.5 -6.5t-0.5 -7.5h-449q4 -93 65.5 -150.5t155.5 -57.5q107 0 167 73l29 -33q-70 -85 -197 -85q-118 0 -193.5 74.5t-75.5 190.5t71 190.5t179 74.5t178.5 -73.5t70.5 -189.5zM299 482
q-83 0 -138.5 -54t-61.5 -140h400q-5 85 -61 139.5t-139 54.5z" />
    <glyph glyph-name="uni0206" unicode="&#x206;" horiz-adv-x="669" 
d="M357 846q-45 0 -75.5 -24.5t-31.5 -64.5h-37q2 56 42.5 89t101.5 33t101.5 -33t42.5 -89h-37q-1 40 -31.5 64.5t-75.5 24.5zM173 46h432v-46h-483v700h468v-46h-417v-276h373v-45h-373v-287z" />
    <glyph glyph-name="uni0207" unicode="&#x207;" horiz-adv-x="597" 
d="M299 696q-45 0 -75.5 -24.5t-31.5 -64.5h-37q2 56 42.5 89t101.5 33t101.5 -33t42.5 -89h-37q-1 40 -31.5 64.5t-75.5 24.5zM548 263q0 -2 -0.5 -6.5t-0.5 -7.5h-449q4 -93 65.5 -150.5t155.5 -57.5q107 0 167 73l29 -33q-70 -85 -197 -85q-118 0 -193.5 74.5
t-75.5 190.5t71 190.5t179 74.5t178.5 -73.5t70.5 -189.5zM299 482q-83 0 -138.5 -54t-61.5 -140h400q-5 85 -61 139.5t-139 54.5z" />
    <glyph glyph-name="uni0208" unicode="&#x208;" horiz-adv-x="295" 
d="M47 757l-114 118h60l103 -118h-49zM200 757l-115 118h61l103 -118h-49zM122 0v700h51v-700h-51z" />
    <glyph glyph-name="uni0209" unicode="&#x209;" horiz-adv-x="261" 
d="M30 607l-114 118h60l103 -118h-49zM183 607l-115 118h61l103 -118h-49zM106 0v522h50v-522h-50z" />
    <glyph glyph-name="uni020A" unicode="&#x20a;" horiz-adv-x="295" 
d="M4 757q2 56 42.5 89t101.5 33t101.5 -33t42.5 -89h-37q-1 40 -31.5 64.5t-75.5 24.5t-75.5 -24.5t-31.5 -64.5h-37zM122 0v700h51v-700h-51z" />
    <glyph glyph-name="uni020B" unicode="&#x20b;" horiz-adv-x="261" 
d="M12 607q0 56 33.5 89t85.5 33t85.5 -33t33.5 -89h-36q0 41 -22.5 65t-60.5 24t-60.5 -24t-22.5 -65h-36zM106 0v522h50v-522h-50z" />
    <glyph glyph-name="uni020C" unicode="&#x20c;" horiz-adv-x="838" 
d="M318 757l-114 118h60l103 -118h-49zM471 757l-115 118h61l103 -118h-49zM419 -5q-157 0 -260.5 101.5t-103.5 253.5t103.5 253.5t260.5 101.5q156 0 260 -101t104 -254t-104 -254t-260 -101zM419 42q134 0 223 87.5t89 220.5t-89 220.5t-223 87.5t-223.5 -87.5
t-89.5 -220.5t89.5 -220.5t223.5 -87.5z" />
    <glyph glyph-name="uni020D" unicode="&#x20d;" horiz-adv-x="620" 
d="M209 607l-114 118h60l103 -118h-49zM362 607l-115 118h61l103 -118h-49zM310 -4q-113 0 -187 74.5t-74 190.5t74 190.5t187 74.5t187 -74.5t74 -190.5t-74 -190.5t-187 -74.5zM310 41q91 0 150.5 61.5t59.5 158.5t-59.5 158.5t-150.5 61.5t-150.5 -61.5t-59.5 -158.5
t59.5 -158.5t150.5 -61.5z" />
    <glyph glyph-name="uni020E" unicode="&#x20e;" horiz-adv-x="838" 
d="M275 757q2 56 42.5 89t101.5 33t101.5 -33t42.5 -89h-37q-1 40 -31.5 64.5t-75.5 24.5t-75.5 -24.5t-31.5 -64.5h-37zM419 -5q-157 0 -260.5 101.5t-103.5 253.5t103.5 253.5t260.5 101.5q156 0 260 -101t104 -254t-104 -254t-260 -101zM419 42q134 0 223 87.5t89 220.5
t-89 220.5t-223 87.5t-223.5 -87.5t-89.5 -220.5t89.5 -220.5t223.5 -87.5z" />
    <glyph glyph-name="uni020F" unicode="&#x20f;" horiz-adv-x="620" 
d="M166 607q2 56 42.5 89t101.5 33t101.5 -33t42.5 -89h-37q-1 40 -31.5 64.5t-75.5 24.5t-75.5 -24.5t-31.5 -64.5h-37zM310 -4q-113 0 -187 74.5t-74 190.5t74 190.5t187 74.5t187 -74.5t74 -190.5t-74 -190.5t-187 -74.5zM310 41q91 0 150.5 61.5t59.5 158.5t-59.5 158.5
t-150.5 61.5t-150.5 -61.5t-59.5 -158.5t59.5 -158.5t150.5 -61.5z" />
    <glyph glyph-name="uni0210" unicode="&#x210;" horiz-adv-x="720" 
d="M316 757h-49l-114 118h60zM469 757h-49l-115 118h61zM666 0h-58l-167 234q-37 -5 -68 -5h-200v-229h-51v700h251q132 0 207 -62.5t75 -173.5q0 -83 -42.5 -139.5t-121.5 -79.5zM173 274h200q112 0 171 49.5t59 140.5t-59 140.5t-171 49.5h-200v-380z" />
    <glyph glyph-name="uni0211" unicode="&#x211;" horiz-adv-x="394" 
d="M178 607h-49l-114 118h60zM331 607h-49l-115 118h61zM154 408q50 118 199 118v-49q-2 0 -6 0.5t-6 0.5q-87 0 -136 -54.5t-49 -151.5v-272h-50v522h48v-114z" />
    <glyph glyph-name="uni0212" unicode="&#x212;" horiz-adv-x="720" 
d="M368 846q-45 0 -75.5 -24.5t-31.5 -64.5h-37q2 56 42.5 89t101.5 33t101.5 -33t42.5 -89h-37q-1 40 -31.5 64.5t-75.5 24.5zM666 0h-58l-167 234q-37 -5 -68 -5h-200v-229h-51v700h251q132 0 207 -62.5t75 -173.5q0 -83 -42.5 -139.5t-121.5 -79.5zM173 274h200
q112 0 171 49.5t59 140.5t-59 140.5t-171 49.5h-200v-380z" />
    <glyph glyph-name="uni0213" unicode="&#x213;" horiz-adv-x="394" 
d="M230 696q-45 0 -75.5 -24.5t-31.5 -64.5h-37q2 56 42.5 89t101.5 33t101.5 -33t42.5 -89h-37q-1 40 -31.5 64.5t-75.5 24.5zM154 408q50 118 199 118v-49q-2 0 -6 0.5t-6 0.5q-87 0 -136 -54.5t-49 -151.5v-272h-50v522h48v-114z" />
    <glyph glyph-name="uni0214" unicode="&#x214;" horiz-adv-x="793" 
d="M296 757l-114 118h60l103 -118h-49zM449 757l-115 118h61l103 -118h-49zM396 -5q-133 0 -206.5 77t-73.5 225v403h51v-401q0 -129 59 -193t171 -64q229 0 229 257v401h51v-403q0 -148 -74 -225t-207 -77z" />
    <glyph glyph-name="uni0215" unicode="&#x215;" horiz-adv-x="669" 
d="M280 607h-49l-114 118h60zM433 607h-49l-115 118h61zM513 522h50v-522h-48v112q-26 -55 -77 -85.5t-120 -30.5q-102 0 -160 57t-58 164v305h50v-301q0 -88 45 -134t127 -46q88 0 139.5 55t51.5 148v278z" />
    <glyph glyph-name="uni0216" unicode="&#x216;" horiz-adv-x="793" 
d="M253 757q2 56 42.5 89t101.5 33t101.5 -33t42.5 -89h-37q-1 40 -31.5 64.5t-75.5 24.5t-75.5 -24.5t-31.5 -64.5h-37zM396 -5q-133 0 -206.5 77t-73.5 225v403h51v-401q0 -129 59 -193t171 -64q229 0 229 257v401h51v-403q0 -148 -74 -225t-207 -77z" />
    <glyph glyph-name="uni0217" unicode="&#x217;" horiz-adv-x="669" 
d="M332 696q-45 0 -75.5 -24.5t-31.5 -64.5h-37q2 56 42.5 89t101.5 33t101.5 -33t42.5 -89h-37q-1 40 -31.5 64.5t-75.5 24.5zM513 522h50v-522h-48v112q-26 -55 -77 -85.5t-120 -30.5q-102 0 -160 57t-58 164v305h50v-301q0 -88 45 -134t127 -46q88 0 139.5 55t51.5 148
v278z" />
    <glyph glyph-name="Scommaaccent" unicode="&#x218;" horiz-adv-x="609" 
d="M121 520q0 -49 32.5 -80.5t81 -44.5l105 -28.5t105 -32t81 -56t32.5 -98.5q0 -80 -64.5 -132.5t-187.5 -52.5q-77 0 -146.5 26.5t-108.5 68.5l23 38q37 -39 99.5 -63.5t131.5 -24.5q100 0 151 38t51 99q0 42 -24 71t-62.5 44t-85.5 26t-93.5 24.5t-85 32.5t-62.5 55.5
t-24 88.5q0 80 63 133t185 53q124 0 211 -63l-19 -41q-86 59 -192 59q-97 0 -147 -39t-50 -101zM320 -112q16 0 26 -10.5t10 -23.5q0 -18 -9 -40l-26 -75h-30l20 82q-27 7 -27 33q0 14 10 24t26 10z" />
    <glyph glyph-name="scommaaccent" unicode="&#x219;" horiz-adv-x="478" 
d="M98 384q0 -43 35.5 -66t86.5 -31.5t102 -19.5t86.5 -42t35.5 -86q0 -65 -54 -104t-152 -39q-63 0 -120 19t-89 48l23 40q32 -27 82.5 -45t105.5 -18q154 0 154 98q0 35 -25.5 56.5t-64 29t-83.5 17.5t-83.5 21.5t-64 42t-25.5 78.5q0 62 51.5 102.5t146.5 40.5
q50 0 99 -14t80 -37l-23 -40q-65 47 -157 47q-73 0 -110 -27t-37 -71zM238 -112q16 0 26 -10.5t10 -23.5q0 -18 -9 -40l-26 -75h-30l20 82q-27 7 -27 33q0 14 10 24t26 10z" />
    <glyph glyph-name="uni021A" unicode="&#x21a;" horiz-adv-x="563" 
d="M4 700h555v-46h-252v-654h-51v654h-252v46zM282 -112q16 0 26 -10.5t10 -23.5q0 -18 -9 -40l-26 -75h-30l20 82q-27 7 -27 33q0 14 10 24t26 10z" />
    <glyph glyph-name="uni021B" unicode="&#x21b;" horiz-adv-x="398" 
d="M365 33q-38 -37 -107 -37q-68 0 -105 37.5t-37 104.5v341h-96v43h96v114h50v-114h166v-43h-166v-336q0 -104 97 -104q49 0 81 29zM246 -112q16 0 26 -10.5t10 -23.5q0 -18 -9 -40l-26 -75h-30l20 82q-27 7 -27 33q0 14 10 24t26 10z" />
    <glyph glyph-name="uni021E" unicode="&#x21e;" horiz-adv-x="814" 
d="M435 757h-56l-126 118h50l104 -86l104 86h50zM641 700h51v-700h-51v333h-468v-333h-51v700h51v-322h468v322z" />
    <glyph glyph-name="uni021F" unicode="&#x21f;" horiz-adv-x="673" 
d="M285 945l-126 -118h-56l-126 118h50l104 -86l104 86h50zM361 526q98 0 155 -57t57 -164v-305h-50v301q0 88 -44.5 134t-124.5 46q-92 0 -145 -55t-53 -148v-278h-50v742h50v-329q27 54 80 83.5t125 29.5z" />
    <glyph glyph-name="uni022A" unicode="&#x22a;" horiz-adv-x="838" 
d="M272 908v34h294v-34h-294zM334 784q-15 0 -25.5 10.5t-10.5 25.5q0 14 10.5 24.5t25.5 10.5q14 0 24.5 -10.5t10.5 -24.5q0 -15 -10.5 -25.5t-24.5 -10.5zM505 784q-14 0 -25 10.5t-11 25.5q0 14 11 24.5t25 10.5t24.5 -10.5t10.5 -24.5q0 -15 -10.5 -25.5t-24.5 -10.5z
M419 -5q-157 0 -260.5 101.5t-103.5 253.5t103.5 253.5t260.5 101.5q156 0 260 -101t104 -254t-104 -254t-260 -101zM419 42q134 0 223 87.5t89 220.5t-89 220.5t-223 87.5t-223.5 -87.5t-89.5 -220.5t89.5 -220.5t223.5 -87.5z" />
    <glyph glyph-name="uni022B" unicode="&#x22b;" horiz-adv-x="620" 
d="M163 758v34h294v-34h-294zM225 634q-15 0 -25.5 10.5t-10.5 25.5q0 14 10.5 24.5t25.5 10.5q14 0 24.5 -10.5t10.5 -24.5q0 -15 -10.5 -25.5t-24.5 -10.5zM396 634q-14 0 -25 10.5t-11 25.5q0 14 11 24.5t25 10.5t24.5 -10.5t10.5 -24.5q0 -15 -10.5 -25.5t-24.5 -10.5z
M310 -4q-113 0 -187 74.5t-74 190.5t74 190.5t187 74.5t187 -74.5t74 -190.5t-74 -190.5t-187 -74.5zM310 41q91 0 150.5 61.5t59.5 158.5t-59.5 158.5t-150.5 61.5t-150.5 -61.5t-59.5 -158.5t59.5 -158.5t150.5 -61.5z" />
    <glyph glyph-name="uni022C" unicode="&#x22c;" horiz-adv-x="838" 
d="M272 908v34h294v-34h-294zM484 768q-31 0 -70.5 27t-57.5 27q-48 0 -50 -51h-33q1 39 23 61.5t59 22.5q31 0 69.5 -27t57.5 -27q49 0 51 49h32q-1 -37 -23 -59.5t-58 -22.5zM419 -5q-157 0 -260.5 101.5t-103.5 253.5t103.5 253.5t260.5 101.5q156 0 260 -101t104 -254
t-104 -254t-260 -101zM419 42q134 0 223 87.5t89 220.5t-89 220.5t-223 87.5t-223.5 -87.5t-89.5 -220.5t89.5 -220.5t223.5 -87.5z" />
    <glyph glyph-name="uni022D" unicode="&#x22d;" horiz-adv-x="620" 
d="M163 758v34h294v-34h-294zM375 618q-31 0 -70.5 27t-57.5 27q-48 0 -50 -51h-33q1 39 23 61.5t59 22.5q30 0 69 -27t58 -27q49 0 51 49h32q-1 -37 -23 -59.5t-58 -22.5zM310 -4q-113 0 -187 74.5t-74 190.5t74 190.5t187 74.5t187 -74.5t74 -190.5t-74 -190.5t-187 -74.5
zM310 41q91 0 150.5 61.5t59.5 158.5t-59.5 158.5t-150.5 61.5t-150.5 -61.5t-59.5 -158.5t59.5 -158.5t150.5 -61.5z" />
    <glyph glyph-name="uni0230" unicode="&#x230;" horiz-adv-x="838" 
d="M272 910v34h294v-34h-294zM419 784q-15 0 -25.5 10.5t-10.5 25.5t10.5 25.5t25.5 10.5t25.5 -10.5t10.5 -25.5t-10.5 -25.5t-25.5 -10.5zM419 -5q-157 0 -260.5 101.5t-103.5 253.5t103.5 253.5t260.5 101.5q156 0 260 -101t104 -254t-104 -254t-260 -101zM419 42
q134 0 223 87.5t89 220.5t-89 220.5t-223 87.5t-223.5 -87.5t-89.5 -220.5t89.5 -220.5t223.5 -87.5z" />
    <glyph glyph-name="uni0231" unicode="&#x231;" horiz-adv-x="620" 
d="M163 760v34h294v-34h-294zM310 634q-15 0 -25.5 10.5t-10.5 25.5t10.5 25.5t25.5 10.5t25.5 -10.5t10.5 -25.5t-10.5 -25.5t-25.5 -10.5zM310 -4q-113 0 -187 74.5t-74 190.5t74 190.5t187 74.5t187 -74.5t74 -190.5t-74 -190.5t-187 -74.5zM310 41q91 0 150.5 61.5
t59.5 158.5t-59.5 158.5t-150.5 61.5t-150.5 -61.5t-59.5 -158.5t59.5 -158.5t150.5 -61.5z" />
    <glyph glyph-name="uni0232" unicode="&#x232;" horiz-adv-x="625" 
d="M459 834v-36h-294v36h294zM620 700l-282 -459v-241h-51v241l-282 459h56l253 -412l253 412h53z" />
    <glyph glyph-name="uni0233" unicode="&#x233;" horiz-adv-x="528" 
d="M397 684v-36h-294v36h294zM474 522h51l-268 -593q-30 -69 -69.5 -98t-93.5 -29q-76 0 -121 47l25 38q40 -41 97 -41q38 0 65 21t50 72l28 63l-235 520h53l209 -467z" />
    <glyph glyph-name="uni0237" unicode="&#x237;" horiz-adv-x="266" 
d="M20 -198q-72 0 -108 35l20 37q32 -29 85 -29q46 0 70 27t24 78v572h50v-574q0 -67 -37 -106.5t-104 -39.5z" />
    <glyph glyph-name="uni0259" unicode="&#x259;" horiz-adv-x="597" 
d="M279 526q118 0 193.5 -74.5t75.5 -190.5t-71 -190.5t-179 -74.5t-178.5 73.5t-70.5 189.5q0 2 0.5 6.5t0.5 7.5h449q-4 93 -65.5 150.5t-155.5 57.5q-107 0 -167 -73l-29 33q70 85 197 85zM298 40q83 0 138.5 54t61.5 140h-400q5 -85 61 -139.5t139 -54.5z" />
    <glyph glyph-name="uni0292" unicode="&#x292;" horiz-adv-x="503" 
d="M225 209q117 -2 178 -56.5t61 -145.5q0 -92 -63 -149t-180 -57q-77 0 -143 26.5t-102 69.5l23 39q33 -40 91.5 -64.5t129.5 -24.5q93 0 143 42.5t50 117.5t-51 117.5t-152 42.5h-44v36l209 274h-375v45h437v-36z" />
    <glyph glyph-name="uni02B9" unicode="&#x2b9;" horiz-adv-x="194" 
d="M78 442l-4 258h46l-4 -258h-38z" />
    <glyph glyph-name="uni02BA" unicode="&#x2ba;" horiz-adv-x="357" 
d="M78 442l-4 258h46l-4 -258h-38zM240 442l-4 258h46l-4 -258h-38z" />
    <glyph glyph-name="uni02BB" unicode="&#x2bb;" horiz-adv-x="261" 
d="M135 681q32 -8 32 -41q0 -18 -12 -30t-29 -12q-18 0 -30 12t-12 30t9 46l39 136h35z" />
    <glyph glyph-name="uni02BC" unicode="&#x2bc;" horiz-adv-x="165" 
d="M61 440l5 260h38l-11 -260h-32z" />
    <glyph glyph-name="uni02BE" unicode="&#x2be;" horiz-adv-x="600" 
d="M299 596v29q31 0 50.5 19.5t19.5 48.5q0 30 -20 50.5t-50 20.5v29q43 0 71.5 -29.5t28.5 -70.5t-28.5 -69t-71.5 -28z" />
    <glyph glyph-name="uni02BF" unicode="&#x2bf;" horiz-adv-x="600" 
d="M299 596q-43 0 -71.5 28.5t-28.5 68.5q0 41 28.5 70.5t71.5 29.5v-29q-30 0 -49.5 -20.5t-19.5 -50.5q0 -29 19 -48.5t50 -19.5v-29z" />
    <glyph glyph-name="circumflex" unicode="&#x2c6;" horiz-adv-x="600" 
d="M454 607h-50l-104 87l-104 -87h-50l126 118h56z" />
    <glyph glyph-name="caron" unicode="&#x2c7;" horiz-adv-x="600" 
d="M404 725h50l-126 -118h-56l-126 118h50l104 -86z" />
    <glyph glyph-name="uni02C8" unicode="&#x2c8;" horiz-adv-x="161" 
d="M61 515v184h39v-184h-39z" />
    <glyph glyph-name="uni02C9" unicode="&#x2c9;" horiz-adv-x="600" 
d="M153 648v36h294v-36h-294z" />
    <glyph glyph-name="uni02CA" unicode="&#x2ca;" horiz-adv-x="600" 
d="M243 607l139 118h72l-157 -118h-54z" />
    <glyph glyph-name="uni02CB" unicode="&#x2cb;" horiz-adv-x="600" 
d="M303 607l-157 118h72l139 -118h-54z" />
    <glyph glyph-name="uni02CC" unicode="&#x2cc;" horiz-adv-x="161" 
d="M61 -214v184h39v-184h-39z" />
    <glyph glyph-name="breve" unicode="&#x2d8;" horiz-adv-x="600" 
d="M300 603q-61 0 -101.5 33t-42.5 89h37q1 -40 31.5 -64.5t75.5 -24.5t75.5 24.5t31.5 64.5h37q-2 -56 -42.5 -89t-101.5 -33z" />
    <glyph glyph-name="dotaccent" unicode="&#x2d9;" horiz-adv-x="600" 
d="M300 635q-16 0 -27.5 11.5t-11.5 27.5t11.5 27.5t27.5 11.5t27.5 -11.5t11.5 -27.5t-11.5 -27.5t-27.5 -11.5z" />
    <glyph glyph-name="ring" unicode="&#x2da;" horiz-adv-x="600" 
d="M299 596q-42 0 -70.5 28.5t-28.5 68.5q0 41 28.5 70.5t70.5 29.5t71 -29.5t29 -70.5q0 -40 -28.5 -68.5t-71.5 -28.5zM299 624q30 0 50 20t20 49q0 30 -20 50.5t-50 20.5t-49.5 -20.5t-19.5 -50.5t19.5 -49.5t49.5 -19.5z" />
    <glyph glyph-name="ogonek" unicode="&#x2db;" horiz-adv-x="600" 
d="M240 -217q-46 0 -74 24.5t-28 65.5q0 89 139 149l24 -22q-124 -54 -124 -124q0 -29 19 -44.5t49 -15.5q36 0 62 21l14 -29q-34 -25 -81 -25z" />
    <glyph glyph-name="tilde" unicode="&#x2dc;" horiz-adv-x="600" 
d="M366 615q-32 0 -71 34.5t-58 34.5q-23 0 -37 -17.5t-16 -47.5h-33q2 45 24 72.5t59 27.5q32 0 71 -34.5t58 -34.5q23 0 37 17t16 46h33q-2 -44 -24.5 -71t-58.5 -27z" />
    <glyph glyph-name="hungarumlaut" unicode="&#x2dd;" horiz-adv-x="600" 
d="M199 607l103 118h61l-115 -118h-49zM352 607l103 118h60l-114 -118h-49z" />
    <glyph glyph-name="gravecomb" unicode="&#x300;" 
d="M-297 607l-157 118h72l139 -118h-54z" />
    <glyph glyph-name="acutecomb" unicode="&#x301;" 
d="M-357 607l139 118h72l-157 -118h-54z" />
    <glyph glyph-name="uni0302" unicode="&#x302;" 
d="M-146 607h-50l-104 87l-104 -87h-50l126 118h56z" />
    <glyph glyph-name="tildecomb" unicode="&#x303;" 
d="M-234 615q-32 0 -71 34.5t-58 34.5q-23 0 -37 -17.5t-16 -47.5h-33q2 45 24 72.5t59 27.5q32 0 71 -34.5t58 -34.5q23 0 37 17t16 46h33q-2 -44 -24.5 -71t-58.5 -27z" />
    <glyph glyph-name="uni0304" unicode="&#x304;" 
d="M-447 648v36h294v-36h-294z" />
    <glyph glyph-name="uni0306" unicode="&#x306;" 
d="M-300 603q-61 0 -101.5 33t-42.5 89h37q1 -40 31.5 -64.5t75.5 -24.5t75.5 24.5t31.5 64.5h37q-2 -56 -42.5 -89t-101.5 -33z" />
    <glyph glyph-name="uni0307" unicode="&#x307;" 
d="M-300 635q-16 0 -27.5 11.5t-11.5 27.5t11.5 27.5t27.5 11.5t27.5 -11.5t11.5 -27.5t-11.5 -27.5t-27.5 -11.5z" />
    <glyph glyph-name="uni0308" unicode="&#x308;" 
d="M-386 634q-15 0 -25.5 10.5t-10.5 25.5q0 16 10.5 26t25.5 10t25.5 -10.5t10.5 -25.5t-11 -25.5t-25 -10.5zM-214 634q-14 0 -25 10.5t-11 25.5t10.5 25.5t25.5 10.5t25.5 -10t10.5 -26q0 -15 -10.5 -25.5t-25.5 -10.5z" />
    <glyph glyph-name="hookabovecomb" unicode="&#x309;" 
d="M-291 601l-19 25q60 27 60 73q0 23 -15.5 37t-40.5 14q-32 0 -61 -19l-13 28q30 24 77 24q40 0 64 -21.5t24 -58.5q0 -65 -76 -102z" />
    <glyph glyph-name="uni030A" unicode="&#x30a;" 
d="M-301 596q-42 0 -70.5 28.5t-28.5 68.5q0 41 28.5 70.5t70.5 29.5t71 -29.5t29 -70.5q0 -40 -28.5 -68.5t-71.5 -28.5zM-301 624q30 0 50 20t20 49q0 30 -20 50.5t-50 20.5t-49.5 -20.5t-19.5 -50.5t19.5 -49.5t49.5 -19.5z" />
    <glyph glyph-name="uni030B" unicode="&#x30b;" 
d="M-401 607l103 118h61l-115 -118h-49zM-248 607l103 118h60l-114 -118h-49z" />
    <glyph glyph-name="uni030C" unicode="&#x30c;" 
d="M-196 725h50l-126 -118h-56l-126 118h50l104 -86z" />
    <glyph glyph-name="uni030F" unicode="&#x30f;" 
d="M-401 607l-114 118h60l103 -118h-49zM-248 607l-115 118h61l103 -118h-49z" />
    <glyph glyph-name="uni0311" unicode="&#x311;" 
d="M-444 607q2 56 42.5 89t101.5 33t101.5 -33t42.5 -89h-37q-1 40 -31.5 64.5t-75.5 24.5t-75.5 -24.5t-31.5 -64.5h-37z" />
    <glyph glyph-name="uni0312" unicode="&#x312;" 
d="M-290 669q28 -7 28 -32q0 -15 -10.5 -24.5t-27.5 -9.5t-27.5 10t-10.5 24q0 10 9 37l32 98h32z" />
    <glyph glyph-name="uni031B" unicode="&#x31b;" 
d="M-313 482v40h13q35 0 51.5 19t16.5 49q0 33 -20 66l35 14q24 -38 24 -80q0 -49 -27 -78.5t-80 -29.5h-13z" />
    <glyph glyph-name="dotbelowcomb" unicode="&#x323;" 
d="M-300 -184q-15 0 -25.5 10t-10.5 26q0 15 10.5 25.5t25.5 10.5t25.5 -10.5t10.5 -25.5q0 -16 -10.5 -26t-25.5 -10z" />
    <glyph glyph-name="uni0324" unicode="&#x324;" 
d="M-380 -183q-14 0 -24.5 10.5t-10.5 25.5q0 14 10.5 24.5t24.5 10.5q15 0 25.5 -10.5t10.5 -24.5q0 -15 -10.5 -25.5t-25.5 -10.5zM-220 -183q-15 0 -25.5 10.5t-10.5 25.5q0 14 10.5 24.5t25.5 10.5q14 0 24.5 -10.5t10.5 -24.5q0 -15 -10.5 -25.5t-24.5 -10.5z" />
    <glyph glyph-name="uni0326" unicode="&#x326;" 
d="M-300 -112q16 0 26 -10.5t10 -23.5q0 -18 -9 -40l-26 -75h-30l20 82q-27 7 -27 33q0 14 10 24t26 10z" />
    <glyph glyph-name="uni0327" unicode="&#x327;" 
d="M-320 -217q-47 0 -79 25l14 28q27 -21 65 -21q30 0 48 14t18 39q0 23 -17 37t-49 14h-20l23 87h33l-16 -60q40 -3 62.5 -24.5t22.5 -55.5q0 -38 -29.5 -60.5t-75.5 -22.5z" />
    <glyph glyph-name="uni0328" unicode="&#x328;" 
d="M-360 -217q-46 0 -74 24.5t-28 65.5q0 89 139 149l24 -22q-124 -54 -124 -124q0 -29 19 -44.5t49 -15.5q36 0 62 21l14 -29q-34 -25 -81 -25z" />
    <glyph glyph-name="uni032E" unicode="&#x32e;" 
d="M-300 -202q-61 0 -101.5 31.5t-42.5 84.5h36q1 -38 31.5 -61t76.5 -23t76.5 23t31.5 61h36q-2 -53 -42.5 -84.5t-101.5 -31.5z" />
    <glyph glyph-name="uni0331" unicode="&#x331;" 
d="M-447 -165v36h294v-36h-294z" />
    <glyph glyph-name="uni0335" unicode="&#x335;" 
d="M-493 421v38h386v-38h-386z" />
    <glyph glyph-name="uni0336" unicode="&#x336;" 
d="M-809 419v42h789v-42h-789z" />
    <glyph glyph-name="uni0337" unicode="&#x337;" 
d="M-287 282l-23 31l221 166l24 -31z" />
    <glyph glyph-name="uni0338" unicode="&#x338;" 
d="M-547 -70l444 662h38l-444 -662h-38z" />
    <glyph glyph-name="uni0394" unicode="&#x394;" horiz-adv-x="705" 
d="M378 700l322 -700h-695l322 700h51zM352 644l-273 -598h545z" />
    <glyph glyph-name="uni03A9" unicode="&#x3a9;" horiz-adv-x="905" 
d="M10 0v46h246q-81 52 -124 133t-43 175q0 152 104 251.5t260 99.5t259.5 -99.5t103.5 -251.5q0 -94 -43 -175t-124 -133h247v-46h-331v43q97 50 148.5 131t51.5 178q0 132 -88.5 219t-223.5 87t-223.5 -86.5t-88.5 -219.5q0 -97 51 -178.5t148 -130.5v-43h-330z" />
    <glyph glyph-name="uni03BC" unicode="&#x3bc;" horiz-adv-x="675" 
d="M519 522h50v-522h-48v113q-53 -117 -192 -117q-124 0 -173 88v-278h-50v716h50v-301q0 -88 45 -134t127 -46q88 0 139.5 55t51.5 148v278z" />
    <glyph glyph-name="pi" unicode="&#x3c0;" horiz-adv-x="720" 
d="M713 522l-1 -43h-168v-479h-50v479h-205l-56 -479h-50l56 479h-69q-64 0 -95.5 -29.5t-31.5 -81.5q0 -45 31 -87l-39 -15q-38 46 -38 108q0 65 44.5 106.5t124.5 41.5h547z" />
    <glyph glyph-name="uni0400" unicode="&#x400;" horiz-adv-x="653" 
d="M418 757h-54l-157 118h72zM177 46h432v-46h-483v700h468v-46h-417v-276h373v-45h-373v-287z" />
    <glyph glyph-name="uni0401" unicode="&#x401;" horiz-adv-x="653" 
d="M275 784q-15 0 -25.5 10.5t-10.5 25.5q0 16 10.5 26t25.5 10t25.5 -10.5t10.5 -25.5t-11 -25.5t-25 -10.5zM447 784q-14 0 -25 10.5t-11 25.5t10.5 25.5t25.5 10.5t25.5 -10t10.5 -26q0 -15 -10.5 -25.5t-25.5 -10.5zM177 46h432v-46h-483v700h468v-46h-417v-276h373v-45
h-373v-287z" />
    <glyph glyph-name="uni0402" unicode="&#x402;" horiz-adv-x="819" 
d="M314 369q117 49 224 49t171 -53.5t64 -156.5q0 -105 -64 -158.5t-161 -53.5q-37 0 -84 10l8 45q36 -9 73 -9q77 0 127 41.5t50 123.5q0 83 -52 125t-140 42q-100 0 -216 -52v-322h-51v654h-252v46h573v-46h-270v-285z" />
    <glyph glyph-name="uni0403" unicode="&#x403;" horiz-adv-x="568" 
d="M489 875l-157 -118h-54l139 118h72zM559 700v-46h-382v-654h-51v700h433z" />
    <glyph glyph-name="uni0404" unicode="&#x404;" horiz-adv-x="706" 
d="M410 42q137 0 224 84l32 -33q-93 -98 -258 -98q-147 0 -245.5 101t-98.5 254t98.5 254t245.5 101q165 0 258 -97l-32 -34q-85 84 -224 84q-122 0 -205.5 -83.5t-88.5 -210.5h379v-43h-378q10 -121 92.5 -200t200.5 -79z" />
    <glyph glyph-name="uni0405" unicode="&#x405;" horiz-adv-x="620" 
d="M312 -5q-77 0 -146.5 26.5t-108.5 68.5l23 38q37 -39 99.5 -63.5t131.5 -24.5q100 0 151 38t51 99q0 42 -24 71t-62.5 44t-85.5 26t-93.5 24.5t-85 32.5t-62.5 55.5t-24 88.5q0 80 63 133t185 53q124 0 211 -63l-19 -41q-86 59 -192 59q-97 0 -147 -39t-50 -101
q0 -49 32.5 -80.5t81 -44.5l105 -28.5t105 -32t81 -56t32.5 -98.5q0 -80 -64.5 -132.5t-187.5 -52.5z" />
    <glyph glyph-name="uni0406" unicode="&#x406;" horiz-adv-x="303" 
d="M126 0v700h51v-700h-51z" />
    <glyph glyph-name="uni0407" unicode="&#x407;" horiz-adv-x="295" 
d="M61 784q-14 0 -25 10.5t-11 25.5t10.5 25.5t25.5 10.5t25.5 -10t10.5 -26q0 -15 -10.5 -25.5t-25.5 -10.5zM234 784q-15 0 -25.5 10.5t-10.5 25.5q0 16 10.5 26t25.5 10t25.5 -10t10.5 -26q0 -15 -10.5 -25.5t-25.5 -10.5zM122 0v700h51v-700h-51z" />
    <glyph glyph-name="uni0408" unicode="&#x408;" horiz-adv-x="516" 
d="M210 -5q-57 0 -106.5 26.5t-79.5 73.5l31 34q59 -88 155 -88q139 0 139 165v448h-258v46h309v-494q0 -211 -190 -211z" />
    <glyph glyph-name="uni0409" unicode="&#x409;" horiz-adv-x="1186" 
d="M885 444q124 0 188.5 -55t64.5 -163q0 -111 -68.5 -168.5t-197.5 -57.5h-268v654h-362l-9 -257q-8 -215 -47.5 -309t-126.5 -94q-27 0 -50 6l6 47q17 -4 33 -4q68 0 99 81.5t39 271.5l10 304h459v-256h230zM873 43q213 0 213 182q0 176 -213 176h-218v-358h218z" />
    <glyph glyph-name="uni040A" unicode="&#x40a;" horiz-adv-x="1187" 
d="M908 407q112 0 174.5 -52t62.5 -146q0 -98 -66.5 -153.5t-183.5 -55.5h-267v360h-451v-360h-51v700h51v-294h451v294h51v-293h229zM894 43q94 0 146.5 43t52.5 120q0 76 -51.5 117t-147.5 41h-215v-321h215z" />
    <glyph glyph-name="uni040B" unicode="&#x40b;" horiz-adv-x="830" 
d="M535 418q110 0 173.5 -55.5t63.5 -161.5v-201h-51v196q0 85 -51.5 130.5t-142.5 45.5q-93 0 -214 -54v-318h-51v654h-252v46h571v-46h-268v-287q118 51 222 51z" />
    <glyph glyph-name="uni040C" unicode="&#x40c;" horiz-adv-x="695" 
d="M500 875l-157 -118h-54l139 118h72zM612 0l-267 332h-168v-332h-51v700h51v-322h169l251 322h57l-268 -341l286 -359h-60z" />
    <glyph glyph-name="uni040D" unicode="&#x40d;" horiz-adv-x="825" 
d="M413 757l-157 118h72l139 -118h-54zM126 0v700h51v-614l477 614h45v-700h-51v613l-477 -613h-45z" />
    <glyph glyph-name="uni040E" unicode="&#x40e;" horiz-adv-x="671" 
d="M327 753q-70 0 -112.5 32.5t-43.5 89.5h41q1 -42 32.5 -66t82.5 -24q50 0 81.5 24t32.5 66h41q-1 -57 -43.5 -89.5t-111.5 -32.5zM603 700h53l-323 -598q-61 -114 -164 -114q-37 0 -80 18l16 42q34 -14 64 -14q71 0 118 79l24 41l-287 546h56l259 -498z" />
    <glyph glyph-name="uni040F" unicode="&#x40f;" horiz-adv-x="805" 
d="M679 700v-700h-252v-169h-49v169h-252v700h51v-654h451v654h51z" />
    <glyph glyph-name="uni0410" unicode="&#x410;" horiz-adv-x="733" 
d="M659 0l-90 197h-406l-89 -197h-55l322 700h51l322 -700h-55zM183 240h367l-184 404z" />
    <glyph glyph-name="uni0411" unicode="&#x411;" horiz-adv-x="723" 
d="M126 0v700h499v-45h-448v-252h237q123 0 187 -50t64 -147q0 -100 -68 -153t-197 -53h-274zM177 43h224q213 0 213 161q0 157 -213 157h-224v-318z" />
    <glyph glyph-name="uni0412" unicode="&#x412;" horiz-adv-x="750" 
d="M520 360q157 -27 157 -174q0 -90 -63 -138t-187 -48h-301v700h282q110 0 171.5 -46t61.5 -132q0 -123 -121 -162zM177 657v-281h230q88 0 135 36t47 104q0 69 -47 105t-135 36h-230zM428 43q198 0 198 146q0 145 -198 145h-251v-291h251z" />
    <glyph glyph-name="uni0413" unicode="&#x413;" horiz-adv-x="568" 
d="M559 700v-46h-382v-654h-51v700h433z" />
    <glyph glyph-name="uni0414" unicode="&#x414;" horiz-adv-x="786" 
d="M641 46h108v-206h-49v160h-640l-1 -160h-49l1 206h38q69 6 96.5 116t33.5 308l7 230h455v-654zM226 466q-6 -170 -26.5 -278t-69.5 -142h460v608h-358z" />
    <glyph glyph-name="uni0415" unicode="&#x415;" horiz-adv-x="653" 
d="M177 46h432v-46h-483v700h468v-46h-417v-276h373v-45h-373v-287z" />
    <glyph glyph-name="uni0416" unicode="&#x416;" horiz-adv-x="996" 
d="M908 0l-231 332h-154v-332h-50v332h-154l-231 -332h-61l250 360l-231 340h58l214 -322h155v322h50v-322h154l215 322h57l-230 -340l250 -360h-61z" />
    <glyph glyph-name="uni0417" unicode="&#x417;" horiz-adv-x="631" 
d="M406 366q71 -16 111.5 -61t40.5 -109q0 -92 -78.5 -146.5t-188.5 -54.5q-150 0 -254 95l21 36q92 -86 227 -86q92 0 156.5 44t64.5 118q0 67 -52 103.5t-146 36.5h-144v44h142q80 0 125 34.5t45 95.5q0 68 -56.5 107.5t-140.5 39.5q-108 0 -201 -61l-19 43q103 64 221 64
q105 0 176.5 -51t71.5 -136q0 -57 -32.5 -98t-89.5 -58z" />
    <glyph glyph-name="uni0418" unicode="&#x418;" horiz-adv-x="825" 
d="M126 0v700h51v-614l477 614h45v-700h-51v613l-477 -613h-45z" />
    <glyph glyph-name="uni0419" unicode="&#x419;" horiz-adv-x="825" 
d="M410 753q-70 0 -112.5 32.5t-43.5 89.5h41q1 -42 32.5 -66t82.5 -24q50 0 81.5 24t32.5 66h41q-1 -57 -43.5 -89.5t-111.5 -32.5zM126 0v700h51v-614l477 614h45v-700h-51v613l-477 -613h-45z" />
    <glyph glyph-name="uni041A" unicode="&#x41a;" horiz-adv-x="695" 
d="M612 0l-267 332h-168v-332h-51v700h51v-322h169l251 322h57l-268 -341l286 -359h-60z" />
    <glyph glyph-name="uni041B" unicode="&#x41b;" horiz-adv-x="781" 
d="M196 700h459v-700h-51v654h-362l-9 -257q-8 -215 -47.5 -309t-126.5 -94q-27 0 -50 6l6 47q17 -4 33 -4q68 0 99 81.5t39 271.5z" />
    <glyph glyph-name="uni041C" unicode="&#x41c;" horiz-adv-x="964" 
d="M838 0h-50l-1 599l-293 -506h-25l-293 504v-597h-50v700h43l313 -541l313 541h42z" />
    <glyph glyph-name="uni041D" unicode="&#x41d;" horiz-adv-x="822" 
d="M645 700h51v-700h-51v333h-468v-333h-51v700h51v-322h468v322z" />
    <glyph glyph-name="uni041E" unicode="&#x41e;" horiz-adv-x="853" 
d="M426 -5q-157 0 -260.5 101.5t-103.5 253.5t103.5 253.5t260.5 101.5q156 0 260 -101t104 -254t-104 -254t-260 -101zM426 42q134 0 223 87.5t89 220.5t-89 220.5t-223 87.5t-223.5 -87.5t-89.5 -220.5t89.5 -220.5t223.5 -87.5z" />
    <glyph glyph-name="uni041F" unicode="&#x41f;" horiz-adv-x="828" 
d="M126 700h576v-700h-51v654h-474v-654h-51v700z" />
    <glyph glyph-name="uni0420" unicode="&#x420;" horiz-adv-x="706" 
d="M377 700q132 0 207 -62.5t75 -173.5q0 -110 -75 -172.5t-207 -62.5h-200v-229h-51v700h251zM377 275q112 0 171 49t59 140t-59 140.5t-171 49.5h-200v-379h200z" />
    <glyph glyph-name="uni0421" unicode="&#x421;" horiz-adv-x="714" 
d="M426 -5q-156 0 -259.5 101t-103.5 254t103.5 254t259.5 101q158 0 249 -97l-32 -33q-84 83 -215 83q-134 0 -224 -88t-90 -220t90 -220t224 -88q130 0 215 84l32 -33q-92 -98 -249 -98z" />
    <glyph glyph-name="uni0422" unicode="&#x422;" horiz-adv-x="575" 
d="M565 700v-46h-252v-654h-51v654h-252v46h555z" />
    <glyph glyph-name="uni0423" unicode="&#x423;" horiz-adv-x="671" 
d="M603 700h53l-323 -598q-61 -114 -164 -114q-37 0 -80 18l16 42q34 -14 64 -14q71 0 118 79l24 41l-287 546h56l259 -498z" />
    <glyph glyph-name="uni0424" unicode="&#x424;" horiz-adv-x="909" 
d="M855 350q0 -139 -100 -218t-276 -83v-71h-49v71q-176 4 -276 83t-100 218q0 140 100 219t276 83v70h49v-70q177 -5 276.5 -84t99.5 -218zM479 91q154 5 240 72.5t86 187.5q0 119 -86 186.5t-240 72.5v-519zM104 350q0 -120 86 -187t240 -72v519q-155 -5 -240.5 -72.5
t-85.5 -187.5z" />
    <glyph glyph-name="uni0425" unicode="&#x425;" horiz-adv-x="635" 
d="M45 700h60l211 -295l212 295h61l-241 -337l260 -363h-61l-231 320l-229 -320h-60l258 362z" />
    <glyph glyph-name="uni0426" unicode="&#x426;" horiz-adv-x="824" 
d="M679 46h113v-215h-48v169h-618v700h51v-654h451v654h51v-654z" />
    <glyph glyph-name="uni0427" unicode="&#x427;" horiz-adv-x="726" 
d="M549 700h51v-700h-51v300q-121 -53 -233 -53q-119 0 -185.5 57.5t-66.5 161.5v234h51v-229q0 -84 54 -131t151 -47q107 0 229 54v353z" />
    <glyph glyph-name="uni0428" unicode="&#x428;" horiz-adv-x="1093" 
d="M916 700h51v-700h-841v700h51v-654h344v654h51v-654h344v654z" />
    <glyph glyph-name="uni0429" unicode="&#x429;" horiz-adv-x="1113" 
d="M967 46h113v-206h-48v160h-906v700h51v-654h344v654h51v-654h344v654h51v-654z" />
    <glyph glyph-name="uni042A" unicode="&#x42a;" horiz-adv-x="814" 
d="M514 444q123 0 187.5 -55t64.5 -163q0 -111 -68.5 -168.5t-197.5 -57.5h-267v654h-223v46h274v-256h230zM501 43q105 0 159.5 46t54.5 136q0 176 -214 176h-217v-358h217z" />
    <glyph glyph-name="uni042B" unicode="&#x42b;" horiz-adv-x="966" 
d="M407 444q124 0 188.5 -55t64.5 -163q0 -111 -68.5 -168.5t-197.5 -57.5h-268v700h51v-256h230zM789 0v700h51v-700h-51zM395 43q213 0 213 182q0 176 -213 176h-218v-358h218z" />
    <glyph glyph-name="uni042C" unicode="&#x42c;" horiz-adv-x="708" 
d="M407 444q124 0 188.5 -55t64.5 -163q0 -111 -68.5 -168.5t-197.5 -57.5h-268v700h51v-256h230zM395 43q213 0 213 182q0 176 -213 176h-218v-358h218z" />
    <glyph glyph-name="uni042D" unicode="&#x42d;" horiz-adv-x="705" 
d="M297 705q147 0 245.5 -101t98.5 -254t-98.5 -254t-245.5 -101q-165 0 -258 97l32 34q85 -84 224 -84q122 0 205.5 83.5t88.5 210.5h-379v43h378q-10 121 -92.5 200t-200.5 79q-137 0 -224 -84l-32 33q93 98 258 98z" />
    <glyph glyph-name="uni042E" unicode="&#x42e;" horiz-adv-x="1087" 
d="M678 705q148 0 246.5 -101t98.5 -254t-98.5 -254t-246.5 -101q-143 0 -240.5 95.5t-104.5 241.5h-156v-332h-51v700h51v-321h157q10 142 106.5 234t237.5 92zM678 42q125 0 209 87.5t84 220.5t-84 220.5t-209 87.5t-209 -87.5t-84 -220.5t84 -220.5t209 -87.5z" />
    <glyph glyph-name="uni042F" unicode="&#x42f;" horiz-adv-x="732" 
d="M342 700h264v-700h-51v220h-223q-26 0 -49 3l-155 -223h-55l162 232q-78 22 -120 79.5t-42 144.5q0 116 72.5 180t196.5 64zM125 457q0 -93 54 -143t158 -50h218v390h-209q-106 0 -163.5 -50.5t-57.5 -146.5z" />
    <glyph glyph-name="uni0430" unicode="&#x430;" horiz-adv-x="577" 
d="M281 526q97 0 149 -49.5t52 -145.5v-331h-48v93q-53 -97 -188 -97q-87 0 -137.5 41t-50.5 108q0 65 46.5 105.5t148.5 40.5h179v42q0 73 -39.5 111t-115.5 38q-107 0 -180 -66l-25 36q84 74 209 74zM253 37q132 0 179 117v98h-178q-146 0 -146 -105q0 -51 38 -80.5
t107 -29.5z" />
    <glyph glyph-name="uni0431" unicode="&#x431;" horiz-adv-x="656" 
d="M350 514q111 0 180.5 -71.5t69.5 -185.5q0 -115 -72 -188.5t-185 -73.5q-129 0 -199.5 92t-70.5 249q0 174 63 262t199 120l231 56l8 -47l-220 -52q-121 -28 -176 -99.5t-57 -216.5q26 72 87 113.5t142 41.5zM344 38q90 0 147.5 61t57.5 157t-57 154.5t-148 58.5
t-148.5 -59t-57.5 -154q0 -96 57.5 -157t148.5 -61z" />
    <glyph glyph-name="uni0432" unicode="&#x432;" horiz-adv-x="602" 
d="M417 269q115 -20 115 -129q0 -140 -198 -140h-226v522h220q87 0 136.5 -34.5t49.5 -98.5q0 -46 -25.5 -76.5t-71.5 -43.5zM157 481v-197h168q67 0 103 25.5t36 73.5q0 98 -139 98h-168zM333 41q149 0 149 101q0 53 -34 78t-107 25h-184v-204h176z" />
    <glyph glyph-name="uni0433" unicode="&#x433;" horiz-adv-x="464" 
d="M465 522v-45h-307v-477h-50v522h357z" />
    <glyph glyph-name="uni0434" unicode="&#x434;" horiz-adv-x="639" 
d="M515 44h84v-174h-47v130h-494v-130h-48v174h31q28 2 47.5 27t29.5 74t14.5 92.5t8.5 112.5l7 172h367v-478zM187 347q-5 -119 -20 -198t-54 -105h352v433h-272z" />
    <glyph glyph-name="uni0435" unicode="&#x435;" horiz-adv-x="609" 
d="M554 263q0 -2 -0.5 -6.5t-0.5 -7.5h-449q4 -93 65.5 -150.5t155.5 -57.5q107 0 167 73l29 -33q-70 -85 -197 -85q-118 0 -193.5 74.5t-75.5 190.5t71 190.5t179 74.5t178.5 -73.5t70.5 -189.5zM305 482q-83 0 -138.5 -54t-61.5 -140h400q-5 85 -61 139.5t-139 54.5z" />
    <glyph glyph-name="uni0436" unicode="&#x436;" horiz-adv-x="807" 
d="M725 0l-174 242h-123v-242h-50v242h-122l-174 -242h-61l195 268l-179 254h55l164 -237h122v237h50v-237h123l164 237h55l-179 -254l194 -268h-60z" />
    <glyph glyph-name="uni0437" unicode="&#x437;" horiz-adv-x="526" 
d="M339 272q58 -11 89.5 -43.5t31.5 -79.5q0 -69 -65.5 -111.5t-160.5 -42.5q-122 0 -203 68l20 37q71 -62 182 -62q74 0 125 31.5t51 83.5q0 46 -42.5 72.5t-114.5 26.5h-84v38h82q63 0 103.5 25t40.5 67q0 49 -44.5 75.5t-113.5 26.5q-88 0 -166 -45l-15 40q88 49 187 49
q87 0 145 -37.5t58 -101.5q0 -41 -29 -72t-77 -45z" />
    <glyph glyph-name="uni0438" unicode="&#x438;" horiz-adv-x="682" 
d="M108 0v522h50v-445l372 445h44v-522h-50v445l-372 -445h-44z" />
    <glyph glyph-name="uni0439" unicode="&#x439;" horiz-adv-x="682" 
d="M339 602q-63 0 -102 32.5t-40 90.5h37q1 -41 30.5 -65t74.5 -24t74 24t30 65h38q-1 -58 -40 -90.5t-102 -32.5zM108 0v522h50v-445l372 445h44v-522h-50v445l-372 -445h-44z" />
    <glyph glyph-name="uni043A" unicode="&#x43a;" horiz-adv-x="568" 
d="M493 0l-208 242h-127v-242h-50v522h50v-237h127l197 237h55l-212 -253l228 -269h-60z" />
    <glyph glyph-name="uni043B" unicode="&#x43b;" horiz-adv-x="624" 
d="M150 522h366v-522h-50v477h-272l-7 -139q-3 -63 -7.5 -107t-14.5 -92t-24 -77.5t-37.5 -48.5t-55.5 -19q-15 0 -43 7l5 43q16 -4 24 -4q16 0 29.5 6.5t23.5 20t17.5 28.5t13 40t9.5 45t6.5 52t4 53.5t3.5 56.5z" />
    <glyph glyph-name="uni043C" unicode="&#x43c;" horiz-adv-x="784" 
d="M630 522h46v-522h-46v442l-227 -375h-23l-226 374v-441h-46v522h49l236 -395z" />
    <glyph glyph-name="uni043D" unicode="&#x43d;" horiz-adv-x="670" 
d="M108 0v522h50v-238h354v238h50v-522h-50v240h-354v-240h-50z" />
    <glyph glyph-name="uni043E" unicode="&#x43e;" horiz-adv-x="632" 
d="M316 -4q-113 0 -187 74.5t-74 190.5t74 190.5t187 74.5t187 -74.5t74 -190.5t-74 -190.5t-187 -74.5zM316 41q91 0 150.5 61.5t59.5 158.5t-59.5 158.5t-150.5 61.5t-150.5 -61.5t-59.5 -158.5t59.5 -158.5t150.5 -61.5z" />
    <glyph glyph-name="uni043F" unicode="&#x43f;" horiz-adv-x="672" 
d="M108 522h456v-522h-50v477h-356v-477h-50v522z" />
    <glyph glyph-name="uni0440" unicode="&#x440;" horiz-adv-x="684" 
d="M371 526q111 0 184.5 -74.5t73.5 -190.5q0 -117 -73.5 -191t-184.5 -74q-69 0 -125 32.5t-87 90.5v-313h-50v716h48v-123q31 60 87.5 93.5t126.5 33.5zM368 41q91 0 151 61.5t60 158.5t-60 158.5t-151 61.5t-150.5 -61.5t-59.5 -158.5t59.5 -158.5t150.5 -61.5z" />
    <glyph glyph-name="uni0441" unicode="&#x441;" horiz-adv-x="557" 
d="M319 -4q-115 0 -189.5 74.5t-74.5 190.5q0 117 74.5 191t189.5 74q133 0 198 -96l-37 -27q-56 78 -161 78q-93 0 -153 -61t-60 -159t60 -159t153 -61q105 0 161 78l37 -27q-66 -96 -198 -96z" />
    <glyph glyph-name="uni0442" unicode="&#x442;" horiz-adv-x="456" 
d="M457 522v-45h-204v-477h-50v477h-204v45h458z" />
    <glyph glyph-name="uni0443" unicode="&#x443;" horiz-adv-x="546" 
d="M482 522h51l-268 -593q-30 -69 -69.5 -98t-93.5 -29q-76 0 -121 47l25 38q40 -41 97 -41q38 0 65 21t50 72l28 63l-235 520h53l209 -467z" />
    <glyph glyph-name="uni0444" unicode="&#x444;" horiz-adv-x="768" 
d="M714 262q0 -123 -80 -192.5t-226 -74.5v-189h-49v189q-146 5 -226 74.5t-80 192.5q0 121 80.5 190t225.5 74v216h49v-216q146 -5 226 -74t80 -190zM103 262q0 -101 66 -159t190 -63v441q-124 -5 -190 -62t-66 -157zM408 40q124 5 190.5 62.5t66.5 159.5q0 100 -66.5 157
t-190.5 62v-441z" />
    <glyph glyph-name="uni0445" unicode="&#x445;" horiz-adv-x="513" 
d="M494 0h-59l-179 233l-179 -233h-57l207 269l-196 253h57l168 -217l168 217h56l-196 -253z" />
    <glyph glyph-name="uni0446" unicode="&#x446;" horiz-adv-x="679" 
d="M554 44h87v-180h-48v136h-485v522h50v-478h346v478h50v-478z" />
    <glyph glyph-name="uni0447" unicode="&#x447;" horiz-adv-x="591" 
d="M433 522h50v-522h-50v225q-93 -43 -186 -43q-92 0 -144.5 42t-52.5 124v174h50v-171q0 -61 41 -94t113 -33q82 0 179 41v257z" />
    <glyph glyph-name="uni0448" unicode="&#x448;" horiz-adv-x="918" 
d="M760 522h50v-522h-702v522h50v-478h277v478h50v-478h275v478z" />
    <glyph glyph-name="uni0449" unicode="&#x449;" horiz-adv-x="918" 
d="M810 44h82v-162h-48v118h-736v522h50v-478h277v478h50v-478h275v478h50v-478z" />
    <glyph glyph-name="uni044A" unicode="&#x44a;" horiz-adv-x="605" 
d="M373 334q95 0 145 -42.5t50 -121.5q0 -83 -53 -126.5t-154 -43.5h-195v477h-167v45h217v-188h157zM362 40q155 0 155 130q0 125 -155 125h-146v-255h146z" />
    <glyph glyph-name="uni044B" unicode="&#x44b;" horiz-adv-x="766" 
d="M314 332q97 -1 148 -42.5t51 -121.5q0 -83 -54 -127t-156 -43l-195 2v522h50v-188zM609 0v522h50v-522h-50zM301 38q80 -1 121 32t41 98q0 123 -162 126l-143 1v-255z" />
    <glyph glyph-name="uni044C" unicode="&#x44c;" horiz-adv-x="553" 
d="M317 332q97 -1 148 -42.5t51 -121.5q0 -83 -54 -127t-157 -43l-197 2v522h50v-188zM304 38q79 -1 120 32t41 98q0 123 -161 126l-146 1v-255z" />
    <glyph glyph-name="uni044D" unicode="&#x44d;" horiz-adv-x="568" 
d="M242 526q117 0 195 -75.5t78 -189.5t-78 -190t-195 -76q-132 0 -206 75l29 30q68 -62 175 -62q93 0 157.5 59t70.5 149h-295v39h294q-9 87 -72.5 143t-154.5 56q-106 0 -175 -63l-29 29q74 76 206 76z" />
    <glyph glyph-name="uni044E" unicode="&#x44e;" horiz-adv-x="856" 
d="M545 526q111 0 183 -74.5t72 -190.5t-72 -190.5t-183 -74.5q-106 0 -177 68.5t-77 177.5h-133v-242h-50v522h50v-234h133q9 106 79.5 172t174.5 66zM545 40q89 0 147 62t58 159q0 98 -58 159t-147 61t-147 -61t-58 -159q0 -97 58 -159t147 -62z" />
    <glyph glyph-name="uni044F" unicode="&#x44f;" horiz-adv-x="601" 
d="M281 522h212v-522h-46v180h-174q-18 0 -26 1l-129 -181h-55l135 187q-132 30 -132 161q0 86 57.5 130t157.5 44zM116 346q0 -128 162 -128h169v260h-163q-168 0 -168 -132z" />
    <glyph glyph-name="uni0450" unicode="&#x450;" horiz-adv-x="609" 
d="M362 607h-54l-157 118h72zM554 263q0 -2 -0.5 -6.5t-0.5 -7.5h-449q4 -93 65.5 -150.5t155.5 -57.5q107 0 167 73l29 -33q-70 -85 -197 -85q-118 0 -193.5 74.5t-75.5 190.5t71 190.5t179 74.5t178.5 -73.5t70.5 -189.5zM305 482q-83 0 -138.5 -54t-61.5 -140h400
q-5 85 -61 139.5t-139 54.5z" />
    <glyph glyph-name="uni0451" unicode="&#x451;" horiz-adv-x="609" 
d="M219 634q-15 0 -25.5 10.5t-10.5 25.5q0 16 10.5 26t25.5 10t25.5 -10.5t10.5 -25.5t-11 -25.5t-25 -10.5zM391 634q-14 0 -25 10.5t-11 25.5t10.5 25.5t25.5 10.5t25.5 -10t10.5 -26q0 -15 -10.5 -25.5t-25.5 -10.5zM554 263q0 -2 -0.5 -6.5t-0.5 -7.5h-449
q4 -93 65.5 -150.5t155.5 -57.5q107 0 167 73l29 -33q-70 -85 -197 -85q-118 0 -193.5 74.5t-75.5 190.5t71 190.5t179 74.5t178.5 -73.5t70.5 -189.5zM305 482q-83 0 -138.5 -54t-61.5 -140h400q-5 85 -61 139.5t-139 54.5z" />
    <glyph glyph-name="uni0452" unicode="&#x452;" horiz-adv-x="667" 
d="M363 526q98 0 155.5 -57t57.5 -164v-357q0 -67 -37 -106.5t-104 -39.5q-72 0 -108 35l20 37q32 -29 85 -29q46 0 70 27t24 78v351q0 88 -44.5 134t-125.5 46q-91 0 -144.5 -55t-53.5 -148v-278h-50v613h-113v38h113v91h49v-91h257v-38h-257v-202q27 55 80.5 85t125.5 30z
" />
    <glyph glyph-name="uni0453" unicode="&#x453;" horiz-adv-x="464" 
d="M444 724l-157 -118h-54l139 118h72zM465 522v-45h-307v-477h-50v522h357z" />
    <glyph glyph-name="uni0454" unicode="&#x454;" horiz-adv-x="568" 
d="M328 38q106 0 175 63l29 -29q-74 -76 -206 -76q-117 0 -195 75.5t-78 189.5t78 190t195 76q132 0 206 -75l-29 -30q-68 62 -175 62q-93 0 -157.5 -59t-70.5 -149h295v-39h-294q9 -87 72.5 -143t154.5 -56z" />
    <glyph glyph-name="uni0455" unicode="&#x455;" horiz-adv-x="520" 
d="M261 -4q-63 0 -120 19t-89 48l23 40q32 -27 82.5 -45t105.5 -18q154 0 154 98q0 35 -25.5 56.5t-64 29t-83.5 17.5t-83.5 21.5t-64 42t-25.5 78.5q0 62 51.5 102.5t146.5 40.5q50 0 99 -14t80 -37l-23 -40q-65 47 -157 47q-73 0 -110 -27t-37 -71q0 -43 35.5 -66
t86.5 -31.5t102 -19.5t86.5 -42t35.5 -86q0 -65 -54 -104t-152 -39z" />
    <glyph glyph-name="uni0456" unicode="&#x456;" horiz-adv-x="265" 
d="M133 649q-17 0 -29 11.5t-12 28.5t12 29t29 12t29 -11.5t12 -28.5t-12 -29t-29 -12zM108 0v522h50v-522h-50z" />
    <glyph glyph-name="uni0457" unicode="&#x457;" horiz-adv-x="261" 
d="M69 635q-15 0 -25 10.5t-10 24.5q0 15 10 25.5t25 10.5t25 -10.5t10 -25.5t-10 -25t-25 -10zM193 635q-15 0 -25 10.5t-10 24.5q0 15 10 25.5t25 10.5t25 -10.5t10 -25.5t-10 -25t-25 -10zM106 0v522h50v-522h-50z" />
    <glyph glyph-name="uni0458" unicode="&#x458;" horiz-adv-x="266" 
d="M134 649q-17 0 -29 11.5t-12 28.5t12 29t29 12t29 -11.5t12 -28.5t-12 -29t-29 -12zM18 -198q-72 0 -108 35l20 37q32 -29 85 -29q46 0 70 27t24 78v572h50v-574q0 -67 -37 -106.5t-104 -39.5z" />
    <glyph glyph-name="uni0459" unicode="&#x459;" horiz-adv-x="911" 
d="M675 332q97 -1 148 -42.5t51 -121.5q0 -83 -54 -127t-157 -43l-197 2v477h-272l-7 -139q-3 -63 -7.5 -107t-14.5 -92t-24 -77.5t-37.5 -48.5t-55.5 -19q-15 0 -43 7l5 43q16 -4 24 -4q16 0 29.5 6.5t23.5 20t17.5 28.5t13 40t9.5 45t6.5 52t4 53.5t3.5 56.5l9 180h366
v-188zM662 38q79 -1 120 32t41 98q0 123 -161 126l-146 1v-255z" />
    <glyph glyph-name="uni045A" unicode="&#x45a;" horiz-adv-x="938" 
d="M719 306q89 0 137.5 -38.5t48.5 -109.5q0 -74 -52 -116t-145 -42h-206v262h-344v-262h-50v522h50v-216h344v216h50v-216h167zM707 39q71 0 109.5 30.5t38.5 85.5q0 53 -38 81t-110 28h-155v-225h155z" />
    <glyph glyph-name="uni045B" unicode="&#x45b;" horiz-adv-x="667" 
d="M363 526q98 0 155.5 -57t57.5 -164v-305h-50v301q0 88 -44.5 134t-125.5 46q-91 0 -144.5 -55t-53.5 -148v-278h-50v615h-138v34h138v93h50v-93h260v-34h-260v-202q27 54 80.5 83.5t124.5 29.5z" />
    <glyph glyph-name="uni045C" unicode="&#x45c;" horiz-adv-x="568" 
d="M446 725l-157 -118h-54l139 118h72zM493 0l-208 242h-127v-242h-50v522h50v-237h127l197 237h55l-212 -253l228 -269h-60z" />
    <glyph glyph-name="uni045D" unicode="&#x45d;" horiz-adv-x="682" 
d="M342 607l-157 118h72l139 -118h-54zM108 0v522h50v-445l372 445h44v-522h-50v445l-372 -445h-44z" />
    <glyph glyph-name="uni045E" unicode="&#x45e;" horiz-adv-x="546" 
d="M258 602q-63 0 -102 32.5t-40 90.5h37q1 -41 30.5 -65t74.5 -24t74 24t30 65h38q-1 -58 -40 -90.5t-102 -32.5zM482 522h51l-268 -593q-30 -69 -69.5 -98t-93.5 -29q-76 0 -121 47l25 38q40 -41 97 -41q38 0 65 21t50 72l28 63l-235 520h53l209 -467z" />
    <glyph glyph-name="uni045F" unicode="&#x45f;" horiz-adv-x="634" 
d="M527 522v-522h-185v-136h-48v136h-186v522h50v-478h319v478h50z" />
    <glyph glyph-name="uni0462" unicode="&#x462;" horiz-adv-x="794" 
d="M495 442q123 0 187 -55.5t64 -161.5q0 -110 -68 -167.5t-197 -57.5h-269v570h-194v41h194v131h51v-131h223v-41h-223v-128h232zM482 43q212 0 212 180q0 177 -212 177h-219v-357h219z" />
    <glyph glyph-name="uni0463" unicode="&#x463;" horiz-adv-x="583" 
d="M347 332q97 -1 148 -42.5t51 -121.5q0 -83 -54 -127t-157 -43l-197 2v499h-134v39h134v204h50v-204h198v-39h-198v-165zM334 38q79 -1 120 32t41 98q0 123 -161 126l-146 1v-255z" />
    <glyph glyph-name="uni046A" unicode="&#x46a;" horiz-adv-x="870" 
d="M767 168l78 -168h-54l-70 152q-75 173 -221 173h-40v-325h-49v325h-39q-147 0 -223 -173l-69 -152h-55l78 167q89 198 259 198h17l-279 297v38h670v-36l-280 -299h19q171 0 258 -197zM161 658l275 -293l273 293h-548z" />
    <glyph glyph-name="uni046B" unicode="&#x46b;" horiz-adv-x="660" 
d="M582 123l55 -123h-51l-48 109q-52 127 -155 127h-31v-236h-45v236h-29q-104 0 -156 -127l-48 -109h-50l55 123q65 151 191 151h9l-201 214v34h503v-34l-201 -214h11q125 0 191 -151zM134 484l195 -210l197 210h-392z" />
    <glyph glyph-name="uni0472" unicode="&#x472;" horiz-adv-x="853" 
d="M426 705q157 0 260.5 -101t103.5 -254t-103.5 -254t-260.5 -101q-156 0 -260 101.5t-104 253.5t104 253.5t260 101.5zM426 658q-128 0 -215.5 -80.5t-95.5 -205.5h623q-8 125 -95.5 205.5t-216.5 80.5zM426 42q129 0 216.5 81t95.5 206h-623q8 -125 95.5 -206t215.5 -81z
" />
    <glyph glyph-name="uni0473" unicode="&#x473;" horiz-adv-x="643" 
d="M321 526q115 0 191 -74.5t76 -190.5t-76 -190.5t-191 -74.5t-191 74.5t-76 190.5t76 190.5t191 74.5zM321 484q-90 0 -150 -56t-67 -147h434q-7 91 -67 147t-150 56zM321 38q90 0 150.5 57t66.5 148h-434q6 -91 66.5 -148t150.5 -57z" />
    <glyph glyph-name="uni0474" unicode="&#x474;" horiz-adv-x="737" 
d="M312 0l-290 700h57l258 -626l171 471q30 84 68.5 123t95.5 39q27 0 55 -7l-6 -50q-25 5 -41 5q-45 0 -74.5 -32t-55.5 -105l-187 -518h-51z" />
    <glyph glyph-name="uni0475" unicode="&#x475;" horiz-adv-x="558" 
d="M398 408q24 64 50 91.5t64 27.5q15 0 45 -7l-5 -50q-19 6 -35 6q-24 0 -40 -21t-39 -78l-146 -377h-50l-228 522h55l199 -457z" />
    <glyph glyph-name="uni048A" unicode="&#x48a;" horiz-adv-x="845" 
d="M410 753q-70 0 -112.5 32.5t-43.5 89.5h41q1 -42 32.5 -66t82.5 -24q50 0 81.5 24t32.5 66h41q-1 -57 -43.5 -89.5t-111.5 -32.5zM699 46h99l-64 -206h-43l45 160h-88v613l-477 -613h-45v700h51v-614l477 614h45v-654z" />
    <glyph glyph-name="uni048B" unicode="&#x48b;" horiz-adv-x="700" 
d="M339 603q-61 0 -101.5 33t-42.5 89h37q1 -40 31.5 -64.5t75.5 -24.5t75.5 24.5t31.5 64.5h37q-2 -56 -42.5 -89t-101.5 -33zM574 44h87l-52 -162h-41l34 118h-78v445l-372 -445h-44v522h50v-445l372 445h44v-478z" />
    <glyph glyph-name="uni048C" unicode="&#x48c;" horiz-adv-x="732" 
d="M433 442q123 0 187.5 -55.5t64.5 -161.5q0 -110 -68 -167.5t-198 -57.5h-269v570h-116v41h116v131h51v-131h230v-41h-230v-128h232zM421 43q212 0 212 180q0 177 -212 177h-220v-357h220z" />
    <glyph glyph-name="uni048D" unicode="&#x48d;" horiz-adv-x="582" 
d="M347 327q199 -2 199 -161q0 -83 -54 -126t-157 -42l-197 2v410h-114v39h114v73h50v-73h198v-39h-198v-81zM334 38q161 -3 161 128q0 63 -39.5 92t-121.5 31l-146 1v-250z" />
    <glyph glyph-name="uni048E" unicode="&#x48e;" horiz-adv-x="732" 
d="M659 463q0 -140 -114 -201l103 -135l-31 -25l-110 144q-57 -20 -129 -20h-200v-226h-52v700h252q132 0 206.5 -63t74.5 -174zM377 271q58 0 100 13l-124 162l31 25l132 -171q91 47 91 163q0 92 -59 141.5t-171 49.5h-199v-383h199z" />
    <glyph glyph-name="uni048F" unicode="&#x48f;" horiz-adv-x="694" 
d="M630 260q0 -131 -89 -205l72 -93l-30 -23l-73 93q-61 -36 -134 -36q-74 0 -131 36.5t-86 101.5v-328h-51v716h49v-139q28 67 85.5 105t133.5 38q108 0 181 -75t73 -191zM369 40q62 0 111 30l-80 102l31 23l80 -103q69 63 69 168q0 98 -60 159.5t-151 61.5
q-92 0 -151.5 -61.5t-59.5 -159.5q0 -97 59.5 -158.5t151.5 -61.5z" />
    <glyph glyph-name="uni0490" unicode="&#x490;" horiz-adv-x="570" 
d="M126 0v700h384v145h49v-191h-382v-654h-51z" />
    <glyph glyph-name="uni0491" unicode="&#x491;" horiz-adv-x="435" 
d="M108 0v522h280v108h47v-153h-277v-477h-50z" />
    <glyph glyph-name="uni0492" unicode="&#x492;" horiz-adv-x="600" 
d="M581 654h-382v-307h308v-41h-308v-306h-51v306h-108v41h108v353h433v-46z" />
    <glyph glyph-name="uni0493" unicode="&#x493;" horiz-adv-x="491" 
d="M479 477h-307v-221h234v-39h-234v-217h-50v217h-74v39h74v266h357v-45z" />
    <glyph glyph-name="uni0494" unicode="&#x494;" horiz-adv-x="699" 
d="M177 334q105 65 211 65q110 0 182 -69t72 -187q0 -124 -73 -201.5t-186 -77.5q-29 0 -61 6l9 44q28 -5 49 -5q92 0 151.5 64t59.5 167q0 99 -60.5 157t-152.5 58q-103 0 -201 -70v-285h-51v700h453v-46h-402v-320z" />
    <glyph glyph-name="uni0495" unicode="&#x495;" horiz-adv-x="584" 
d="M158 227q84 51 172 51q96 0 159.5 -61t63.5 -170q0 -111 -67 -178t-176 -67q-32 0 -66 6l11 44q30 -5 53 -5q89 0 141.5 53t52.5 145q0 93 -51.5 141.5t-129.5 48.5q-87 0 -163 -55v-180h-50v522h343v-45h-293v-250z" />
    <glyph glyph-name="uni0496" unicode="&#x496;" horiz-adv-x="1040" 
d="M937 46h88v-206h-49v160h-68l-231 332h-154v-332h-50v332h-154l-231 -332h-61l250 360l-231 340h58l214 -322h155v322h50v-322h154l215 322h57l-230 -340z" />
    <glyph glyph-name="uni0497" unicode="&#x497;" horiz-adv-x="845" 
d="M754 43h84v-161h-46v118h-67l-174 242h-123v-242h-50v242h-122l-174 -242h-61l195 268l-179 254h55l164 -237h122v237h50v-237h123l164 237h55l-179 -254z" />
    <glyph glyph-name="uni0498" unicode="&#x498;" horiz-adv-x="631" 
d="M558 196q0 -84 -67.5 -137.5t-167.5 -62.5v-156h-48v155q-141 7 -238 95l21 36q92 -86 227 -86q92 0 156.5 44t64.5 118q0 67 -52 103.5t-146 36.5h-144v44h142q80 0 125 34.5t45 95.5q0 68 -56.5 107.5t-140.5 39.5q-108 0 -201 -61l-19 43q103 64 221 64
q105 0 176.5 -51t71.5 -136q0 -57 -32.5 -98t-89.5 -58q71 -16 111.5 -61t40.5 -109z" />
    <glyph glyph-name="uni0499" unicode="&#x499;" horiz-adv-x="526" 
d="M460 149q0 -63 -55.5 -105t-139.5 -48v-114h-48v113q-113 7 -186 68l20 37q71 -62 182 -62q74 0 125 31.5t51 83.5q0 46 -42.5 72.5t-114.5 26.5h-84v38h82q63 0 103.5 25t40.5 67q0 49 -44.5 75.5t-113.5 26.5q-88 0 -166 -45l-15 40q88 49 187 49q87 0 145 -37.5
t58 -101.5q0 -41 -29 -72t-77 -45q58 -11 89.5 -43.5t31.5 -79.5z" />
    <glyph glyph-name="uni049A" unicode="&#x49a;" horiz-adv-x="744" 
d="M635 46h94v-206h-49v160h-68l-267 332h-168v-332h-51v700h51v-322h169l251 322h57l-268 -341z" />
    <glyph glyph-name="uni049B" unicode="&#x49b;" horiz-adv-x="568" 
d="M516 43h90v-161h-46v118h-67l-208 242h-127v-242h-50v522h50v-237h127l197 237h55l-212 -253z" />
    <glyph glyph-name="uni049C" unicode="&#x49c;" horiz-adv-x="717" 
d="M630 0l-246 332h-67v-159h-41v159h-99v-332h-51v700h51v-322h99v160h41v-160h67l230 322h58l-246 -341l266 -359h-62z" />
    <glyph glyph-name="uni049D" unicode="&#x49d;" horiz-adv-x="583" 
d="M504 0l-185 242h-50v-112h-38v112h-74v-242h-50v522h50v-237h75v116h37v-116h49l175 237h55l-190 -254l206 -268h-60z" />
    <glyph glyph-name="uni049E" unicode="&#x49e;" horiz-adv-x="717" 
d="M634 0l-267 332h-168v-332h-51v562h-110v39h110v99h51v-99h194v-39h-194v-184h169l251 322h57l-268 -341l286 -359h-60z" />
    <glyph glyph-name="uni049F" unicode="&#x49f;" horiz-adv-x="568" 
d="M494 0l-209 242h-127v-242h-50v613h-106v39h106v90h50v-90l163 -1v-38h-163v-328h128l197 237h55l-213 -254l228 -268h-59z" />
    <glyph glyph-name="uni04A0" unicode="&#x4a0;" horiz-adv-x="802" 
d="M719 0l-267 332h-168v-332h-51v654h-223v46h274v-322h169l251 322h57l-268 -341l286 -359h-60z" />
    <glyph glyph-name="uni04A1" unicode="&#x4a1;" horiz-adv-x="626" 
d="M552 0l-209 242h-127v-242h-50v478h-167v44h217v-237h127l197 237h56l-213 -254l228 -268h-59z" />
    <glyph glyph-name="uni04A2" unicode="&#x4a2;" horiz-adv-x="843" 
d="M696 46h114v-206h-48v160h-117v333h-468v-333h-51v700h51v-322h468v322h51v-654z" />
    <glyph glyph-name="uni04A3" unicode="&#x4a3;" horiz-adv-x="687" 
d="M562 44h86v-162h-48v118h-88v240h-354v-240h-50v522h50v-238h354v238h50v-478z" />
    <glyph glyph-name="uni04A4" unicode="&#x4a4;" horiz-adv-x="1089" 
d="M1079 700v-46h-382v-654h-52v333h-468v-333h-51v700h51v-322h468v322h434z" />
    <glyph glyph-name="uni04A5" unicode="&#x4a5;" horiz-adv-x="869" 
d="M869 522v-45h-307v-477h-50v240h-354v-240h-50v522h50v-238h354v238h357z" />
    <glyph glyph-name="uni04A6" unicode="&#x4a6;" horiz-adv-x="1211" 
d="M702 336q103 63 207 63q110 0 182.5 -69.5t72.5 -186.5q0 -122 -73.5 -201t-182.5 -79q-29 0 -66 8l10 43q27 -6 52 -6q89 0 149 65t60 167q0 99 -60.5 157.5t-152.5 58.5q-101 0 -198 -69v-287h-51v654h-474v-654h-51v700h576v-364z" />
    <glyph glyph-name="uni04A7" unicode="&#x4a7;" horiz-adv-x="963" 
d="M546 230q82 48 167 48q96 0 160 -61t64 -170q0 -111 -67 -178t-176 -67q-32 0 -66 6l11 44q30 -5 53 -5q89 0 141.5 53t52.5 145t-51.5 140.5t-129.5 48.5q-84 0 -159 -52v-182h-50v477h-338v-477h-50v522h438v-292z" />
    <glyph glyph-name="uni04A8" unicode="&#x4a8;" horiz-adv-x="970" 
d="M889 7q-62 -17 -129 -17q-84 0 -159 29q-73 -26 -155 -26q-167 0 -273 103.5t-106 266.5q0 110 50.5 201.5t140.5 144.5l37 -29q-83 -50 -129.5 -133.5t-46.5 -184.5q0 -145 92.5 -236t241.5 -91q44 0 94 10q-91 53 -144.5 145.5t-53.5 207.5q0 139 75 226.5t193 87.5
q116 0 189.5 -84t73.5 -217q0 -118 -59.5 -215t-160.5 -151q46 -13 101 -13q63 0 121 17zM401 397q0 -115 55.5 -203t149.5 -130q102 42 162 133t60 209q0 115 -58.5 186.5t-153.5 71.5q-96 0 -155.5 -73.5t-59.5 -193.5z" />
    <glyph glyph-name="uni04A9" unicode="&#x4a9;" horiz-adv-x="785" 
d="M712 4q-51 -13 -103 -13q-66 0 -127 22q-60 -19 -123 -19q-134 0 -218.5 77.5t-84.5 201.5q0 81 39.5 148.5t109.5 107.5l36 -26q-64 -38 -99.5 -98.5t-35.5 -133.5q0 -106 71.5 -171.5t187.5 -65.5q33 0 63 6q-68 40 -107 107t-39 150q0 104 59.5 169t155.5 65
q93 0 151 -62t58 -162q0 -85 -44.5 -156t-120.5 -112q37 -8 73 -8q46 0 94 12zM331 297q0 -82 42.5 -145.5t113.5 -94.5q78 30 124 96.5t46 151.5q0 81 -45 132t-116 51q-74 0 -119.5 -53t-45.5 -138z" />
    <glyph glyph-name="uni04AA" unicode="&#x4aa;" horiz-adv-x="714" 
d="M428 42q130 0 215 84l32 -33q-89 -93 -237 -98v-155h-48v157q-143 12 -235 111t-92 242q0 153 103.5 254t259.5 101q158 0 249 -97l-32 -33q-84 83 -215 83q-134 0 -224 -88t-90 -220t90 -220t224 -88z" />
    <glyph glyph-name="uni04AB" unicode="&#x4ab;" horiz-adv-x="557" 
d="M319 41q105 0 161 78l37 -27q-60 -87 -176 -95v-115h-48v115q-105 9 -171.5 82t-66.5 182q0 117 74.5 191t189.5 74q133 0 198 -96l-37 -27q-56 78 -161 78q-93 0 -153 -61t-60 -159t60 -159t153 -61z" />
    <glyph glyph-name="uni04AC" unicode="&#x4ac;" horiz-adv-x="575" 
d="M565 654h-252v-608h113v-206h-48v160h-116v654h-252v46h555v-46z" />
    <glyph glyph-name="uni04AD" unicode="&#x4ad;" horiz-adv-x="456" 
d="M457 477h-204v-433h85v-162h-47v118h-88v477h-204v45h458v-45z" />
    <glyph glyph-name="uni04AE" unicode="&#x4ae;" horiz-adv-x="639" 
d="M627 700l-282 -459v-241h-51v241l-282 459h56l253 -412l253 412h53z" />
    <glyph glyph-name="uni04AF" unicode="&#x4af;" horiz-adv-x="547" 
d="M535 522l-236 -522v-194h-51v194l-235 522h53l208 -467l210 467h51z" />
    <glyph glyph-name="uni04B0" unicode="&#x4b0;" horiz-adv-x="639" 
d="M627 700l-268 -437h168v-38h-182v-225h-51v225h-184v38h170l-268 437h56l253 -412l253 412h53z" />
    <glyph glyph-name="uni04B1" unicode="&#x4b1;" horiz-adv-x="547" 
d="M535 522l-225 -498h163v-38h-174v-180h-51v180h-174v38h163l-224 498h53l208 -467l210 467h51z" />
    <glyph glyph-name="uni04B2" unicode="&#x4b2;" horiz-adv-x="678" 
d="M575 46h89v-206h-49v160h-68l-231 320l-229 -320h-60l258 362l-240 338h60l211 -295l212 295h61l-241 -337z" />
    <glyph glyph-name="uni04B3" unicode="&#x4b3;" horiz-adv-x="513" 
d="M460 43h88v-161h-46v118h-67l-179 233l-179 -233h-57l207 269l-196 253h57l168 -217l168 217h56l-196 -253z" />
    <glyph glyph-name="uni04B4" unicode="&#x4b4;" horiz-adv-x="961" 
d="M815 45h113v-215h-48v169h-618v655h-252v46h538v-46h-235v-609h451v654h51v-654z" />
    <glyph glyph-name="uni04B5" unicode="&#x4b5;" horiz-adv-x="746" 
d="M623 44h79v-162h-48v118h-451v477h-203v45h436v-45h-183v-433h320v478h50v-478z" />
    <glyph glyph-name="uni04B6" unicode="&#x4b6;" horiz-adv-x="747" 
d="M600 46h113v-206h-48v160h-116v300q-121 -53 -233 -53q-119 0 -185.5 57.5t-66.5 161.5v234h51v-229q0 -84 54 -131t151 -47q107 0 229 54v353h51v-654z" />
    <glyph glyph-name="uni04B7" unicode="&#x4b7;" horiz-adv-x="609" 
d="M483 44h86v-162h-48v118h-88v225q-93 -43 -186 -43q-92 0 -144.5 42t-52.5 124v174h50v-171q0 -61 41 -94t113 -33q82 0 179 41v257h50v-478z" />
    <glyph glyph-name="uni04B8" unicode="&#x4b8;" horiz-adv-x="726" 
d="M549 700h51v-700h-51v300q-100 -44 -201 -52v-159h-41v158q-115 2 -179 60t-64 159v234h51v-229q0 -81 50.5 -127.5t141.5 -50.5v160h41v-159q93 6 201 53v353z" />
    <glyph glyph-name="uni04B9" unicode="&#x4b9;" horiz-adv-x="591" 
d="M433 522h50v-522h-50v225q-72 -33 -147 -41v-111h-38v109h-1q-92 0 -144.5 42t-52.5 124v174h50v-171q0 -60 39.5 -92.5t108.5 -34.5v122h38v-120q71 6 147 39v257z" />
    <glyph glyph-name="uni04BA" unicode="&#x4ba;" horiz-adv-x="726" 
d="M410 453q119 0 186 -58t67 -161v-234h-51v229q0 84 -54.5 131t-151.5 47q-107 0 -229 -54v-353h-51v700h51v-300q121 53 233 53z" />
    <glyph glyph-name="uni04BB" unicode="&#x4bb;" horiz-adv-x="667" 
d="M364 526q98 0 155 -57t57 -164v-305h-50v301q0 88 -44.5 134t-124.5 46q-92 0 -145 -55t-53 -148v-278h-50v742h50v-329q27 54 80 83.5t125 29.5z" />
    <glyph glyph-name="uni04BC" unicode="&#x4bc;" horiz-adv-x="962" 
d="M916 351q0 -21 -1 -30h-647q10 -125 97.5 -202t205.5 -77q127 0 234 89l37 -35q-121 -101 -271 -101q-91 0 -169 38.5t-129 114t-57 173.5h-27q-73 0 -113.5 40t-40.5 101q0 53 31 103l48 -12q-30 -44 -30 -87t29 -71.5t81 -28.5h21q7 149 108 244t244 95
q148 0 248.5 -100t100.5 -254zM567 659q-122 0 -208 -83t-92 -210h597q-5 128 -89.5 210.5t-207.5 82.5z" />
    <glyph glyph-name="uni04BD" unicode="&#x4bd;" horiz-adv-x="736" 
d="M687 263q0 -9 -1 -14h-465q4 -93 67.5 -150.5t161.5 -57.5q111 0 174 73l29 -33q-71 -85 -204 -85q-119 0 -196.5 70.5t-82.5 182.5h-20q-60 0 -92.5 27.5t-32.5 72.5q0 39 24 81l44 -13q-22 -32 -22 -62t21.5 -48.5t62.5 -18.5h16q9 106 81 172t177 66q112 0 185 -73.5
t73 -189.5zM429 482q-85 0 -142.5 -54t-64.5 -140h415q-5 85 -63.5 139.5t-144.5 54.5z" />
    <glyph glyph-name="uni04BE" unicode="&#x4be;" horiz-adv-x="962" 
d="M916 351q0 -21 -1 -30h-647q10 -125 97.5 -202t205.5 -77q127 0 234 89l37 -35q-109 -92 -246 -100v-156h-48v156q-133 8 -228 96.5t-104 228.5h-27q-73 0 -113.5 40t-40.5 101q0 53 31 103l48 -12q-30 -44 -30 -87t29 -71.5t81 -28.5h21q7 149 108 244t244 95
q148 0 248.5 -100t100.5 -254zM567 659q-122 0 -208 -83t-92 -210h597q-5 128 -89.5 210.5t-207.5 82.5z" />
    <glyph glyph-name="uni04BF" unicode="&#x4bf;" horiz-adv-x="736" 
d="M687 263q0 -9 -1 -14h-465q4 -93 67.5 -150.5t161.5 -57.5q111 0 174 73l29 -33q-68 -80 -192 -85v-114h-48v116q-105 11 -172 79.5t-71 171.5h-20q-60 0 -92.5 27.5t-32.5 72.5q0 39 24 81l44 -13q-22 -32 -22 -62t21.5 -48.5t62.5 -18.5h16q9 106 81 172t177 66
q112 0 185 -73.5t73 -189.5zM429 482q-85 0 -142.5 -54t-64.5 -140h415q-5 85 -63.5 139.5t-144.5 54.5z" />
    <glyph glyph-name="uni04C0" unicode="&#x4c0;" horiz-adv-x="303" 
d="M126 0v700h51v-700h-51z" />
    <glyph glyph-name="uni04C1" unicode="&#x4c1;" horiz-adv-x="996" 
d="M499 753q-70 0 -112.5 32.5t-43.5 89.5h41q1 -42 32.5 -66t82.5 -24q50 0 81.5 24t32.5 66h41q-1 -57 -43.5 -89.5t-111.5 -32.5zM908 0l-231 332h-154v-332h-50v332h-154l-231 -332h-61l250 360l-231 340h58l214 -322h155v322h50v-322h154l215 322h57l-230 -340
l250 -360h-61z" />
    <glyph glyph-name="uni04C2" unicode="&#x4c2;" horiz-adv-x="807" 
d="M403 602q-63 0 -102 32.5t-40 90.5h37q1 -41 30.5 -65t74.5 -24t74 24t30 65h38q-1 -58 -40 -90.5t-102 -32.5zM725 0l-174 242h-123v-242h-50v242h-122l-174 -242h-61l195 268l-179 254h55l164 -237h122v237h50v-237h123l164 237h55l-179 -254l194 -268h-60z" />
    <glyph glyph-name="uni04C3" unicode="&#x4c3;" horiz-adv-x="692" 
d="M387 359q127 -111 199 -219.5t72 -192.5q0 -68 -38 -107t-102 -39q-54 0 -107 29l16 41q43 -24 83 -24q43 0 68 27t25 74q0 76 -71 182t-189 202h-166v-332h-51v700h51v-322h170l249 322h58z" />
    <glyph glyph-name="uni04C4" unicode="&#x4c4;" horiz-adv-x="566" 
d="M329 274q94 -74 151.5 -165t57.5 -167q0 -63 -38.5 -101.5t-101.5 -38.5q-52 0 -105 29l16 39q45 -25 83 -25q44 0 70 27t26 72q0 66 -53.5 149t-138.5 149h-138v-242h-50v522h50v-236h128l196 236h55z" />
    <glyph glyph-name="uni04C6" unicode="&#x4c6;" horiz-adv-x="642" 
d="M516 44h87l-52 -162h-41l34 118h-78v477h-272l-7 -139q-3 -63 -7.5 -107t-14.5 -92t-24 -77.5t-37.5 -48.5t-55.5 -19q-15 0 -43 7l5 43q16 -4 24 -4q16 0 29.5 6.5t23.5 20t17.5 28.5t13 40t9.5 45t6.5 52t4 53.5t3.5 56.5l9 180h366v-478z" />
    <glyph glyph-name="uni04C7" unicode="&#x4c7;" horiz-adv-x="817" 
d="M441 -163l20 37q38 -28 84 -28q40 0 67 24.5t27 70.5v388h-462v-329h-51v700h51v-324h462v324h51v-764q0 -64 -40.5 -99t-99.5 -35q-62 0 -109 35z" />
    <glyph glyph-name="uni04C8" unicode="&#x4c8;" horiz-adv-x="678" 
d="M432 -198q-73 0 -109 35l20 37q32 -29 83 -29q46 0 70.5 27t24.5 78v290h-363v-240h-50v522h50v-238h363v238h50v-576q0 -66 -36.5 -105t-102.5 -39z" />
    <glyph glyph-name="uni04C9" unicode="&#x4c9;" horiz-adv-x="842" 
d="M696 46h100l-64 -206h-43l45 160h-89v333h-468v-333h-51v700h51v-322h468v322h51v-654z" />
    <glyph glyph-name="uni04CA" unicode="&#x4ca;" horiz-adv-x="688" 
d="M562 44h87l-52 -162h-41l34 118h-78v240h-354v-240h-50v522h50v-238h354v238h50v-478z" />
    <glyph glyph-name="uni04CB" unicode="&#x4cb;" horiz-adv-x="725" 
d="M548 700h51v-700h-121v-160h-49v206h119v262q-120 -53 -233 -53q-119 0 -185.5 57t-66.5 159v229h51v-225q0 -82 54 -128t151 -46q107 0 229 54v345z" />
    <glyph glyph-name="uni04CC" unicode="&#x4cc;" horiz-adv-x="589" 
d="M431 522h50v-522h-93v-118h-48v160h91v189q-95 -42 -186 -42q-92 0 -144.5 42t-52.5 124v167h50v-165q0 -61 41 -93.5t114 -32.5q84 0 178 41v250z" />
    <glyph glyph-name="uni04CD" unicode="&#x4cd;" horiz-adv-x="987" 
d="M838 46h102l-64 -206h-43l45 160h-90l-1 599l-293 -506h-25l-293 504v-597h-50v700h43l313 -541l313 541h42z" />
    <glyph glyph-name="uni04CE" unicode="&#x4ce;" horiz-adv-x="806" 
d="M676 44h91l-52 -162h-41l34 118h-78v442l-227 -375h-23l-226 374v-441h-46v522h49l236 -395l237 395h46v-478z" />
    <glyph glyph-name="uni04CF" unicode="&#x4cf;" horiz-adv-x="267" 
d="M108 0v742h50v-742h-50z" />
    <glyph glyph-name="uni04D0" unicode="&#x4d0;" horiz-adv-x="733" 
d="M367 753q-70 0 -112.5 32.5t-43.5 89.5h41q1 -42 32.5 -66t82.5 -24q50 0 81.5 24t32.5 66h41q-1 -57 -43.5 -89.5t-111.5 -32.5zM659 0l-90 197h-406l-89 -197h-55l322 700h51l322 -700h-55zM183 240h367l-184 404z" />
    <glyph glyph-name="uni04D1" unicode="&#x4d1;" horiz-adv-x="577" 
d="M279 602q-63 0 -102 32.5t-40 90.5h37q1 -41 30.5 -65t74.5 -24t74 24t30 65h38q-1 -58 -40 -90.5t-102 -32.5zM281 526q97 0 149 -49.5t52 -145.5v-331h-48v93q-53 -97 -188 -97q-87 0 -137.5 41t-50.5 108q0 65 46.5 105.5t148.5 40.5h179v42q0 73 -39.5 111t-115.5 38
q-107 0 -180 -66l-25 36q84 74 209 74zM253 37q132 0 179 117v98h-178q-146 0 -146 -105q0 -51 38 -80.5t107 -29.5z" />
    <glyph glyph-name="uni04D2" unicode="&#x4d2;" horiz-adv-x="733" 
d="M281 784q-15 0 -25.5 10.5t-10.5 25.5q0 16 10.5 26t25.5 10t25.5 -10.5t10.5 -25.5t-11 -25.5t-25 -10.5zM453 784q-14 0 -25 10.5t-11 25.5t10.5 25.5t25.5 10.5t25.5 -10t10.5 -26q0 -15 -10.5 -25.5t-25.5 -10.5zM659 0l-90 197h-406l-89 -197h-55l322 700h51
l322 -700h-55zM183 240h367l-184 404z" />
    <glyph glyph-name="uni04D3" unicode="&#x4d3;" horiz-adv-x="577" 
d="M193 634q-15 0 -25.5 10.5t-10.5 25.5q0 16 10.5 26t25.5 10t25.5 -10.5t10.5 -25.5t-11 -25.5t-25 -10.5zM365 634q-14 0 -25 10.5t-11 25.5t10.5 25.5t25.5 10.5t25.5 -10t10.5 -26q0 -15 -10.5 -25.5t-25.5 -10.5zM281 526q97 0 149 -49.5t52 -145.5v-331h-48v93
q-53 -97 -188 -97q-87 0 -137.5 41t-50.5 108q0 65 46.5 105.5t148.5 40.5h179v42q0 73 -39.5 111t-115.5 38q-107 0 -180 -66l-25 36q84 74 209 74zM253 37q132 0 179 117v98h-178q-146 0 -146 -105q0 -51 38 -80.5t107 -29.5z" />
    <glyph glyph-name="uni04D4" unicode="&#x4d4;" horiz-adv-x="1008" 
d="M532 46h432v-46h-483v197h-293l-122 -197h-55l434 700h504v-46h-417v-276h373v-45h-373v-287zM214 240h267v414h-11z" />
    <glyph glyph-name="uni04D5" unicode="&#x4d5;" horiz-adv-x="985" 
d="M933 267q0 -4 -0.5 -9t-0.5 -7h-450q3 -93 64.5 -151.5t156.5 -58.5q106 0 167 73l30 -33q-73 -85 -198 -85q-77 0 -140 34.5t-98 100.5q-23 -69 -81 -102t-133 -33q-90 0 -141 41.5t-51 109.5q0 62 46.5 102.5t148.5 40.5h179v43q0 73 -39.5 111t-115.5 38
q-107 0 -180 -66l-25 36q84 74 208 74q157 0 190 -124q32 58 87.5 91t125.5 33q108 0 179 -73t71 -186zM683 482q-80 0 -136.5 -53t-63.5 -139h400q-6 85 -62.5 138.5t-137.5 53.5zM253 37q82 0 130.5 43.5t48.5 121.5v49h-178q-146 0 -146 -103q0 -52 38.5 -81.5
t106.5 -29.5z" />
    <glyph glyph-name="uni04D6" unicode="&#x4d6;" horiz-adv-x="653" 
d="M361 753q-70 0 -112.5 32.5t-43.5 89.5h41q1 -42 32.5 -66t82.5 -24q50 0 81.5 24t32.5 66h41q-1 -57 -43.5 -89.5t-111.5 -32.5zM177 46h432v-46h-483v700h468v-46h-417v-276h373v-45h-373v-287z" />
    <glyph glyph-name="uni04D7" unicode="&#x4d7;" horiz-adv-x="609" 
d="M305 602q-63 0 -102 32.5t-40 90.5h37q1 -41 30.5 -65t74.5 -24t74 24t30 65h38q-1 -58 -40 -90.5t-102 -32.5zM554 263q0 -2 -0.5 -6.5t-0.5 -7.5h-449q4 -93 65.5 -150.5t155.5 -57.5q107 0 167 73l29 -33q-70 -85 -197 -85q-118 0 -193.5 74.5t-75.5 190.5t71 190.5
t179 74.5t178.5 -73.5t70.5 -189.5zM305 482q-83 0 -138.5 -54t-61.5 -140h400q-5 85 -61 139.5t-139 54.5z" />
    <glyph glyph-name="uni04D8" unicode="&#x4d8;" horiz-adv-x="825" 
d="M398 705q150 0 257 -97t107 -255q0 -157 -104 -257.5t-256 -100.5q-151 0 -253.5 100t-102.5 254q0 19 1 28h662q-10 126 -99.5 203.5t-211.5 77.5q-131 0 -239 -89l-37 35q124 101 276 101zM402 41q125 0 213.5 83.5t94.5 211.5h-613q5 -128 92 -211.5t213 -83.5z" />
    <glyph glyph-name="uni04D9" unicode="&#x4d9;" horiz-adv-x="609" 
d="M284 526q118 0 193.5 -74.5t75.5 -190.5t-71 -190.5t-179 -74.5t-178.5 73.5t-70.5 189.5q0 2 0.5 6.5t0.5 7.5h449q-4 93 -65.5 150.5t-155.5 57.5q-107 0 -167 -73l-29 33q70 85 197 85zM303 40q83 0 138.5 54t61.5 140h-400q5 -85 61 -139.5t139 -54.5z" />
    <glyph glyph-name="uni04DA" unicode="&#x4da;" horiz-adv-x="825" 
d="M327 784q-15 0 -25.5 10.5t-10.5 25.5q0 16 10.5 26t25.5 10t25.5 -10.5t10.5 -25.5t-11 -25.5t-25 -10.5zM499 784q-14 0 -25 10.5t-11 25.5t10.5 25.5t25.5 10.5t25.5 -10t10.5 -26q0 -15 -10.5 -25.5t-25.5 -10.5zM398 705q150 0 257 -97t107 -255q0 -157 -104 -257.5
t-256 -100.5q-151 0 -253.5 100t-102.5 254q0 19 1 28h662q-10 126 -99.5 203.5t-211.5 77.5q-131 0 -239 -89l-37 35q124 101 276 101zM402 41q125 0 213.5 83.5t94.5 211.5h-613q5 -128 92 -211.5t213 -83.5z" />
    <glyph glyph-name="uni04DB" unicode="&#x4db;" horiz-adv-x="609" 
d="M217 634q-15 0 -25.5 10.5t-10.5 25.5q0 16 10.5 26t25.5 10t25.5 -10.5t10.5 -25.5t-11 -25.5t-25 -10.5zM389 634q-14 0 -25 10.5t-11 25.5t10.5 25.5t25.5 10.5t25.5 -10t10.5 -26q0 -15 -10.5 -25.5t-25.5 -10.5zM284 526q118 0 193.5 -74.5t75.5 -190.5t-71 -190.5
t-179 -74.5t-178.5 73.5t-70.5 189.5q0 2 0.5 6.5t0.5 7.5h449q-4 93 -65.5 150.5t-155.5 57.5q-107 0 -167 -73l-29 33q70 85 197 85zM303 40q83 0 138.5 54t61.5 140h-400q5 -85 61 -139.5t139 -54.5z" />
    <glyph glyph-name="uni04DC" unicode="&#x4dc;" horiz-adv-x="996" 
d="M413 784q-15 0 -25.5 10.5t-10.5 25.5q0 16 10.5 26t25.5 10t25.5 -10.5t10.5 -25.5t-11 -25.5t-25 -10.5zM585 784q-14 0 -25 10.5t-11 25.5t10.5 25.5t25.5 10.5t25.5 -10t10.5 -26q0 -15 -10.5 -25.5t-25.5 -10.5zM908 0l-231 332h-154v-332h-50v332h-154l-231 -332
h-61l250 360l-231 340h58l214 -322h155v322h50v-322h154l215 322h57l-230 -340l250 -360h-61z" />
    <glyph glyph-name="uni04DD" unicode="&#x4dd;" horiz-adv-x="807" 
d="M317 634q-15 0 -25.5 10.5t-10.5 25.5q0 16 10.5 26t25.5 10t25.5 -10.5t10.5 -25.5t-11 -25.5t-25 -10.5zM489 634q-14 0 -25 10.5t-11 25.5t10.5 25.5t25.5 10.5t25.5 -10t10.5 -26q0 -15 -10.5 -25.5t-25.5 -10.5zM725 0l-174 242h-123v-242h-50v242h-122l-174 -242
h-61l195 268l-179 254h55l164 -237h122v237h50v-237h123l164 237h55l-179 -254l194 -268h-60z" />
    <glyph glyph-name="uni04DE" unicode="&#x4de;" horiz-adv-x="631" 
d="M228 784q-15 0 -25.5 10.5t-10.5 25.5q0 16 10.5 26t25.5 10t25.5 -10.5t10.5 -25.5t-11 -25.5t-25 -10.5zM400 784q-14 0 -25 10.5t-11 25.5t10.5 25.5t25.5 10.5t25.5 -10t10.5 -26q0 -15 -10.5 -25.5t-25.5 -10.5zM406 366q71 -16 111.5 -61t40.5 -109
q0 -92 -78.5 -146.5t-188.5 -54.5q-150 0 -254 95l21 36q92 -86 227 -86q92 0 156.5 44t64.5 118q0 67 -52 103.5t-146 36.5h-144v44h142q80 0 125 34.5t45 95.5q0 68 -56.5 107.5t-140.5 39.5q-108 0 -201 -61l-19 43q103 64 221 64q105 0 176.5 -51t71.5 -136
q0 -57 -32.5 -98t-89.5 -58z" />
    <glyph glyph-name="uni04DF" unicode="&#x4df;" horiz-adv-x="526" 
d="M164 634q-15 0 -25.5 10.5t-10.5 25.5q0 16 10.5 26t25.5 10t25.5 -10.5t10.5 -25.5t-11 -25.5t-25 -10.5zM336 634q-14 0 -25 10.5t-11 25.5t10.5 25.5t25.5 10.5t25.5 -10t10.5 -26q0 -15 -10.5 -25.5t-25.5 -10.5zM339 272q58 -11 89.5 -43.5t31.5 -79.5
q0 -69 -65.5 -111.5t-160.5 -42.5q-122 0 -203 68l20 37q71 -62 182 -62q74 0 125 31.5t51 83.5q0 46 -42.5 72.5t-114.5 26.5h-84v38h82q63 0 103.5 25t40.5 67q0 49 -44.5 75.5t-113.5 26.5q-88 0 -166 -45l-15 40q88 49 187 49q87 0 145 -37.5t58 -101.5q0 -41 -29 -72
t-77 -45z" />
    <glyph glyph-name="uni04E0" unicode="&#x4e0;" horiz-adv-x="609" 
d="M294 395q125 -2 190 -55.5t65 -142.5q0 -91 -67 -146.5t-190 -55.5q-82 0 -152 25.5t-107 67.5l22 39q35 -38 98 -62t139 -24q98 0 151.5 42t53.5 114q0 73 -54.5 114t-162.5 41h-46v37l222 266h-399v45h462v-36z" />
    <glyph glyph-name="uni04E1" unicode="&#x4e1;" horiz-adv-x="503" 
d="M225 209q117 -2 178 -56.5t61 -145.5q0 -92 -63 -149t-180 -57q-77 0 -143 26.5t-102 69.5l23 39q33 -40 91.5 -64.5t129.5 -24.5q93 0 143 42.5t50 117.5t-51 117.5t-152 42.5h-44v36l209 274h-375v45h437v-36z" />
    <glyph glyph-name="uni04E2" unicode="&#x4e2;" horiz-adv-x="825" 
d="M263 798v36h294v-36h-294zM126 0v700h51v-614l477 614h45v-700h-51v613l-477 -613h-45z" />
    <glyph glyph-name="uni04E3" unicode="&#x4e3;" horiz-adv-x="682" 
d="M192 648v36h294v-36h-294zM108 0v522h50v-445l372 445h44v-522h-50v445l-372 -445h-44z" />
    <glyph glyph-name="uni04E4" unicode="&#x4e4;" horiz-adv-x="825" 
d="M324 784q-15 0 -25.5 10.5t-10.5 25.5q0 16 10.5 26t25.5 10t25.5 -10.5t10.5 -25.5t-11 -25.5t-25 -10.5zM496 784q-14 0 -25 10.5t-11 25.5t10.5 25.5t25.5 10.5t25.5 -10t10.5 -26q0 -15 -10.5 -25.5t-25.5 -10.5zM126 0v700h51v-614l477 614h45v-700h-51v613
l-477 -613h-45z" />
    <glyph glyph-name="uni04E5" unicode="&#x4e5;" horiz-adv-x="682" 
d="M253 634q-15 0 -25.5 10.5t-10.5 25.5q0 16 10.5 26t25.5 10t25.5 -10.5t10.5 -25.5t-11 -25.5t-25 -10.5zM425 634q-14 0 -25 10.5t-11 25.5t10.5 25.5t25.5 10.5t25.5 -10t10.5 -26q0 -15 -10.5 -25.5t-25.5 -10.5zM108 0v522h50v-445l372 445h44v-522h-50v445
l-372 -445h-44z" />
    <glyph glyph-name="uni04E6" unicode="&#x4e6;" horiz-adv-x="853" 
d="M340 784q-15 0 -25.5 10.5t-10.5 25.5q0 16 10.5 26t25.5 10t25.5 -10.5t10.5 -25.5t-11 -25.5t-25 -10.5zM512 784q-14 0 -25 10.5t-11 25.5t10.5 25.5t25.5 10.5t25.5 -10t10.5 -26q0 -15 -10.5 -25.5t-25.5 -10.5zM426 -5q-157 0 -260.5 101.5t-103.5 253.5
t103.5 253.5t260.5 101.5q156 0 260 -101t104 -254t-104 -254t-260 -101zM426 42q134 0 223 87.5t89 220.5t-89 220.5t-223 87.5t-223.5 -87.5t-89.5 -220.5t89.5 -220.5t223.5 -87.5z" />
    <glyph glyph-name="uni04E7" unicode="&#x4e7;" horiz-adv-x="632" 
d="M230 634q-15 0 -25.5 10.5t-10.5 25.5q0 16 10.5 26t25.5 10t25.5 -10.5t10.5 -25.5t-11 -25.5t-25 -10.5zM402 634q-14 0 -25 10.5t-11 25.5t10.5 25.5t25.5 10.5t25.5 -10t10.5 -26q0 -15 -10.5 -25.5t-25.5 -10.5zM316 -4q-113 0 -187 74.5t-74 190.5t74 190.5
t187 74.5t187 -74.5t74 -190.5t-74 -190.5t-187 -74.5zM316 41q91 0 150.5 61.5t59.5 158.5t-59.5 158.5t-150.5 61.5t-150.5 -61.5t-59.5 -158.5t59.5 -158.5t150.5 -61.5z" />
    <glyph glyph-name="uni04E8" unicode="&#x4e8;" horiz-adv-x="853" 
d="M426 705q157 0 260.5 -101t103.5 -254t-103.5 -254t-260.5 -101q-156 0 -260 101.5t-104 253.5t104 253.5t260 101.5zM426 658q-128 0 -215.5 -80.5t-95.5 -205.5h623q-8 125 -95.5 205.5t-216.5 80.5zM426 42q129 0 216.5 81t95.5 206h-623q8 -125 95.5 -206t215.5 -81z
" />
    <glyph glyph-name="uni04E9" unicode="&#x4e9;" horiz-adv-x="643" 
d="M321 526q115 0 191 -74.5t76 -190.5t-76 -190.5t-191 -74.5t-191 74.5t-76 190.5t76 190.5t191 74.5zM321 484q-90 0 -150 -56t-67 -147h434q-7 91 -67 147t-150 56zM321 38q90 0 150.5 57t66.5 148h-434q6 -91 66.5 -148t150.5 -57z" />
    <glyph glyph-name="uni04EA" unicode="&#x4ea;" horiz-adv-x="853" 
d="M340 784q-15 0 -25.5 10.5t-10.5 25.5q0 16 10.5 26t25.5 10t25.5 -10.5t10.5 -25.5t-11 -25.5t-25 -10.5zM512 784q-14 0 -25 10.5t-11 25.5t10.5 25.5t25.5 10.5t25.5 -10t10.5 -26q0 -15 -10.5 -25.5t-25.5 -10.5zM426 705q157 0 260.5 -101t103.5 -254t-103.5 -254
t-260.5 -101q-156 0 -260 101.5t-104 253.5t104 253.5t260 101.5zM426 658q-128 0 -215.5 -80.5t-95.5 -205.5h623q-8 125 -95.5 205.5t-216.5 80.5zM426 42q129 0 216.5 81t95.5 206h-623q8 -125 95.5 -206t215.5 -81z" />
    <glyph glyph-name="uni04EB" unicode="&#x4eb;" horiz-adv-x="643" 
d="M235 634q-15 0 -25.5 10.5t-10.5 25.5q0 16 10.5 26t25.5 10t25.5 -10.5t10.5 -25.5t-11 -25.5t-25 -10.5zM407 634q-14 0 -25 10.5t-11 25.5t10.5 25.5t25.5 10.5t25.5 -10t10.5 -26q0 -15 -10.5 -25.5t-25.5 -10.5zM321 526q115 0 191 -74.5t76 -190.5t-76 -190.5
t-191 -74.5t-191 74.5t-76 190.5t76 190.5t191 74.5zM321 484q-90 0 -150 -56t-67 -147h434q-7 91 -67 147t-150 56zM321 38q90 0 150.5 57t66.5 148h-434q6 -91 66.5 -148t150.5 -57z" />
    <glyph glyph-name="uni04EC" unicode="&#x4ec;" horiz-adv-x="705" 
d="M229 784q-15 0 -25.5 10.5t-10.5 25.5q0 16 10.5 26t25.5 10t25.5 -10.5t10.5 -25.5t-11 -25.5t-25 -10.5zM401 784q-14 0 -25 10.5t-11 25.5t10.5 25.5t25.5 10.5t25.5 -10t10.5 -26q0 -15 -10.5 -25.5t-25.5 -10.5zM297 705q147 0 245.5 -101t98.5 -254t-98.5 -254
t-245.5 -101q-165 0 -258 97l32 34q85 -84 224 -84q122 0 205.5 83.5t88.5 210.5h-379v43h378q-10 121 -92.5 200t-200.5 79q-137 0 -224 -84l-32 33q93 98 258 98z" />
    <glyph glyph-name="uni04ED" unicode="&#x4ed;" horiz-adv-x="568" 
d="M170 634q-15 0 -25.5 10.5t-10.5 25.5q0 16 10.5 26t25.5 10t25.5 -10.5t10.5 -25.5t-11 -25.5t-25 -10.5zM342 634q-14 0 -25 10.5t-11 25.5t10.5 25.5t25.5 10.5t25.5 -10t10.5 -26q0 -15 -10.5 -25.5t-25.5 -10.5zM242 526q117 0 195 -75.5t78 -189.5t-78 -190
t-195 -76q-132 0 -206 75l29 30q68 -62 175 -62q93 0 157.5 59t70.5 149h-295v39h294q-9 87 -72.5 143t-154.5 56q-106 0 -175 -63l-29 29q74 76 206 76z" />
    <glyph glyph-name="uni04EE" unicode="&#x4ee;" horiz-adv-x="671" 
d="M474 834v-36h-294v36h294zM603 700h53l-323 -598q-61 -114 -164 -114q-37 0 -80 18l16 42q34 -14 64 -14q71 0 118 79l24 41l-287 546h56l259 -498z" />
    <glyph glyph-name="uni04EF" unicode="&#x4ef;" horiz-adv-x="546" 
d="M405 684v-36h-294v36h294zM482 522h51l-268 -593q-30 -69 -69.5 -98t-93.5 -29q-76 0 -121 47l25 38q40 -41 97 -41q38 0 65 21t50 72l28 63l-235 520h53l209 -467z" />
    <glyph glyph-name="uni04F0" unicode="&#x4f0;" horiz-adv-x="671" 
d="M241 784q-15 0 -25.5 10.5t-10.5 25.5q0 16 10.5 26t25.5 10t25.5 -10.5t10.5 -25.5t-11 -25.5t-25 -10.5zM413 784q-14 0 -25 10.5t-11 25.5t10.5 25.5t25.5 10.5t25.5 -10t10.5 -26q0 -15 -10.5 -25.5t-25.5 -10.5zM603 700h53l-323 -598q-61 -114 -164 -114
q-37 0 -80 18l16 42q34 -14 64 -14q71 0 118 79l24 41l-287 546h56l259 -498z" />
    <glyph glyph-name="uni04F1" unicode="&#x4f1;" horiz-adv-x="546" 
d="M172 634q-15 0 -25.5 10.5t-10.5 25.5q0 16 10.5 26t25.5 10t25.5 -10.5t10.5 -25.5t-11 -25.5t-25 -10.5zM344 634q-14 0 -25 10.5t-11 25.5t10.5 25.5t25.5 10.5t25.5 -10t10.5 -26q0 -15 -10.5 -25.5t-25.5 -10.5zM482 522h51l-268 -593q-30 -69 -69.5 -98t-93.5 -29
q-76 0 -121 47l25 38q40 -41 97 -41q38 0 65 21t50 72l28 63l-235 520h53l209 -467z" />
    <glyph glyph-name="uni04F2" unicode="&#x4f2;" horiz-adv-x="671" 
d="M390 875l-115 -118h-49l103 118h61zM428 757h-49l103 118h60zM603 700h53l-323 -598q-61 -114 -164 -114q-37 0 -80 18l16 42q34 -14 64 -14q71 0 118 79l24 41l-287 546h56l259 -498z" />
    <glyph glyph-name="uni04F3" unicode="&#x4f3;" horiz-adv-x="546" 
d="M321 725l-115 -118h-49l103 118h61zM359 607h-49l103 118h60zM482 522h51l-268 -593q-30 -69 -69.5 -98t-93.5 -29q-76 0 -121 47l25 38q40 -41 97 -41q38 0 65 21t50 72l28 63l-235 520h53l209 -467z" />
    <glyph glyph-name="uni04F4" unicode="&#x4f4;" horiz-adv-x="726" 
d="M248 784q-15 0 -25.5 10.5t-10.5 25.5q0 16 10.5 26t25.5 10t25.5 -10.5t10.5 -25.5t-11 -25.5t-25 -10.5zM420 784q-14 0 -25 10.5t-11 25.5t10.5 25.5t25.5 10.5t25.5 -10t10.5 -26q0 -15 -10.5 -25.5t-25.5 -10.5zM549 700h51v-700h-51v300q-121 -53 -233 -53
q-119 0 -185.5 57.5t-66.5 161.5v234h51v-229q0 -84 54 -131t151 -47q107 0 229 54v353z" />
    <glyph glyph-name="uni04F5" unicode="&#x4f5;" horiz-adv-x="591" 
d="M178 634q-15 0 -25.5 10.5t-10.5 25.5q0 16 10.5 26t25.5 10t25.5 -10.5t10.5 -25.5t-11 -25.5t-25 -10.5zM350 634q-14 0 -25 10.5t-11 25.5t10.5 25.5t25.5 10.5t25.5 -10t10.5 -26q0 -15 -10.5 -25.5t-25.5 -10.5zM433 522h50v-522h-50v225q-93 -43 -186 -43
q-92 0 -144.5 42t-52.5 124v174h50v-171q0 -61 41 -94t113 -33q82 0 179 41v257z" />
    <glyph glyph-name="uni04F6" unicode="&#x4f6;" horiz-adv-x="568" 
d="M559 654h-382v-608h113v-206h-48v160h-116v700h433v-46z" />
    <glyph glyph-name="uni04F7" unicode="&#x4f7;" horiz-adv-x="464" 
d="M465 477h-307v-433h86v-162h-48v118h-88v522h357v-45z" />
    <glyph glyph-name="uni04F8" unicode="&#x4f8;" horiz-adv-x="966" 
d="M398 784q-15 0 -25.5 10.5t-10.5 25.5q0 16 10.5 26t25.5 10t25.5 -10.5t10.5 -25.5t-11 -25.5t-25 -10.5zM570 784q-14 0 -25 10.5t-11 25.5t10.5 25.5t25.5 10.5t25.5 -10t10.5 -26q0 -15 -10.5 -25.5t-25.5 -10.5zM407 444q124 0 188.5 -55t64.5 -163
q0 -111 -68.5 -168.5t-197.5 -57.5h-268v700h51v-256h230zM789 0v700h51v-700h-51zM395 43q213 0 213 182q0 176 -213 176h-218v-358h218z" />
    <glyph glyph-name="uni04F9" unicode="&#x4f9;" horiz-adv-x="766" 
d="M315 634q-15 0 -25.5 10.5t-10.5 25.5q0 16 10.5 26t25.5 10t25.5 -10.5t10.5 -25.5t-11 -25.5t-25 -10.5zM487 634q-14 0 -25 10.5t-11 25.5t10.5 25.5t25.5 10.5t25.5 -10t10.5 -26q0 -15 -10.5 -25.5t-25.5 -10.5zM314 332q97 -1 148 -42.5t51 -121.5q0 -83 -54 -127
t-156 -43l-195 2v522h50v-188zM609 0v522h50v-522h-50zM301 38q80 -1 121 32t41 98q0 123 -162 126l-143 1v-255z" />
    <glyph glyph-name="uni04FA" unicode="&#x4fa;" horiz-adv-x="601" 
d="M581 654h-382v-307h308v-41h-308v-260h110v-104q0 -65 -37.5 -102.5t-100.5 -37.5q-68 0 -111 36l20 36q35 -29 83 -29q46 0 71 27t25 78v50h-111v306h-109v41h109v353h433v-46z" />
    <glyph glyph-name="uni04FB" unicode="&#x4fb;" horiz-adv-x="467" 
d="M443 477h-268v-212h229v-39h-229v-182h85v-100q0 -65 -36.5 -103.5t-102.5 -38.5q-70 0 -109 36l20 36q32 -29 84 -29q94 0 94 106v49h-85v226h-80v39h80v257h318v-45z" />
    <glyph glyph-name="uni04FC" unicode="&#x4fc;" horiz-adv-x="634" 
d="M350 362l52 -66.5l53 -67.5l45 -60.5t42.5 -63t30.5 -55.5t22.5 -56.5t6.5 -48.5q0 -66 -39.5 -104.5t-101.5 -38.5q-53 0 -106 29l16 39q42 -24 82 -24q43 0 68.5 26.5t25.5 74.5q0 32 -16 71.5t-48 87t-62 87l-75 96.5q-19 23 -28 35l-232 -323h-60l261 361l-243 339
h59l216 -300l216 300h58z" />
    <glyph glyph-name="uni04FD" unicode="&#x4fd;" horiz-adv-x="510" 
d="M285 270q121 -144 164.5 -212.5t43.5 -122.5q0 -60 -39 -96.5t-100 -36.5q-54 0 -107 31l18 39q41 -27 84 -27q41 0 67.5 26t26.5 66q0 45 -40.5 107.5t-146.5 187.5l-177 -232h-57l204 269l-191 253h57l163 -216l165 216h56z" />
    <glyph glyph-name="uni04FE" unicode="&#x4fe;" horiz-adv-x="655" 
d="M376 340l244 -340h-62l-230 320l-230 -320h-60l243 340h-179v41h181l-227 319h60l212 -295l212 295h60l-227 -319h171v-41h-168z" />
    <glyph glyph-name="uni04FF" unicode="&#x4ff;" horiz-adv-x="544" 
d="M510 0h-60l-178 233l-179 -233h-58l190 247h-127v38h132l-183 237h58l168 -218l168 218h55l-183 -237h133v-38h-127z" />
    <glyph glyph-name="uni0510" unicode="&#x510;" horiz-adv-x="630" 
d="M571 126l22 -36q-104 -95 -254 -95q-110 0 -188.5 54.5t-78.5 146.5q0 64 40.5 109t111.5 61q-58 17 -90.5 57.5t-32.5 98.5q0 85 71.5 136t176.5 51q119 0 221 -64l-18 -43q-93 61 -201 61q-85 0 -141.5 -39.5t-56.5 -107.5q0 -61 45.5 -95.5t125.5 -34.5h142v-44h-144
q-95 0 -146.5 -36.5t-51.5 -103.5q0 -74 64.5 -118t156.5 -44q136 0 226 86z" />
    <glyph glyph-name="uni0511" unicode="&#x511;" horiz-adv-x="526" 
d="M475 100l20 -37q-81 -68 -203 -68q-95 0 -160.5 42.5t-65.5 111.5q0 47 31.5 79.5t89.5 43.5q-48 14 -77 45t-29 72q0 64 58 101.5t145 37.5q99 0 187 -49l-15 -40q-78 45 -166 45q-69 0 -113.5 -26.5t-44.5 -75.5q0 -42 40.5 -67t103.5 -25h82v-38h-84
q-72 0 -114.5 -26.5t-42.5 -72.5q0 -52 51 -83.5t125 -31.5q111 0 182 62z" />
    <glyph glyph-name="uni0512" unicode="&#x512;" horiz-adv-x="783" 
d="M407 -163l20 37q38 -28 84 -28q40 0 67 24.5t27 70.5v713h-361l-11 -257q-8 -215 -47.5 -309t-126.5 -94q-26 0 -49 6l5 47q17 -4 34 -4q67 0 98 81.5t39 271.5l12 304h458v-764q0 -64 -40.5 -99t-99.5 -35q-62 0 -109 35z" />
    <glyph glyph-name="uni0513" unicode="&#x513;" horiz-adv-x="624" 
d="M150 522h366v-576q0 -66 -36.5 -105t-102.5 -39q-71 0 -109 35l20 37q32 -29 83 -29q95 0 95 105v527h-272l-7 -139q-3 -63 -7.5 -107t-14.5 -92t-24 -77.5t-37.5 -48.5t-55.5 -19q-15 0 -43 7l5 43q16 -4 24 -4q16 0 29.5 6.5t23.5 20t17.5 28.5t13 40t9.5 45t6.5 52
t4 53.5t3.5 56.5z" />
    <glyph glyph-name="uni051A" unicode="&#x51a;" horiz-adv-x="855" 
d="M794 -23l27 -31q-64 -79 -165 -79q-58 0 -112.5 30t-119.5 98q-156 1 -259 102t-103 253t103.5 253.5t260.5 101.5q156 0 260 -101t104 -254q0 -135 -84 -232t-216 -118q86 -90 166 -90q81 0 138 67zM113 350q0 -131 89.5 -219.5t223.5 -88.5q133 0 222.5 88.5
t89.5 219.5t-89.5 219.5t-222.5 88.5q-134 0 -223.5 -88.5t-89.5 -219.5z" />
    <glyph glyph-name="uni051B" unicode="&#x51b;" horiz-adv-x="684" 
d="M527 522h49v-716h-50v315q-32 -59 -87.5 -92t-125.5 -33q-111 0 -184.5 74t-73.5 191q0 116 73.5 190.5t184.5 74.5q71 0 127 -33t87 -94v123zM316 41q91 0 150.5 61.5t59.5 158.5t-59.5 158.5t-150.5 61.5t-150.5 -61.5t-59.5 -158.5t59.5 -158.5t150.5 -61.5z" />
    <glyph glyph-name="uni051C" unicode="&#x51c;" horiz-adv-x="1060" 
d="M980 700h50l-233 -700h-53l-213 627l-213 -627h-53l-235 700h54l210 -628l214 628h49l212 -629z" />
    <glyph glyph-name="uni051D" unicode="&#x51d;" horiz-adv-x="920" 
d="M851 522h51l-208 -522h-51l-183 454l-183 -454h-52l-207 522h53l181 -465l185 465h47l184 -465z" />
    <glyph glyph-name="uni0524" unicode="&#x524;" horiz-adv-x="849" 
d="M702 46h113v-206h-48v160h-116v654h-474v-654h-51v700h576v-654z" />
    <glyph glyph-name="uni0525" unicode="&#x525;" horiz-adv-x="672" 
d="M564 44h86v-162h-48v118h-88v477h-356v-477h-50v522h456v-478z" />
    <glyph glyph-name="uni0526" unicode="&#x526;" horiz-adv-x="792" 
d="M663 46h113v-206h-48v160h-116v229q0 84 -54.5 131t-151.5 47q-107 0 -229 -54v-353h-51v700h51v-300q121 53 233 53q119 0 186 -58t67 -161v-188z" />
    <glyph glyph-name="uni0527" unicode="&#x527;" horiz-adv-x="685" 
d="M575 44h78v-162h-48v118h-80v300q0 87 -44 133t-125 46q-92 0 -145 -54.5t-53 -147.5v-277h-50v742h50v-335q27 56 81 87.5t127 31.5q97 0 153 -56.5t56 -163.5v-262z" />
    <glyph glyph-name="uni0528" unicode="&#x528;" horiz-adv-x="818" 
d="M-70 -163l20 37q38 -28 83 -28q41 0 68 24.5t27 70.5v759h51v-324h462v324h51v-700h-51v329h-462v-393q0 -64 -40.5 -99t-99.5 -35q-62 0 -109 35z" />
    <glyph glyph-name="uni0529" unicode="&#x529;" horiz-adv-x="670" 
d="M512 522h50v-522h-50v241h-353v-295q0 -66 -36.5 -105t-102.5 -39q-73 0 -109 35l20 37q32 -29 83 -29q46 0 70.5 27t24.5 78v572h50v-237h353v237z" />
    <glyph glyph-name="uni052E" unicode="&#x52e;" horiz-adv-x="802" 
d="M655 46h113v-206h-49v160h-115v654h-362l-9 -257q-8 -215 -47.5 -309t-126.5 -94q-27 0 -50 6l6 47q17 -4 33 -4q68 0 99 81.5t39 271.5l10 304h459v-654z" />
    <glyph glyph-name="uni052F" unicode="&#x52f;" horiz-adv-x="641" 
d="M516 44h86v-162h-48v118h-88v477h-272l-7 -139q-3 -63 -7.5 -107t-14.5 -92t-24 -77.5t-37.5 -48.5t-55.5 -19q-15 0 -43 7l5 43q16 -4 24 -4q16 0 29.5 6.5t23.5 20t17.5 28.5t13 40t9.5 45t6.5 52t4 53.5t3.5 56.5l9 180h366v-478z" />
    <glyph glyph-name="uni1E08" unicode="&#x1e08;" horiz-adv-x="716" 
d="M563 875l-157 -118h-54l139 118h72zM420 42q130 0 215 84l32 -33q-92 -98 -248 -98l-13 -49q40 -3 62.5 -24.5t22.5 -55.5q0 -38 -29.5 -60.5t-75.5 -22.5q-47 0 -79 25l14 28q27 -21 65 -21q30 0 48 14t18 39q0 23 -17 37t-49 14h-20l20 77q-145 11 -238 110t-93 244
q0 153 103.5 254t259.5 101q158 0 249 -97l-32 -33q-84 83 -215 83q-134 0 -224 -88t-90 -220t90 -220t224 -88z" />
    <glyph glyph-name="uni1E09" unicode="&#x1e09;" horiz-adv-x="555" 
d="M450 725l-157 -118h-54l139 118h72zM313 41q105 0 161 78l37 -27q-66 -96 -198 -96h-5l-13 -50q40 -3 62.5 -24.5t22.5 -55.5q0 -38 -29.5 -60.5t-75.5 -22.5q-47 0 -79 25l14 28q27 -21 65 -21q30 0 48 14t18 39q0 23 -17 37t-49 14h-20l21 79q-101 13 -164 85t-63 178
q0 117 74.5 191t189.5 74q134 0 198 -96l-37 -27q-56 78 -161 78q-93 0 -153 -61t-60 -159t60 -159t153 -61z" />
    <glyph glyph-name="uni1E0C" unicode="&#x1e0c;" horiz-adv-x="826" 
d="M122 0v700h277q166 0 269 -98t103 -252t-103 -252t-269 -98h-277zM173 46h222q147 0 236 84.5t89 219.5t-89 219.5t-236 84.5h-222v-608zM391 -184q-15 0 -25.5 10t-10.5 26q0 15 10.5 25.5t25.5 10.5t25.5 -10.5t10.5 -25.5q0 -16 -10.5 -26t-25.5 -10z" />
    <glyph glyph-name="uni1E0D" unicode="&#x1e0d;" horiz-adv-x="675" 
d="M520 742h50v-742h-49v123q-31 -61 -87 -94t-127 -33q-111 0 -184.5 74.5t-73.5 190.5q0 117 73.5 191t184.5 74q70 0 125.5 -33t87.5 -92v341zM310 41q91 0 150.5 61.5t59.5 158.5t-59.5 158.5t-150.5 61.5t-150.5 -61.5t-59.5 -158.5t59.5 -158.5t150.5 -61.5zM335 -112
q15 0 25.5 -10.5t10.5 -25.5q0 -16 -10.5 -26t-25.5 -10t-25.5 10t-10.5 26q0 15 10.5 25.5t25.5 10.5z" />
    <glyph glyph-name="uni1E0E" unicode="&#x1e0e;" horiz-adv-x="826" 
d="M122 0v700h277q166 0 269 -98t103 -252t-103 -252t-269 -98h-277zM173 46h222q147 0 236 84.5t89 219.5t-89 219.5t-236 84.5h-222v-608zM244 -165v36h294v-36h-294z" />
    <glyph glyph-name="uni1E0F" unicode="&#x1e0f;" horiz-adv-x="675" 
d="M520 742h50v-742h-49v123q-31 -61 -87 -94t-127 -33q-111 0 -184.5 74.5t-73.5 190.5q0 117 73.5 191t184.5 74q70 0 125.5 -33t87.5 -92v341zM310 41q91 0 150.5 61.5t59.5 158.5t-59.5 158.5t-150.5 61.5t-150.5 -61.5t-59.5 -158.5t59.5 -158.5t150.5 -61.5zM188 -165
v36h294v-36h-294z" />
    <glyph glyph-name="uni1E14" unicode="&#x1e14;" horiz-adv-x="669" 
d="M412 881h-50l-141 105h67zM504 818v-34h-294v34h294zM173 46h432v-46h-483v700h468v-46h-417v-276h373v-45h-373v-287z" />
    <glyph glyph-name="uni1E15" unicode="&#x1e15;" horiz-adv-x="597" 
d="M354 731h-50l-141 105h67zM446 668v-34h-294v34h294zM548 263q0 -2 -0.5 -6.5t-0.5 -7.5h-449q4 -93 65.5 -150.5t155.5 -57.5q107 0 167 73l29 -33q-70 -85 -197 -85q-118 0 -193.5 74.5t-75.5 190.5t71 190.5t179 74.5t178.5 -73.5t70.5 -189.5zM299 482
q-83 0 -138.5 -54t-61.5 -140h400q-5 85 -61 139.5t-139 54.5z" />
    <glyph glyph-name="uni1E16" unicode="&#x1e16;" horiz-adv-x="669" 
d="M493 986l-141 -105h-49l123 105h67zM504 818v-34h-294v34h294zM173 46h432v-46h-483v700h468v-46h-417v-276h373v-45h-373v-287z" />
    <glyph glyph-name="uni1E17" unicode="&#x1e17;" horiz-adv-x="597" 
d="M435 836l-141 -105h-49l123 105h67zM446 668v-34h-294v34h294zM548 263q0 -2 -0.5 -6.5t-0.5 -7.5h-449q4 -93 65.5 -150.5t155.5 -57.5q107 0 167 73l29 -33q-70 -85 -197 -85q-118 0 -193.5 74.5t-75.5 190.5t71 190.5t179 74.5t178.5 -73.5t70.5 -189.5zM299 482
q-83 0 -138.5 -54t-61.5 -140h400q-5 85 -61 139.5t-139 54.5z" />
    <glyph glyph-name="uni1E1C" unicode="&#x1e1c;" horiz-adv-x="669" 
d="M357 753q-61 0 -101.5 33t-42.5 89h37q1 -40 31.5 -64.5t75.5 -24.5t75.5 24.5t31.5 64.5h37q-2 -56 -42.5 -89t-101.5 -33zM605 0h-220l-14 -54q40 -3 62.5 -24.5t22.5 -55.5q0 -38 -29.5 -60.5t-75.5 -22.5q-47 0 -79 25l14 28q27 -21 65 -21q30 0 48 14t18 39
q0 23 -17 37t-49 14h-20l21 81h-230v700h468v-46h-417v-276h373v-45h-373v-287h432v-46z" />
    <glyph glyph-name="uni1E1D" unicode="&#x1e1d;" horiz-adv-x="597" 
d="M299 603q-61 0 -101.5 33t-42.5 89h37q1 -40 31.5 -64.5t75.5 -24.5t75.5 24.5t31.5 64.5h37q-2 -56 -42.5 -89t-101.5 -33zM548 263q0 -2 -0.5 -6.5t-0.5 -7.5h-449q4 -93 65.5 -150.5t155.5 -57.5q107 0 167 73l29 -33q-70 -85 -197 -85h-6l-13 -50q40 -3 62.5 -24.5
t22.5 -55.5q0 -38 -29.5 -60.5t-75.5 -22.5q-47 0 -79 25l14 28q27 -21 65 -21q30 0 48 14t18 39q0 23 -17 37t-49 14h-20l21 79q-104 12 -167.5 84.5t-63.5 178.5q0 116 71 190.5t179 74.5t178.5 -73.5t70.5 -189.5zM299 482q-83 0 -138.5 -54t-61.5 -140h400
q-5 85 -61 139.5t-139 54.5z" />
    <glyph glyph-name="uni1E20" unicode="&#x1e20;" horiz-adv-x="773" 
d="M552 833v-36h-294v36h294zM622 106v241h49v-262q-95 -90 -250 -90q-158 0 -262 101t-104 254t104 254t263 101t252 -96l-32 -34q-84 83 -219 83q-136 0 -226.5 -88t-90.5 -220t90.5 -220t226.5 -88q120 0 199 64z" />
    <glyph glyph-name="uni1E21" unicode="&#x1e21;" horiz-adv-x="682" 
d="M468 684v-36h-294v36h294zM528 522h48v-466q0 -130 -63 -192t-190 -62q-72 0 -136 22t-103 61l27 38q82 -76 211 -76q104 0 154 49.5t50 153.5v88q-32 -57 -89 -88t-128 -31q-112 0 -186 71.5t-74 182.5t74 182t186 71q72 0 130 -32t89 -90v118zM313 64q93 0 153.5 58.5
t60.5 150.5t-60.5 150t-153.5 58t-153 -58t-60 -150t60 -150.5t153 -58.5z" />
    <glyph glyph-name="uni1E24" unicode="&#x1e24;" horiz-adv-x="814" 
d="M641 700h51v-700h-51v333h-468v-333h-51v700h51v-322h468v322zM407 -112q15 0 25.5 -10.5t10.5 -25.5q0 -16 -10.5 -26t-25.5 -10t-25.5 10t-10.5 26q0 15 10.5 25.5t25.5 10.5z" />
    <glyph glyph-name="uni1E25" unicode="&#x1e25;" horiz-adv-x="673" 
d="M361 526q98 0 155 -57t57 -164v-305h-50v301q0 88 -44.5 134t-124.5 46q-92 0 -145 -55t-53 -148v-278h-50v742h50v-329q27 54 80 83.5t125 29.5zM338 -112q15 0 25.5 -10.5t10.5 -25.5q0 -16 -10.5 -26t-25.5 -10t-25.5 10t-10.5 26q0 15 10.5 25.5t25.5 10.5z" />
    <glyph glyph-name="uni1E2A" unicode="&#x1e2a;" horiz-adv-x="814" 
d="M641 700h51v-700h-51v333h-468v-333h-51v700h51v-322h468v322zM407 -170q46 0 76.5 23t31.5 61h36q-2 -53 -42.5 -84.5t-101.5 -31.5t-101.5 31.5t-42.5 84.5h36q1 -38 31.5 -61t76.5 -23z" />
    <glyph glyph-name="uni1E2B" unicode="&#x1e2b;" horiz-adv-x="673" 
d="M361 526q98 0 155 -57t57 -164v-305h-50v301q0 88 -44.5 134t-124.5 46q-92 0 -145 -55t-53 -148v-278h-50v742h50v-329q27 54 80 83.5t125 29.5zM338 -170q46 0 76.5 23t31.5 61h36q-2 -53 -42.5 -84.5t-101.5 -31.5t-101.5 31.5t-42.5 84.5h36q1 -38 31.5 -61t76.5 -23
z" />
    <glyph glyph-name="uni1E2E" unicode="&#x1e2e;" horiz-adv-x="295" 
d="M94 881l123 105h67l-141 -105h-49zM63 784q-15 0 -25.5 10.5t-10.5 25.5q0 14 10.5 24.5t25.5 10.5q14 0 24.5 -10.5t10.5 -24.5q0 -15 -10.5 -25.5t-24.5 -10.5zM234 784q-14 0 -25 10.5t-11 25.5q0 14 11 24.5t25 10.5t24.5 -10.5t10.5 -24.5q0 -15 -10.5 -25.5
t-24.5 -10.5zM122 0v700h51v-700h-51z" />
    <glyph glyph-name="uni1E2F" unicode="&#x1e2f;" horiz-adv-x="261" 
d="M77 731l123 105h67l-141 -105h-49zM46 634q-15 0 -25.5 10.5t-10.5 25.5q0 14 10.5 24.5t25.5 10.5q14 0 24.5 -10.5t10.5 -24.5q0 -15 -10.5 -25.5t-24.5 -10.5zM217 634q-14 0 -25 10.5t-11 25.5q0 14 11 24.5t25 10.5t24.5 -10.5t10.5 -24.5q0 -15 -10.5 -25.5
t-24.5 -10.5zM106 0v522h50v-522h-50z" />
    <glyph glyph-name="uni1E36" unicode="&#x1e36;" horiz-adv-x="585" 
d="M122 0v700h51v-654h403v-46h-454zM360 -184q-15 0 -25.5 10t-10.5 26q0 15 10.5 25.5t25.5 10.5t25.5 -10.5t10.5 -25.5q0 -16 -10.5 -26t-25.5 -10z" />
    <glyph glyph-name="uni1E37" unicode="&#x1e37;" horiz-adv-x="261" 
d="M106 0v742h50v-742h-50zM131 -184q-15 0 -25.5 10t-10.5 26q0 15 10.5 25.5t25.5 10.5t25.5 -10.5t10.5 -25.5q0 -16 -10.5 -26t-25.5 -10z" />
    <glyph glyph-name="uni1E3A" unicode="&#x1e3a;" horiz-adv-x="585" 
d="M122 0v700h51v-654h403v-46h-454zM213 -165v36h294v-36h-294z" />
    <glyph glyph-name="uni1E3B" unicode="&#x1e3b;" horiz-adv-x="261" 
d="M106 0v742h50v-742h-50zM-16 -165v36h294v-36h-294z" />
    <glyph glyph-name="uni1E42" unicode="&#x1e42;" horiz-adv-x="956" 
d="M834 0h-50l-1 599l-293 -506h-25l-293 504v-597h-50v700h43l313 -541l313 541h42zM478 -112q15 0 25.5 -10.5t10.5 -25.5q0 -16 -10.5 -26t-25.5 -10t-25.5 10t-10.5 26q0 15 10.5 25.5t25.5 10.5z" />
    <glyph glyph-name="uni1E43" unicode="&#x1e43;" horiz-adv-x="1064" 
d="M756 526q97 0 152.5 -57t55.5 -164v-305h-50v301q0 88 -43 134t-120 46q-88 0 -139.5 -55t-51.5 -148v-278h-50v301q0 88 -43 134t-120 46q-88 0 -139.5 -55t-51.5 -148v-278h-50v522h48v-112q26 55 77.5 85.5t122.5 30.5q148 0 191 -126q26 58 81.5 92t129.5 34z
M534 -112q15 0 25.5 -10.5t10.5 -25.5q0 -16 -10.5 -26t-25.5 -10t-25.5 10t-10.5 26q0 15 10.5 25.5t25.5 10.5z" />
    <glyph glyph-name="uni1E44" unicode="&#x1e44;" horiz-adv-x="814" 
d="M407 785q-17 0 -28 11.5t-11 27.5t11.5 27.5t27.5 11.5t27.5 -11.5t11.5 -27.5t-11 -27.5t-28 -11.5zM641 700h51v-700h-42l-477 608v-608h-51v700h43l476 -608v608z" />
    <glyph glyph-name="uni1E45" unicode="&#x1e45;" horiz-adv-x="673" 
d="M338 635q-16 0 -27.5 11.5t-11.5 27.5t11.5 27.5t27.5 11.5t27.5 -11.5t11.5 -27.5t-11.5 -27.5t-27.5 -11.5zM361 526q98 0 155 -57t57 -164v-305h-50v301q0 88 -44.5 134t-124.5 46q-92 0 -145 -55t-53 -148v-278h-50v522h48v-113q27 55 80.5 86t126.5 31z" />
    <glyph glyph-name="uni1E46" unicode="&#x1e46;" horiz-adv-x="814" 
d="M641 700h51v-700h-42l-477 608v-608h-51v700h43l476 -608v608zM407 -112q15 0 25.5 -10.5t10.5 -25.5q0 -16 -10.5 -26t-25.5 -10t-25.5 10t-10.5 26q0 15 10.5 25.5t25.5 10.5z" />
    <glyph glyph-name="uni1E47" unicode="&#x1e47;" horiz-adv-x="673" 
d="M361 526q98 0 155 -57t57 -164v-305h-50v301q0 88 -44.5 134t-124.5 46q-92 0 -145 -55t-53 -148v-278h-50v522h48v-113q27 55 80.5 86t126.5 31zM338 -112q15 0 25.5 -10.5t10.5 -25.5q0 -16 -10.5 -26t-25.5 -10t-25.5 10t-10.5 26q0 15 10.5 25.5t25.5 10.5z" />
    <glyph glyph-name="uni1E48" unicode="&#x1e48;" horiz-adv-x="814" 
d="M641 700h51v-700h-42l-477 608v-608h-51v700h43l476 -608v608zM260 -165v36h294v-36h-294z" />
    <glyph glyph-name="uni1E49" unicode="&#x1e49;" horiz-adv-x="673" 
d="M361 526q98 0 155 -57t57 -164v-305h-50v301q0 88 -44.5 134t-124.5 46q-92 0 -145 -55t-53 -148v-278h-50v522h48v-113q27 55 80.5 86t126.5 31zM191 -165v36h294v-36h-294z" />
    <glyph glyph-name="uni1E4C" unicode="&#x1e4c;" horiz-adv-x="838" 
d="M365 881l123 105h67l-141 -105h-49zM484 768q-31 0 -70.5 27t-57.5 27q-48 0 -50 -51h-33q1 39 23 61.5t59 22.5q31 0 69.5 -27t57.5 -27q49 0 51 49h32q-1 -37 -23 -59.5t-58 -22.5zM419 -5q-157 0 -260.5 101.5t-103.5 253.5t103.5 253.5t260.5 101.5q156 0 260 -101
t104 -254t-104 -254t-260 -101zM419 42q134 0 223 87.5t89 220.5t-89 220.5t-223 87.5t-223.5 -87.5t-89.5 -220.5t89.5 -220.5t223.5 -87.5z" />
    <glyph glyph-name="uni1E4D" unicode="&#x1e4d;" horiz-adv-x="620" 
d="M256 731l123 105h67l-141 -105h-49zM375 618q-31 0 -70.5 27t-57.5 27q-48 0 -50 -51h-33q1 39 23 61.5t59 22.5q30 0 69 -27t58 -27q49 0 51 49h32q-1 -37 -23 -59.5t-58 -22.5zM310 -4q-113 0 -187 74.5t-74 190.5t74 190.5t187 74.5t187 -74.5t74 -190.5t-74 -190.5
t-187 -74.5zM310 41q91 0 150.5 61.5t59.5 158.5t-59.5 158.5t-150.5 61.5t-150.5 -61.5t-59.5 -158.5t59.5 -158.5t150.5 -61.5z" />
    <glyph glyph-name="uni1E4E" unicode="&#x1e4e;" horiz-adv-x="838" 
d="M334 908q-15 0 -25.5 10.5t-10.5 25.5q0 14 10.5 24.5t25.5 10.5q14 0 24.5 -10.5t10.5 -24.5q0 -15 -10.5 -25.5t-24.5 -10.5zM505 908q-14 0 -25 10.5t-11 25.5q0 14 11 24.5t25 10.5t24.5 -10.5t10.5 -24.5q0 -15 -10.5 -25.5t-24.5 -10.5zM484 768q-31 0 -70.5 27
t-57.5 27q-48 0 -50 -51h-33q1 39 23 61.5t59 22.5q31 0 69.5 -27t57.5 -27q49 0 51 49h32q-1 -37 -23 -59.5t-58 -22.5zM419 -5q-157 0 -260.5 101.5t-103.5 253.5t103.5 253.5t260.5 101.5q156 0 260 -101t104 -254t-104 -254t-260 -101zM419 42q134 0 223 87.5t89 220.5
t-89 220.5t-223 87.5t-223.5 -87.5t-89.5 -220.5t89.5 -220.5t223.5 -87.5z" />
    <glyph glyph-name="uni1E4F" unicode="&#x1e4f;" horiz-adv-x="620" 
d="M225 758q-15 0 -25.5 10.5t-10.5 25.5q0 14 10.5 24.5t25.5 10.5q14 0 24.5 -10.5t10.5 -24.5q0 -15 -10.5 -25.5t-24.5 -10.5zM396 758q-14 0 -25 10.5t-11 25.5q0 14 11 24.5t25 10.5t24.5 -10.5t10.5 -24.5q0 -15 -10.5 -25.5t-24.5 -10.5zM375 618q-31 0 -70.5 27
t-57.5 27q-48 0 -50 -51h-33q1 39 23 61.5t59 22.5q30 0 69 -27t58 -27q49 0 51 49h32q-1 -37 -23 -59.5t-58 -22.5zM310 -4q-113 0 -187 74.5t-74 190.5t74 190.5t187 74.5t187 -74.5t74 -190.5t-74 -190.5t-187 -74.5zM310 41q91 0 150.5 61.5t59.5 158.5t-59.5 158.5
t-150.5 61.5t-150.5 -61.5t-59.5 -158.5t59.5 -158.5t150.5 -61.5z" />
    <glyph glyph-name="uni1E50" unicode="&#x1e50;" horiz-adv-x="838" 
d="M424 881l-141 105h67l124 -105h-50zM272 784v34h294v-34h-294zM419 -5q-157 0 -260.5 101.5t-103.5 253.5t103.5 253.5t260.5 101.5q156 0 260 -101t104 -254t-104 -254t-260 -101zM419 42q134 0 223 87.5t89 220.5t-89 220.5t-223 87.5t-223.5 -87.5t-89.5 -220.5
t89.5 -220.5t223.5 -87.5z" />
    <glyph glyph-name="uni1E51" unicode="&#x1e51;" horiz-adv-x="620" 
d="M315 731l-141 105h67l124 -105h-50zM163 634v34h294v-34h-294zM310 -4q-113 0 -187 74.5t-74 190.5t74 190.5t187 74.5t187 -74.5t74 -190.5t-74 -190.5t-187 -74.5zM310 41q91 0 150.5 61.5t59.5 158.5t-59.5 158.5t-150.5 61.5t-150.5 -61.5t-59.5 -158.5t59.5 -158.5
t150.5 -61.5z" />
    <glyph glyph-name="uni1E52" unicode="&#x1e52;" horiz-adv-x="838" 
d="M365 881l123 105h67l-141 -105h-49zM272 784v34h294v-34h-294zM419 -5q-157 0 -260.5 101.5t-103.5 253.5t103.5 253.5t260.5 101.5q156 0 260 -101t104 -254t-104 -254t-260 -101zM419 42q134 0 223 87.5t89 220.5t-89 220.5t-223 87.5t-223.5 -87.5t-89.5 -220.5
t89.5 -220.5t223.5 -87.5z" />
    <glyph glyph-name="uni1E53" unicode="&#x1e53;" horiz-adv-x="620" 
d="M256 731l123 105h67l-141 -105h-49zM163 634v34h294v-34h-294zM310 -4q-113 0 -187 74.5t-74 190.5t74 190.5t187 74.5t187 -74.5t74 -190.5t-74 -190.5t-187 -74.5zM310 41q91 0 150.5 61.5t59.5 158.5t-59.5 158.5t-150.5 61.5t-150.5 -61.5t-59.5 -158.5t59.5 -158.5
t150.5 -61.5z" />
    <glyph glyph-name="uni1E5A" unicode="&#x1e5a;" horiz-adv-x="720" 
d="M666 0h-58l-167 234q-37 -5 -68 -5h-200v-229h-51v700h251q132 0 207 -62.5t75 -173.5q0 -83 -42.5 -139.5t-121.5 -79.5zM173 274h200q112 0 171 49.5t59 140.5t-59 140.5t-171 49.5h-200v-380zM368 -112q15 0 25.5 -10.5t10.5 -25.5q0 -16 -10.5 -26t-25.5 -10
t-25.5 10t-10.5 26q0 15 10.5 25.5t25.5 10.5z" />
    <glyph glyph-name="uni1E5B" unicode="&#x1e5b;" horiz-adv-x="394" 
d="M154 408q50 118 199 118v-49q-2 0 -6 0.5t-6 0.5q-87 0 -136 -54.5t-49 -151.5v-272h-50v522h48v-114zM131 -112q15 0 25.5 -10.5t10.5 -25.5q0 -16 -10.5 -26t-25.5 -10t-25.5 10t-10.5 26q0 15 10.5 25.5t25.5 10.5z" />
    <glyph glyph-name="uni1E5E" unicode="&#x1e5e;" horiz-adv-x="720" 
d="M491 245l175 -245h-58l-167 234q-37 -5 -68 -5h-200v-229h-51v700h251q132 0 207 -62.5t75 -173.5q0 -83 -42.5 -139.5t-121.5 -79.5zM173 274h200q112 0 171 49.5t59 140.5t-59 140.5t-171 49.5h-200v-380zM221 -165v36h294v-36h-294z" />
    <glyph glyph-name="uni1E5F" unicode="&#x1e5f;" horiz-adv-x="394" 
d="M154 408q50 118 199 118v-49q-2 0 -6 0.5t-6 0.5q-87 0 -136 -54.5t-49 -151.5v-272h-50v522h48v-114zM-16 -165v36h294v-36h-294z" />
    <glyph glyph-name="uni1E60" unicode="&#x1e60;" horiz-adv-x="609" 
d="M320 785q-16 0 -27.5 11.5t-11.5 27.5t11.5 27.5t27.5 11.5t27.5 -11.5t11.5 -27.5t-11.5 -27.5t-27.5 -11.5zM306 -5q-77 0 -146.5 26.5t-108.5 68.5l23 38q37 -39 99.5 -63.5t131.5 -24.5q100 0 151 38t51 99q0 42 -24 71t-62.5 44t-85.5 26t-93.5 24.5t-85 32.5
t-62.5 55.5t-24 88.5q0 80 63 133t185 53q124 0 211 -63l-19 -41q-86 59 -192 59q-97 0 -147 -39t-50 -101q0 -49 32.5 -80.5t81 -44.5l105 -28.5t105 -32t81 -56t32.5 -98.5q0 -80 -64.5 -132.5t-187.5 -52.5z" />
    <glyph glyph-name="uni1E61" unicode="&#x1e61;" horiz-adv-x="478" 
d="M238 635q-16 0 -27.5 11.5t-11.5 27.5t11.5 27.5t27.5 11.5t27.5 -11.5t11.5 -27.5t-11.5 -27.5t-27.5 -11.5zM238 -4q-63 0 -120 19t-89 48l23 40q32 -27 82.5 -45t105.5 -18q154 0 154 98q0 35 -25.5 56.5t-64 29t-83.5 17.5t-83.5 21.5t-64 42t-25.5 78.5
q0 62 51.5 102.5t146.5 40.5q50 0 99 -14t80 -37l-23 -40q-65 47 -157 47q-73 0 -110 -27t-37 -71q0 -43 35.5 -66t86.5 -31.5t102 -19.5t86.5 -42t35.5 -86q0 -65 -54 -104t-152 -39z" />
    <glyph glyph-name="uni1E62" unicode="&#x1e62;" horiz-adv-x="609" 
d="M306 -5q-77 0 -146.5 26.5t-108.5 68.5l23 38q37 -39 99.5 -63.5t131.5 -24.5q100 0 151 38t51 99q0 42 -24 71t-62.5 44t-85.5 26t-93.5 24.5t-85 32.5t-62.5 55.5t-24 88.5q0 80 63 133t185 53q124 0 211 -63l-19 -41q-86 59 -192 59q-97 0 -147 -39t-50 -101
q0 -49 32.5 -80.5t81 -44.5l105 -28.5t105 -32t81 -56t32.5 -98.5q0 -80 -64.5 -132.5t-187.5 -52.5zM320 -184q-15 0 -25.5 10t-10.5 26q0 15 10.5 25.5t25.5 10.5t25.5 -10.5t10.5 -25.5q0 -16 -10.5 -26t-25.5 -10z" />
    <glyph glyph-name="uni1E63" unicode="&#x1e63;" horiz-adv-x="478" 
d="M238 -4q-63 0 -120 19t-89 48l23 40q32 -27 82.5 -45t105.5 -18q154 0 154 98q0 35 -25.5 56.5t-64 29t-83.5 17.5t-83.5 21.5t-64 42t-25.5 78.5q0 62 51.5 102.5t146.5 40.5q50 0 99 -14t80 -37l-23 -40q-65 47 -157 47q-73 0 -110 -27t-37 -71q0 -43 35.5 -66
t86.5 -31.5t102 -19.5t86.5 -42t35.5 -86q0 -65 -54 -104t-152 -39zM238 -184q-15 0 -25.5 10t-10.5 26q0 15 10.5 25.5t25.5 10.5t25.5 -10.5t10.5 -25.5q0 -16 -10.5 -26t-25.5 -10z" />
    <glyph glyph-name="uni1E64" unicode="&#x1e64;" horiz-adv-x="609" 
d="M320 908q-15 0 -25.5 10.5t-10.5 25.5t10.5 25.5t25.5 10.5t25.5 -10.5t10.5 -25.5t-10.5 -25.5t-25.5 -10.5zM266 757l123 105h67l-141 -105h-49zM306 -5q-77 0 -146.5 26.5t-108.5 68.5l23 38q37 -39 99.5 -63.5t131.5 -24.5q100 0 151 38t51 99q0 42 -24 71t-62.5 44
t-85.5 26t-93.5 24.5t-85 32.5t-62.5 55.5t-24 88.5q0 80 63 133t185 53q124 0 211 -63l-19 -41q-86 59 -192 59q-97 0 -147 -39t-50 -101q0 -49 32.5 -80.5t81 -44.5l105 -28.5t105 -32t81 -56t32.5 -98.5q0 -80 -64.5 -132.5t-187.5 -52.5z" />
    <glyph glyph-name="uni1E65" unicode="&#x1e65;" horiz-adv-x="478" 
d="M238 758q-15 0 -25.5 10.5t-10.5 25.5t10.5 25.5t25.5 10.5t25.5 -10.5t10.5 -25.5t-10.5 -25.5t-25.5 -10.5zM184 607l123 105h67l-141 -105h-49zM238 -4q-63 0 -120 19t-89 48l23 40q32 -27 82.5 -45t105.5 -18q154 0 154 98q0 35 -25.5 56.5t-64 29t-83.5 17.5
t-83.5 21.5t-64 42t-25.5 78.5q0 62 51.5 102.5t146.5 40.5q50 0 99 -14t80 -37l-23 -40q-65 47 -157 47q-73 0 -110 -27t-37 -71q0 -43 35.5 -66t86.5 -31.5t102 -19.5t86.5 -42t35.5 -86q0 -65 -54 -104t-152 -39z" />
    <glyph glyph-name="uni1E66" unicode="&#x1e66;" horiz-adv-x="609" 
d="M320 885q-15 0 -25.5 10.5t-10.5 25.5t10.5 25.5t25.5 10.5t25.5 -10.5t10.5 -25.5t-10.5 -25.5t-25.5 -10.5zM347 757h-54l-127 88h53l101 -61l101 61h53zM121 520q0 -49 32.5 -80.5t81 -44.5l105 -28.5t105 -32t81 -56t32.5 -98.5q0 -80 -64.5 -132.5t-187.5 -52.5
q-77 0 -146.5 26.5t-108.5 68.5l23 38q37 -39 99.5 -63.5t131.5 -24.5q100 0 151 38t51 99q0 42 -24 71t-62.5 44t-85.5 26t-93.5 24.5t-85 32.5t-62.5 55.5t-24 88.5q0 80 63 133t185 53q124 0 211 -63l-19 -41q-86 59 -192 59q-97 0 -147 -39t-50 -101z" />
    <glyph glyph-name="uni1E67" unicode="&#x1e67;" horiz-adv-x="478" 
d="M238 735q-15 0 -25.5 10.5t-10.5 25.5t10.5 25.5t25.5 10.5t25.5 -10.5t10.5 -25.5t-10.5 -25.5t-25.5 -10.5zM265 607h-54l-127 88h53l101 -61l101 61h53zM98 384q0 -43 35.5 -66t86.5 -31.5t102 -19.5t86.5 -42t35.5 -86q0 -65 -54 -104t-152 -39q-63 0 -120 19t-89 48
l23 40q32 -27 82.5 -45t105.5 -18q154 0 154 98q0 35 -25.5 56.5t-64 29t-83.5 17.5t-83.5 21.5t-64 42t-25.5 78.5q0 62 51.5 102.5t146.5 40.5q50 0 99 -14t80 -37l-23 -40q-65 47 -157 47q-73 0 -110 -27t-37 -71z" />
    <glyph glyph-name="uni1E68" unicode="&#x1e68;" horiz-adv-x="609" 
d="M320 785q-16 0 -27.5 11.5t-11.5 27.5t11.5 27.5t27.5 11.5t27.5 -11.5t11.5 -27.5t-11.5 -27.5t-27.5 -11.5zM306 -5q-77 0 -146.5 26.5t-108.5 68.5l23 38q37 -39 99.5 -63.5t131.5 -24.5q100 0 151 38t51 99q0 42 -24 71t-62.5 44t-85.5 26t-93.5 24.5t-85 32.5
t-62.5 55.5t-24 88.5q0 80 63 133t185 53q124 0 211 -63l-19 -41q-86 59 -192 59q-97 0 -147 -39t-50 -101q0 -49 32.5 -80.5t81 -44.5l105 -28.5t105 -32t81 -56t32.5 -98.5q0 -80 -64.5 -132.5t-187.5 -52.5zM320 -184q-15 0 -25.5 10t-10.5 26q0 15 10.5 25.5t25.5 10.5
t25.5 -10.5t10.5 -25.5q0 -16 -10.5 -26t-25.5 -10z" />
    </font>
</defs>
</svg>
